<?xml version="1.0" standalone="no"?>
<!DOCTYPE svg PUBLIC "-//W3C//DTD SVG 1.1//EN" "http://www.w3.org/Graphics/SVG/1.1/DTD/svg11.dtd" >
<svg>
<metadata>
Created by FontForge 20110222 at Sun Apr 13 12:50:44 2014
 By Orthosie Webhosting
Copyright (c) 2012 Admix Designs. All rights reserved.
</metadata>
<defs>
<font id="MavenProLight300-Regular" horiz-adv-x="536" >
  <font-face 
    font-family="Maven Pro Light 300"
    font-weight="400"
    font-stretch="normal"
    units-per-em="1000"
    panose-1="0 0 0 0 0 0 0 0 0 0"
    ascent="800"
    descent="-200"
    x-height="485"
    cap-height="643"
    bbox="-73 -200 1016 874"
    underline-thickness="50"
    underline-position="-50"
    unicode-range="U+0020-2122"
  />
<missing-glyph horiz-adv-x="418" 
 />
    <glyph glyph-name=".notdef" horiz-adv-x="418" 
 />
    <glyph glyph-name="space" unicode=" " horiz-adv-x="311" 
 />
    <glyph glyph-name="a" unicode="a" horiz-adv-x="521" 
d="M248 493c144 0 207 -71 207 -203v-148c0 -132 -135 -149 -196 -149c-63 0 -202 20 -202 151c0 151 187 157 232 157c65 0 100 -7 116 -10c0 102 -50 153 -160 153c-63 0 -115 -15 -138 -22v48c36 12 86 23 141 23zM406 142v104c-13 2 -57 9 -123 9
c-61 0 -177 -14 -177 -111c0 -89 93 -106 153 -106c59 0 147 16 147 104z" />
    <glyph glyph-name="b" unicode="b" horiz-adv-x="543" 
d="M262 494c104 0 223 -44 223 -247c0 -222 -134 -255 -216 -255c-177 0 -194 115 -194 151v530h50v-203c41 15 89 24 137 24zM269 38c69 0 166 23 166 209c0 150 -66 200 -173 200c-49 0 -97 -10 -137 -27v-279c0 -51 36 -103 144 -103z" />
    <glyph glyph-name="c" unicode="c" horiz-adv-x="462" 
d="M108 243c0 -153 73 -203 183 -203c46 0 93 9 136 26v-48c-45 -17 -93 -26 -141 -26c-103 0 -227 42 -227 251c0 208 124 251 227 251c48 0 96 -10 141 -26v-48c-43 16 -90 26 -136 26c-110 0 -183 -51 -183 -203z" />
    <glyph glyph-name="d" unicode="d" horiz-adv-x="546" 
d="M62 247c0 203 118 246 222 246c49 0 96 -8 138 -23v202h49v-529c0 -37 -17 -151 -194 -151c-82 0 -215 33 -215 255zM112 247c0 -186 96 -209 165 -209c108 0 145 52 145 103v279c-41 17 -89 27 -138 27c-106 0 -172 -51 -172 -200z" />
    <glyph glyph-name="e" unicode="e" 
d="M277 493c207 0 209 -221 209 -253c0 -22 -1 -25 -1 -26h-373c1 -17 4 -31 9 -43c14 -94 80 -130 174 -130c59 0 118 12 158 34v-51c-45 -21 -107 -31 -162 -31c-110 0 -230 47 -230 240c0 77 24 260 216 260zM274 446c-105 0 -157 -70 -162 -188h323
c0 24 -6 188 -161 188z" />
    <glyph glyph-name="f" unicode="f" horiz-adv-x="316" 
d="M269 642c-40 0 -102 0 -102 -113v-44h144v-44h-144v-441h-50v441h-77v44h77v44c0 158 108 159 144 159c20 0 38 -3 53 -7v-44c-13 3 -28 5 -45 5z" />
    <glyph glyph-name="g" unicode="g" horiz-adv-x="522" 
d="M267 494c175 0 190 -113 190 -147v-373c0 -77 -35 -165 -210 -165c-54 0 -99 7 -134 16v47c32 -8 76 -16 128 -16c144 0 167 60 167 116v61c-43 -16 -89 -25 -135 -25c-98 0 -216 38 -216 238c0 216 130 248 210 248zM408 83v266c0 47 -34 99 -141 99
c-66 0 -160 -22 -160 -202c0 -168 87 -192 166 -192c47 0 92 10 135 29z" />
    <glyph glyph-name="h" unicode="h" horiz-adv-x="549" 
d="M299 494c116 0 183 -67 183 -197v-297h-49v297c0 102 -48 147 -140 147c-62 0 -120 -19 -161 -37v-407h-50v672h50v-217c44 19 103 39 167 39z" />
    <glyph glyph-name="i" unicode="i" horiz-adv-x="220" 
d="M82 575v74h55v-74h-55zM85 0v485h49v-485h-49z" />
    <glyph glyph-name="j" unicode="j" horiz-adv-x="226" 
d="M101 -42v527h49v-509c0 -144 -76 -167 -153 -167v46c68 0 104 25 104 103zM98 649h55v-74h-55v74z" />
    <glyph glyph-name="k" unicode="k" horiz-adv-x="475" 
d="M233 265l234 -265h-66l-201 230l-69 -74v-156h-50v672h50v-446l242 259h67z" />
    <glyph glyph-name="l" unicode="l" horiz-adv-x="230" 
d="M140 0h-50v672h50v-672z" />
    <glyph glyph-name="m" unicode="m" horiz-adv-x="865" 
d="M604 494c113 0 180 -60 180 -178v-316h-50v316c0 71 -28 128 -133 128c-65 0 -121 -20 -160 -38c11 -26 17 -55 17 -90v-316h-50v316c0 71 -28 128 -135 128c-52 0 -103 -14 -141 -30v-414h-50v443c35 18 110 51 197 51c58 0 103 -17 133 -50c42 22 110 50 192 50z" />
    <glyph glyph-name="n" unicode="n" horiz-adv-x="550" 
d="M283 494c119 0 188 -60 188 -178v-316h-50v316c0 71 -30 128 -143 128c-59 0 -113 -15 -154 -31v-413h-49v442c34 18 114 52 208 52z" />
    <glyph glyph-name="o" unicode="o" horiz-adv-x="559" 
d="M280 494c104 0 227 -45 227 -251s-123 -251 -227 -251s-227 45 -227 251s123 251 227 251zM280 38c107 0 178 52 178 205s-71 205 -178 205c-106 0 -178 -52 -178 -205s72 -205 178 -205z" />
    <glyph glyph-name="p" unicode="p" horiz-adv-x="544" 
d="M269 494c82 0 215 -34 215 -256c0 -202 -118 -246 -222 -246c-49 0 -96 9 -138 24v-200h-49v527c0 37 17 151 194 151zM262 39c107 0 172 50 172 200c0 185 -96 209 -165 209c-108 0 -145 -53 -145 -103v-279c41 -18 89 -27 138 -27z" />
    <glyph glyph-name="q" unicode="q" horiz-adv-x="545" 
d="M57 238c0 222 133 256 215 256c178 0 194 -114 194 -151v-527h-49v200c-42 -15 -89 -24 -137 -24c-104 0 -223 44 -223 246zM107 239c0 -150 65 -200 173 -200c48 0 96 9 137 27v279c0 50 -37 103 -145 103c-69 0 -165 -24 -165 -209z" />
    <glyph glyph-name="r" unicode="r" horiz-adv-x="318" 
d="M302 445c-76 -2 -141 -19 -179 -30v-415h-49v447c28 12 117 45 228 46v-48z" />
    <glyph glyph-name="s" unicode="s" horiz-adv-x="424" 
d="M103 359c0 -118 275 -45 275 -233c0 -78 -60 -134 -176 -134c-64 0 -114 16 -152 35v52c44 -23 95 -38 150 -38c74 0 128 28 128 85c0 145 -275 62 -275 233c0 69 47 135 165 135c52 0 96 -14 131 -29v-49c-31 15 -74 30 -126 30c-64 0 -120 -24 -120 -87z" />
    <glyph glyph-name="t" unicode="t" horiz-adv-x="329" 
d="M236 39c23 0 42 4 59 10v-47c-19 -5 -41 -9 -65 -9c-37 0 -127 4 -127 125v323h-78v44h78v137h50v-137h140v-44h-140v-321c0 -66 38 -81 83 -81z" />
    <glyph glyph-name="u" unicode="u" horiz-adv-x="558" 
d="M428 198v287h50v-284c0 -134 -74 -208 -202 -208c-129 0 -202 74 -202 208v284h50v-287c0 -107 50 -160 152 -160c100 0 152 53 152 160z" />
    <glyph glyph-name="v" unicode="v" horiz-adv-x="493" 
d="M246 62l168 423h53l-196 -485h-50c-66 161 -130 323 -196 485h53z" />
    <glyph glyph-name="w" unicode="w" horiz-adv-x="748" 
d="M374 411l-129 -411h-49l-169 485h53l141 -414l129 414h47l131 -414c46 138 94 276 141 414h52l-168 -485h-50z" />
    <glyph glyph-name="x" unicode="x" horiz-adv-x="490" 
d="M34 0l178 245l-173 240h58c49 -67 96 -135 145 -202l144 202h61l-175 -241c59 -82 119 -163 178 -244h-59l-149 208c-49 -70 -98 -139 -148 -208h-60z" />
    <glyph glyph-name="y" unicode="y" horiz-adv-x="482" 
d="M246 65l155 420h53l-203 -543c-40 -107 -98 -133 -148 -133c-18 0 -36 5 -46 9v46c10 -5 29 -9 41 -9c76 0 95 86 124 145l-189 485h54c52 -140 106 -280 159 -420z" />
    <glyph glyph-name="z" unicode="z" horiz-adv-x="457" 
d="M406 44v-44h-357v44c97 132 194 264 292 396h-284v45h345v-43l-293 -398h297z" />
    <glyph glyph-name="A" unicode="A" horiz-adv-x="626" 
d="M336 643l261 -643h-53c-28 67 -54 136 -82 204h-302l-81 -204h-54c88 214 174 429 262 643h49zM311 583l-132 -332h265z" />
    <glyph glyph-name="B" unicode="B" horiz-adv-x="586" 
d="M405 339c32 -3 129 -40 129 -164c0 -116 -84 -175 -223 -175h-233v643h211c158 0 208 -79 208 -163c0 -94 -61 -136 -92 -141zM315 46c94 0 169 33 169 133c0 105 -84 129 -171 129h-186v-262h188zM448 474c0 84 -55 122 -154 122h-167v-242h173c85 0 148 31 148 120z
" />
    <glyph glyph-name="C" unicode="C" horiz-adv-x="592" 
d="M110 321c0 -210 102 -283 254 -283c64 0 127 12 187 35v-47c-61 -22 -127 -35 -192 -35c-177 0 -298 94 -298 330s121 332 297 332c67 0 132 -13 193 -37v-47c-60 23 -123 37 -187 37c-153 0 -254 -75 -254 -285z" />
    <glyph glyph-name="D" unicode="D" horiz-adv-x="633" 
d="M77 643h196c203 0 304 -109 304 -322c0 -214 -101 -321 -304 -321h-196v643zM127 597v-551h142c177 0 258 88 258 275c0 188 -81 276 -258 276h-142z" />
    <glyph glyph-name="E" unicode="E" horiz-adv-x="529" 
d="M127 597v-249h308v-48h-308v-253h349v-47h-398v643h398v-46h-349z" />
    <glyph glyph-name="F" unicode="F" horiz-adv-x="506" 
d="M78 643h387v-46h-338v-250h297v-48h-297v-299h-49v643z" />
    <glyph glyph-name="G" unicode="G" horiz-adv-x="643" 
d="M345 338h230v-301c-67 -31 -143 -45 -216 -45c-177 0 -299 93 -299 329c0 235 121 331 298 331c69 0 135 -14 197 -38v-48c-61 24 -125 38 -191 38c-153 0 -254 -75 -254 -283c0 -210 101 -283 254 -283c54 0 111 10 161 27v225h-180v48z" />
    <glyph glyph-name="H" unicode="H" horiz-adv-x="629" 
d="M498 643h50v-643h-50v298h-371v-298h-49v643h49v-297h371v297z" />
    <glyph glyph-name="I" unicode="I" horiz-adv-x="211" 
d="M78 643h49v-643h-49v643z" />
    <glyph glyph-name="J" unicode="J" horiz-adv-x="414" 
d="M281 643h50v-461c0 -149 -86 -191 -174 -191c-49 0 -91 13 -125 32v51c32 -20 72 -34 119 -34c90 0 130 44 130 146v457z" />
    <glyph glyph-name="K" unicode="K" horiz-adv-x="558" 
d="M242 343l298 -343h-65l-265 308l-83 -90v-217h-49v642h49v-357l323 357h66z" />
    <glyph glyph-name="L" unicode="L" horiz-adv-x="491" 
d="M127 48h337v-48h-386v643h49v-595z" />
    <glyph glyph-name="M" unicode="M" horiz-adv-x="743" 
d="M609 643h54v-643h-50v561l-243 -348l-243 348v-561h-49v643h53l239 -348z" />
    <glyph glyph-name="N" unicode="N" horiz-adv-x="669" 
d="M588 0h-55l-406 569v-569h-50v643h56l405 -570v570h50v-643z" />
    <glyph glyph-name="O" unicode="O" horiz-adv-x="719" 
d="M357 653c201 0 297 -114 297 -331s-96 -331 -297 -331c-200 0 -296 114 -296 331s96 331 296 331zM357 38c173 0 247 93 247 284c0 190 -74 284 -247 284c-172 0 -247 -94 -247 -284c0 -191 75 -284 247 -284z" />
    <glyph glyph-name="P" unicode="P" horiz-adv-x="551" 
d="M77 643h216c141 0 218 -73 218 -195c0 -126 -82 -195 -219 -195h-166v-252h-49v642zM287 595h-161v-295h160c136 0 176 69 176 148c0 75 -35 147 -175 147z" />
    <glyph glyph-name="Q" unicode="Q" horiz-adv-x="716" 
d="M654 322c0 -207 -88 -320 -270 -330c12 -58 53 -106 147 -110v-45c-149 2 -187 94 -197 155c-185 9 -273 121 -273 330c0 217 96 331 296 331c201 0 297 -114 297 -331zM357 38c173 0 247 93 247 284c0 190 -74 284 -247 284c-172 0 -247 -94 -247 -284
c0 -191 75 -284 247 -284z" />
    <glyph glyph-name="R" unicode="R" horiz-adv-x="582" 
d="M543 0h-58l-173 267h-185v-267h-50v643h228c136 0 213 -67 213 -185c0 -133 -102 -175 -154 -183zM302 596h-175v-282h175c128 0 166 65 166 141c0 72 -33 141 -166 141z" />
    <glyph glyph-name="S" unicode="S" horiz-adv-x="543" 
d="M115 479c0 -168 367 -70 367 -315c0 -101 -76 -173 -225 -173c-82 0 -147 20 -196 44v53c44 -25 107 -48 192 -48c101 0 178 39 178 124c0 203 -367 94 -367 315c0 89 59 174 212 174c68 0 125 -17 171 -39v-51c-42 22 -99 41 -166 41c-110 0 -166 -48 -166 -125z" />
    <glyph glyph-name="T" unicode="T" horiz-adv-x="553" 
d="M17 643h517v-48h-233v-595h-50v595h-234v48z" />
    <glyph glyph-name="U" unicode="U" horiz-adv-x="661" 
d="M73 643h50v-392c0 -143 70 -215 204 -215c135 0 205 72 205 215v392h50v-390c0 -170 -91 -261 -255 -261c-163 0 -254 91 -254 261v390z" />
    <glyph glyph-name="V" unicode="V" horiz-adv-x="600" 
d="M274 0l-255 643h53l227 -572l226 572h53l-255 -643h-49z" />
    <glyph glyph-name="W" unicode="W" horiz-adv-x="911" 
d="M456 564l-180 -564h-50l-207 643h53c59 -191 119 -382 179 -573c60 191 120 382 181 573h49l180 -573l179 573h53l-207 -643h-49c-60 188 -121 375 -181 564z" />
    <glyph glyph-name="X" unicode="X" horiz-adv-x="571" 
d="M315 326l230 -326h-59l-202 283l-201 -283h-60l231 326l-224 317h59l195 -275l196 275h60z" />
    <glyph glyph-name="Y" unicode="Y" horiz-adv-x="567" 
d="M488 643h59l-239 -360v-283h-50v283l-240 360h60l205 -312z" />
    <glyph glyph-name="Z" unicode="Z" horiz-adv-x="587" 
d="M64 0v42c131 185 262 370 392 555h-381v46h445v-42l-393 -556h396v-45h-459z" />
    <glyph glyph-name="zero" unicode="0" horiz-adv-x="615" 
d="M309 651c167 0 245 -111 245 -331c0 -219 -78 -331 -245 -331c-166 0 -246 111 -246 331s80 331 246 331zM309 35c110 0 196 55 196 285c0 229 -86 285 -196 285s-196 -55 -196 -285s86 -285 196 -285z" />
    <glyph glyph-name="one" unicode="1" horiz-adv-x="410" 
d="M220 643h55v-643h-49v591l-131 -83v59z" />
    <glyph glyph-name="two" unicode="2" horiz-adv-x="550" 
d="M155 49h323v-49h-405v42c123 94 341 283 341 431c0 60 -37 129 -163 129c-76 0 -130 -24 -172 -50v54c42 24 100 46 174 46c152 0 211 -93 211 -179c0 -151 -181 -321 -309 -424z" />
    <glyph glyph-name="three" unicode="3" 
d="M332 345c39 -4 137 -56 137 -168c0 -99 -67 -186 -233 -186c-67 0 -124 16 -168 39v51c41 -23 96 -40 162 -40c123 0 189 49 189 137s-66 138 -192 139h-73v47h74c106 1 161 44 161 120c0 77 -58 119 -166 119c-57 0 -104 -14 -141 -33v51c39 19 88 32 146 32
c151 0 211 -80 211 -169c0 -94 -73 -135 -107 -139z" />
    <glyph glyph-name="four" unicode="4" horiz-adv-x="558" 
d="M412 237h93v-46h-93v-191h-49v191h-323v52c106 133 212 266 317 400h55v-406zM95 237h268v334c-89 -112 -179 -223 -268 -334z" />
    <glyph glyph-name="five" unicode="5" horiz-adv-x="557" 
d="M119 643h319v-49h-276c-9 -74 -18 -148 -26 -222c39 13 81 21 127 21c99 0 215 -38 215 -198c0 -170 -131 -203 -229 -203c-69 0 -138 15 -181 38v51c30 -18 99 -42 178 -42c124 0 183 60 183 159c0 125 -94 146 -168 146c-81 0 -129 -24 -148 -30c-10 9 -20 20 -30 30z
" />
    <glyph glyph-name="six" unicode="6" horiz-adv-x="559" 
d="M282 400c131 0 214 -76 214 -198c0 -102 -59 -210 -214 -210c-147 0 -219 98 -219 301c0 324 200 359 288 359c33 0 62 -4 86 -11v-45c-23 4 -50 9 -81 9c-66 0 -225 -21 -241 -259c30 24 87 54 167 54zM282 38c139 0 164 108 164 164c0 97 -60 152 -164 152
c-88 0 -145 -39 -170 -62c0 -215 93 -254 170 -254z" />
    <glyph glyph-name="seven" unicode="7" horiz-adv-x="550" 
d="M67 643h431v-46l-256 -597h-55l258 594h-378v49z" />
    <glyph glyph-name="eight" unicode="8" horiz-adv-x="554" 
d="M367 349c38 -2 132 -50 132 -164c0 -98 -63 -194 -219 -194c-155 0 -219 96 -219 194c0 114 96 161 133 164c-32 2 -108 45 -108 141c0 85 57 163 194 163s194 -78 194 -163c0 -98 -75 -138 -107 -141zM135 490c0 -76 53 -122 145 -122c91 0 144 46 144 122
c0 85 -68 114 -144 114c-77 0 -145 -29 -145 -114zM280 38c139 0 169 92 169 147c0 87 -59 138 -169 138c-109 0 -170 -51 -170 -138c0 -55 31 -147 170 -147z" />
    <glyph glyph-name="nine" unicode="9" horiz-adv-x="565" 
d="M272 243c-132 0 -214 75 -214 198c0 102 59 211 214 211c147 0 219 -100 219 -303c0 -323 -200 -357 -288 -357c-33 0 -62 4 -86 9v46c22 -5 50 -9 81 -9c66 0 225 21 240 258c-29 -24 -86 -53 -166 -53zM272 605c-139 0 -164 -108 -164 -164c0 -97 60 -152 164 -152
c88 0 145 38 170 62c0 215 -94 254 -170 254z" />
    <glyph glyph-name="period" unicode="." horiz-adv-x="272" 
d="M111 0v79h55v-79h-55z" />
    <glyph glyph-name="comma" unicode="," horiz-adv-x="267" 
d="M131 82h56l-72 -184h-49z" />
    <glyph glyph-name="parenleft" unicode="(" horiz-adv-x="304" 
d="M191 710h53c-31 -53 -113 -216 -113 -422c0 -204 82 -368 113 -420h-53c-40 73 -109 228 -109 420c0 193 69 349 109 422z" />
    <glyph glyph-name="parenright" unicode=")" horiz-adv-x="305" 
d="M113 710c40 -73 109 -229 109 -421c0 -193 -69 -348 -109 -421h-53c30 53 113 216 113 421s-83 368 -113 421h53z" />
    <glyph glyph-name="bracketleft" unicode="[" horiz-adv-x="339" 
d="M148 645v-732h120v-47h-169v826h169v-47h-120z" />
    <glyph glyph-name="bracketright" unicode="]" horiz-adv-x="348" 
d="M194 645h-118v47h168v-826h-168v47h118v732z" />
    <glyph glyph-name="braceleft" unicode="{" horiz-adv-x="335" 
d="M77 264v33c29 13 65 36 65 84v155c0 96 44 156 135 156v-47c-53 -1 -85 -28 -85 -93v-171c0 -45 -29 -78 -62 -101c33 -23 62 -55 62 -100v-171c0 -67 34 -91 85 -93v-46c-92 0 -135 62 -135 155v155c0 47 -36 71 -65 84z" />
    <glyph glyph-name="braceright" unicode="}" horiz-adv-x="333" 
d="M267 297v-33c-29 -13 -65 -37 -65 -84v-155c0 -93 -43 -155 -135 -155v46c53 2 85 30 85 93v171c0 45 29 77 63 100c-34 23 -63 56 -63 101v171c0 68 -34 92 -85 93v47c91 0 135 -60 135 -156v-155c0 -48 36 -71 65 -84z" />
    <glyph glyph-name="slash" unicode="/" horiz-adv-x="380" 
d="M352 731h46l-368 -853h-45z" />
    <glyph glyph-name="backslash" unicode="\" horiz-adv-x="357" 
d="M15 731l367 -853h-45l-367 853h45z" />
    <glyph glyph-name="bar" unicode="|" horiz-adv-x="349" 
d="M198 -123h-49v794h49v-794z" />
    <glyph glyph-name="quotesingle" unicode="'" horiz-adv-x="233" 
d="M97 451l-12 201h57l-12 -201h-33z" />
    <glyph glyph-name="quotedbl" unicode="&#x22;" horiz-adv-x="343" 
d="M89 451c-4 67 -8 134 -13 201h58l-12 -201h-33zM219 451l-12 201h58c-5 -67 -9 -134 -13 -201h-33z" />
    <glyph glyph-name="asterisk" unicode="*" horiz-adv-x="383" 
d="M307 620l-92 -45l92 -46l-19 -33l-84 57l6 -100h-38l7 100l-85 -57l-19 33l93 46l-93 45l19 32l85 -56l-7 100h38l-6 -100l84 56z" />
    <glyph glyph-name="ampersand" unicode="&#x26;" horiz-adv-x="603" 
d="M473 121l102 -121h-64l-69 80c-47 -53 -109 -89 -190 -89c-129 0 -196 94 -196 188c0 72 41 138 138 192c-36 45 -65 92 -65 148c0 78 54 132 134 132c89 0 133 -62 133 -134c0 -71 -49 -112 -126 -158l171 -199c23 38 38 77 46 104h49c-10 -42 -32 -95 -63 -143z
M264 604c-57 0 -87 -43 -87 -86c0 -39 27 -81 63 -124c84 45 108 80 108 118c0 52 -28 92 -84 92zM255 40c70 0 121 32 158 75l-188 221c-96 -53 -120 -106 -120 -162c0 -58 45 -134 150 -134z" />
    <glyph glyph-name="numbersign" unicode="#" horiz-adv-x="578" 
d="M418 518h42l-23 -127h79v-41h-86l-30 -171h86v-42h-93l-20 -119h-42l20 119h-157l-21 -119h-42l21 119h-85v42h92l29 171h-92v41h100l22 127h42l-22 -127h157zM358 179l30 171h-158l-29 -171h157z" />
    <glyph glyph-name="dollar" unicode="$" horiz-adv-x="553" 
d="M486 163c0 -92 -63 -162 -195 -170v-105h-32v104c-81 0 -145 18 -193 42v54c42 -25 105 -49 193 -49v273c-94 26 -190 53 -190 167c0 89 57 164 190 172v94h32v-93c63 -2 117 -18 161 -38v-51c-42 20 -96 40 -161 41v-251c95 -27 195 -62 195 -190zM291 41
c90 6 145 50 145 122c0 87 -69 115 -145 139v-261zM120 479c0 -72 65 -95 139 -116v239c-93 -7 -139 -54 -139 -123z" />
    <glyph glyph-name="Euro" unicode="&#x20ac;" horiz-adv-x="644" 
d="M409 606c-124 0 -218 -50 -245 -187h316v-42h-322c-2 -17 -3 -36 -3 -56c0 -19 2 -38 3 -54h322v-42h-316c27 -138 121 -187 246 -187c63 0 126 12 186 35v-47c-61 -22 -126 -35 -192 -35c-149 0 -262 67 -290 234h-74v42h69c-2 17 -3 35 -3 54c0 20 1 39 3 56h-69v42h74
c29 165 141 234 290 234c66 0 130 -13 192 -37v-47c-60 23 -123 37 -187 37z" />
    <glyph glyph-name="sterling" unicode="&#xa3;" horiz-adv-x="533" 
d="M344 607c-127 0 -160 -69 -160 -129v-153h215v-45h-215v-223c74 -6 140 -31 215 -31c29 0 60 4 87 14v-50c-27 -10 -57 -14 -87 -14c-87 0 -165 33 -249 33c-35 0 -70 -6 -102 -20v50c27 12 57 18 87 19v222h-87v45h87v151c0 86 53 179 205 179c58 0 108 -17 146 -37v-50
c-34 20 -83 39 -142 39z" />
    <glyph glyph-name="yen" unicode="&#xa5;" horiz-adv-x="570" 
d="M552 643l-218 -322h140v-42h-162v-102h162v-42h-162v-135h-50v135h-161v42h161v102h-161v42h139l-218 322h61l204 -303l204 303h61z" />
    <glyph glyph-name="cent" unicode="&#xa2;" horiz-adv-x="465" 
d="M426 511c-42 16 -86 25 -130 25v-405c44 0 88 9 130 26v-49c-41 -15 -86 -24 -130 -25v-83h-34v84c-98 7 -204 56 -204 250c0 192 106 243 204 249v80h34v-79c44 -1 89 -10 130 -25v-48zM108 334c0 -141 63 -193 154 -201v402c-91 -9 -154 -61 -154 -201z" />
    <glyph glyph-name="percent" unicode="%" horiz-adv-x="805" 
d="M603 39c47 0 97 17 97 137s-50 136 -97 136s-98 -16 -98 -136s51 -137 98 -137zM603 349c61 0 135 -28 135 -173s-74 -173 -135 -173c-62 0 -136 28 -136 173s74 173 136 173zM630 643l-410 -643h-45l411 643h44zM203 331c46 0 97 16 97 136s-51 136 -97 136
c-47 0 -98 -16 -98 -136s51 -136 98 -136zM203 639c61 0 135 -28 135 -172c0 -145 -74 -173 -135 -173c-62 0 -136 28 -136 173c0 144 74 172 136 172z" />
    <glyph glyph-name="perthousand" unicode="&#x2030;" horiz-adv-x="1078" 
d="M564 39c47 0 97 17 97 137s-50 136 -97 136c-46 0 -97 -16 -97 -136s51 -137 97 -137zM564 3c-62 0 -135 28 -135 173s73 173 135 173s135 -28 135 -173s-73 -173 -135 -173zM567 643h44l-410 -643h-45zM203 331c46 0 97 16 97 136s-51 136 -97 136
c-47 0 -98 -16 -98 -136s51 -136 98 -136zM203 294c-62 0 -136 28 -136 173c0 144 74 172 136 172c61 0 135 -28 135 -172c0 -145 -74 -173 -135 -173zM881 39c47 0 97 17 97 137s-50 136 -97 136s-97 -16 -97 -136s50 -137 97 -137zM881 3c-62 0 -135 28 -135 173
s73 173 135 173s135 -28 135 -173s-73 -173 -135 -173z" />
    <glyph glyph-name="plusminus" unicode="&#xb1;" horiz-adv-x="542" 
d="M290 321h153v-42h-153v-153h-42v153h-153v42h153v152h42v-152zM95 22v41h348v-41h-348z" />
    <glyph glyph-name="plus" unicode="+" horiz-adv-x="519" 
d="M432 306v-42h-153v-153h-41v153h-154v42h154v153h41v-153h153z" />
    <glyph glyph-name="equal" unicode="=" horiz-adv-x="578" 
d="M472 223v-48h-368v48h368zM472 393v-47h-368v47h368z" />
    <glyph glyph-name="less" unicode="&#x3c;" horiz-adv-x="600" 
d="M100 288l395 178v-55l-337 -147l337 -147v-55l-395 179v47z" />
    <glyph glyph-name="greater" unicode="&#x3e;" horiz-adv-x="593" 
d="M502 288v-47c-132 -59 -263 -119 -394 -179v55l336 147l-336 147v55c131 -59 262 -119 394 -178z" />
    <glyph glyph-name="logicalnot" unicode="&#xac;" horiz-adv-x="579" 
d="M87 310h408v-149h-46v103h-362v46z" />
    <glyph glyph-name="mu" unicode="&#xb5;" horiz-adv-x="570" 
d="M85 -200v685h50v-315c0 -72 29 -128 143 -128c58 0 112 14 153 31v412h50v-441c-34 -18 -114 -51 -208 -51c-81 0 -132 36 -138 64v-257h-50z" />
    <glyph glyph-name="colon" unicode=":" horiz-adv-x="314" 
d="M131 32v79h55v-79h-55zM131 372v80h55v-80h-55z" />
    <glyph glyph-name="semicolon" unicode=";" horiz-adv-x="337" 
d="M141 372v80h55v-80h-55zM142 82h56l-72 -184h-49z" />
    <glyph glyph-name="exclam" unicode="!" horiz-adv-x="309" 
d="M125 0v79h55v-79h-55zM128 643h49l-5 -478h-40z" />
    <glyph glyph-name="exclamdown" unicode="&#xa1;" horiz-adv-x="302" 
d="M180 486v-79h-55v79h55zM177 -157h-49l4 477h40z" />
    <glyph glyph-name="question" unicode="?" horiz-adv-x="441" 
d="M195 651c62 0 190 -23 190 -166c0 -155 -149 -125 -149 -288v-32h-50v36c0 182 149 160 149 284c0 83 -66 117 -140 117c-58 0 -104 -21 -128 -37v53c9 5 62 33 128 33zM183 0v79h55v-79h-55z" />
    <glyph glyph-name="questiondown" unicode="&#xbf;" horiz-adv-x="439" 
d="M211 320h49v-36c0 -182 -149 -160 -149 -284c0 -77 56 -115 138 -115c52 0 103 18 131 35v-53c-10 -4 -62 -33 -129 -33c-62 0 -190 23 -190 166c0 155 150 125 150 288v32zM263 485v-79h-55v79h55z" />
    <glyph glyph-name="tilde" unicode="&#x2dc;" horiz-adv-x="445" 
d="M89 570c0 13 -1 26 -1 39c21 29 39 44 64 44c48 0 91 -52 136 -52c20 0 40 12 59 40l2 -37c-23 -33 -41 -46 -64 -46c-47 0 -91 51 -136 51c-21 0 -41 -13 -60 -39z" />
    <glyph glyph-name="acute" unicode="&#xb4;" horiz-adv-x="241" 
d="M138 707h56l-96 -137h-38z" />
    <glyph glyph-name="dieresis" unicode="&#xa8;" horiz-adv-x="352" 
d="M73 570v78h54v-78h-54zM221 570v78h54v-78h-54z" />
    <glyph glyph-name="circumflex" unicode="&#x2c6;" horiz-adv-x="378" 
d="M214 707c33 -46 68 -92 102 -138h-48c-25 36 -52 72 -77 108l-78 -108h-47l102 138h46z" />
    <glyph glyph-name="ring" unicode="&#x2da;" horiz-adv-x="361" 
d="M175 731c53 0 83 -31 83 -85c0 -56 -30 -87 -83 -87c-54 0 -83 31 -83 87c0 54 29 85 83 85zM175 587c38 0 54 18 54 59c0 40 -16 58 -54 58s-55 -18 -55 -58c0 -41 17 -59 55 -59z" />
    <glyph glyph-name="caron" unicode="&#x2c7;" horiz-adv-x="385" 
d="M316 707c-34 -46 -69 -92 -102 -138h-46l-102 138h47l78 -108c25 36 52 72 77 108h48z" />
    <glyph glyph-name="grave" unicode="`" horiz-adv-x="231" 
d="M48 707h56l78 -137h-38z" />
    <glyph glyph-name="dotaccent" unicode="&#x2d9;" horiz-adv-x="263" 
d="M103 570v78h54v-78h-54z" />
    <glyph glyph-name="macron" unicode="&#xaf;" horiz-adv-x="375" 
d="M77 582v37h220v-37h-220z" />
    <glyph glyph-name="cedilla" unicode="&#xb8;" horiz-adv-x="271" 
d="M115 -141h-58l98 138h38z" />
    <glyph glyph-name="Agrave" unicode="&#xc0;" horiz-adv-x="626" 
d="M336 643l261 -643h-53c-28 67 -54 136 -82 204h-302l-81 -204h-54c88 214 174 429 262 643h49zM311 583l-132 -332h265zM211 852h56l78 -138h-38z" />
    <glyph glyph-name="Aacute" unicode="&#xc1;" horiz-adv-x="626" 
d="M336 643l261 -643h-53c-28 67 -54 136 -82 204h-302l-81 -204h-54c88 214 174 429 262 643h49zM311 583l-132 -332h265zM357 852h56l-96 -138h-38z" />
    <glyph glyph-name="Acircumflex" unicode="&#xc2;" horiz-adv-x="626" 
d="M336 643l261 -643h-53c-28 67 -54 136 -82 204h-302l-81 -204h-54c88 214 174 429 262 643h49zM311 583l-132 -332h265zM334 852l102 -138h-48c-25 36 -51 72 -77 108l-78 -108h-46c33 46 68 92 101 138h46z" />
    <glyph glyph-name="Atilde" unicode="&#xc3;" horiz-adv-x="626" 
d="M336 643l261 -643h-53c-28 67 -54 136 -82 204h-302l-81 -204h-54c88 214 174 429 262 643h49zM311 583l-132 -332h265zM184 721l-2 39c22 29 40 44 65 44c47 0 90 -52 135 -52c18 0 40 12 60 40c0 -12 1 -25 1 -37c-22 -32 -40 -46 -63 -46c-48 0 -91 51 -136 51
c-21 0 -42 -12 -60 -39z" />
    <glyph glyph-name="Adieresis" unicode="&#xc4;" horiz-adv-x="626" 
d="M336 643l261 -643h-53c-28 67 -54 136 -82 204h-302l-81 -204h-54c88 214 174 429 262 643h49zM311 583l-132 -332h265zM210 714v78h54v-78h-54zM359 714v78h54v-78h-54z" />
    <glyph glyph-name="Aring" unicode="&#xc5;" horiz-adv-x="626" 
d="M336 643l261 -643h-53c-28 67 -54 136 -82 204h-302l-81 -204h-54c88 214 174 429 262 643h49zM311 583l-132 -332h265zM311 848c-38 0 -54 -19 -54 -59c0 -41 16 -59 54 -59s55 18 55 59c0 40 -17 59 -55 59zM311 874c54 0 83 -30 83 -85c0 -56 -29 -86 -83 -86
c-53 0 -83 30 -83 86c0 55 30 85 83 85z" />
    <glyph glyph-name="AE" unicode="&#xc6;" horiz-adv-x="900" 
d="M496 596v-249h300v-48h-300v-252h341v-47h-391v204h-259l-126 -204h-57l402 643h431v-47h-341zM446 253v341h-16l-213 -341h229z" />
    <glyph glyph-name="Ccedilla" unicode="&#xc7;" horiz-adv-x="592" 
d="M364 606c-153 0 -254 -75 -254 -285s102 -283 254 -283c64 0 127 12 187 35v-47c-54 -20 -112 -32 -170 -34l-76 -133h-56l94 132c-167 6 -282 101 -282 330c0 236 121 332 297 332c67 0 132 -13 193 -37v-47c-60 23 -123 37 -187 37z" />
    <glyph glyph-name="Egrave" unicode="&#xc8;" horiz-adv-x="529" 
d="M127 597v-249h308v-48h-308v-253h349v-47h-398v643h398v-46h-349zM181 852h55l78 -137h-38z" />
    <glyph glyph-name="Eacute" unicode="&#xc9;" horiz-adv-x="529" 
d="M127 597v-249h308v-48h-308v-253h349v-47h-398v643h398v-46h-349zM317 852h56l-96 -137h-38z" />
    <glyph glyph-name="Ecircumflex" unicode="&#xca;" horiz-adv-x="529" 
d="M476 643v-47h-349v-249h308v-47h-308v-254h349v-46h-399v643h399zM299 852c34 -46 69 -92 102 -138h-48c-25 36 -51 72 -77 108c-26 -36 -51 -72 -78 -108h-46l102 138h45z" />
    <glyph glyph-name="Edieresis" unicode="&#xcb;" horiz-adv-x="529" 
d="M127 597v-249h308v-48h-308v-253h349v-47h-398v643h398v-46h-349zM179 715v78h54v-78h-54zM328 715v78h54v-78h-54z" />
    <glyph glyph-name="Igrave" unicode="&#xcc;" horiz-adv-x="211" 
d="M78 643h49v-643h-49v643zM5 852h56l78 -137h-38z" />
    <glyph glyph-name="Iacute" unicode="&#xcd;" horiz-adv-x="211" 
d="M78 643h49v-643h-49v643zM145 852h56l-96 -137h-38z" />
    <glyph glyph-name="Icircumflex" unicode="&#xce;" horiz-adv-x="211" 
d="M77 643h50v-643h-50v643zM125 852l102 -138h-48c-25 36 -51 72 -77 108l-78 -108h-45c32 46 67 92 100 138h46z" />
    <glyph glyph-name="Idieresis" unicode="&#xcf;" horiz-adv-x="211" 
d="M78 643h49v-643h-49v643zM1 715v78h55v-78h-55zM150 715v78h54v-78h-54z" />
    <glyph glyph-name="Eth" unicode="&#xd0;" horiz-adv-x="684" 
d="M48 300v41h78v302h195c203 0 304 -109 304 -322c0 -214 -101 -321 -304 -321h-195v300h-78zM176 597v-256h188v-41h-188v-254h142c177 0 258 88 258 275c0 188 -81 276 -258 276h-142z" />
    <glyph glyph-name="Ntilde" unicode="&#xd1;" horiz-adv-x="669" 
d="M588 0h-55l-406 569v-569h-50v643h56l405 -570v570h50v-643zM206 721c0 13 -1 26 -1 39c21 29 40 44 65 44c47 0 90 -52 135 -52c19 0 40 12 59 40l2 -37c-23 -32 -41 -46 -64 -46c-47 0 -90 51 -136 51c-21 0 -41 -13 -60 -39z" />
    <glyph glyph-name="Ograve" unicode="&#xd2;" horiz-adv-x="719" 
d="M357 653c201 0 297 -114 297 -331s-96 -331 -297 -331c-200 0 -296 114 -296 331s96 331 296 331zM357 38c173 0 247 93 247 284c0 190 -74 284 -247 284c-172 0 -247 -94 -247 -284c0 -191 75 -284 247 -284zM256 852h56l78 -137h-38z" />
    <glyph glyph-name="Oacute" unicode="&#xd3;" horiz-adv-x="719" 
d="M357 653c201 0 297 -114 297 -331s-96 -331 -297 -331c-200 0 -296 114 -296 331s96 331 296 331zM357 38c173 0 247 93 247 284c0 190 -74 284 -247 284c-172 0 -247 -94 -247 -284c0 -191 75 -284 247 -284zM397 852h57l-97 -137h-38z" />
    <glyph glyph-name="Ocircumflex" unicode="&#xd4;" horiz-adv-x="719" 
d="M357 38c172 0 247 92 247 284c0 190 -75 283 -247 283c-173 0 -247 -93 -247 -283c0 -192 74 -284 247 -284zM357 -8c-201 0 -297 112 -297 330c0 216 96 330 297 330c200 0 296 -114 296 -330c0 -218 -96 -330 -296 -330zM379 852l102 -138h-48c-25 36 -51 72 -77 108
l-78 -108h-46c33 46 68 92 101 138h46z" />
    <glyph glyph-name="Otilde" unicode="&#xd5;" horiz-adv-x="719" 
d="M357 38c172 0 247 92 247 284c0 190 -75 283 -247 283c-173 0 -247 -93 -247 -283c0 -192 74 -284 247 -284zM357 -8c-201 0 -297 112 -297 330c0 216 96 330 297 330c200 0 296 -114 296 -330c0 -218 -96 -330 -296 -330zM226 721c0 13 -1 26 -1 39c21 29 40 44 65 44
c47 0 90 -52 135 -52c17 0 39 12 59 40l2 -37c-23 -32 -41 -46 -64 -46c-47 0 -90 51 -136 51c-21 0 -41 -13 -60 -39z" />
    <glyph glyph-name="Odieresis" unicode="&#xd6;" horiz-adv-x="719" 
d="M357 653c201 0 297 -114 297 -331s-96 -331 -297 -331c-200 0 -296 114 -296 331s96 331 296 331zM357 38c173 0 247 93 247 284c0 190 -74 284 -247 284c-172 0 -247 -94 -247 -284c0 -191 75 -284 247 -284zM256 715v78h54v-78h-54zM404 715v78h54v-78h-54z" />
    <glyph glyph-name="Oslash" unicode="&#xd8;" horiz-adv-x="719" 
d="M643 643l-63 -77c49 -54 74 -137 74 -244c0 -217 -96 -331 -297 -331c-82 0 -146 19 -194 56l-38 -47h-54l62 77c-49 54 -72 137 -72 245c0 216 96 331 296 331c82 0 146 -20 194 -57l39 47h53zM110 322c0 -91 18 -161 56 -207l354 444c-39 31 -93 47 -163 47
c-172 0 -247 -94 -247 -284zM604 322c0 91 -18 160 -56 206l-354 -444c40 -31 93 -46 163 -46c173 0 247 93 247 284z" />
    <glyph glyph-name="Ugrave" unicode="&#xd9;" horiz-adv-x="661" 
d="M73 643h50v-392c0 -143 70 -215 204 -215c135 0 205 72 205 215v392h50v-390c0 -170 -91 -261 -255 -261c-163 0 -254 91 -254 261v390zM237 852h56c25 -46 52 -92 78 -138h-38z" />
    <glyph glyph-name="Uacute" unicode="&#xda;" horiz-adv-x="661" 
d="M73 643h50v-392c0 -143 70 -215 204 -215c135 0 205 72 205 215v392h50v-390c0 -170 -91 -261 -255 -261c-163 0 -254 91 -254 261v390zM368 852h57c-32 -46 -64 -92 -97 -138h-38c26 46 53 92 78 138z" />
    <glyph glyph-name="Ucircumflex" unicode="&#xdb;" horiz-adv-x="661" 
d="M73 643h50v-392c0 -143 70 -215 204 -215c135 0 205 72 205 215v392h50v-390c0 -170 -91 -261 -255 -261c-163 0 -254 91 -254 261v390zM350 852c34 -46 69 -92 102 -138h-48c-25 36 -51 72 -77 108c-26 -36 -51 -72 -78 -108h-46l102 138h45z" />
    <glyph glyph-name="Udieresis" unicode="&#xdc;" horiz-adv-x="661" 
d="M73 643h50v-392c0 -143 70 -215 204 -215c135 0 205 72 205 215v392h50v-390c0 -170 -91 -261 -255 -261c-163 0 -254 91 -254 261v390zM226 714v78h54v-78h-54zM375 714v78h54v-78h-54z" />
    <glyph glyph-name="Thorn" unicode="&#xde;" 
d="M77 643h49v-104h143c141 0 219 -73 219 -196c0 -126 -83 -194 -219 -194h-143v-148h-49v642zM263 491h-137v-295h137c135 0 175 68 175 147c0 76 -35 148 -175 148z" />
    <glyph glyph-name="thorn" unicode="&#xfe;" horiz-adv-x="533" 
d="M262 489c104 0 223 -44 223 -246s-119 -246 -223 -246c-48 0 -96 9 -137 24v-204h-50v851h50v-203c41 15 89 24 137 24zM262 43c107 0 173 50 173 200c0 149 -66 200 -173 200c-49 0 -97 -10 -137 -28v-345c40 -17 88 -27 137 -27z" />
    <glyph glyph-name="germandbls" unicode="&#xdf;" horiz-adv-x="568" 
d="M374 355c38 -2 142 -49 142 -168c0 -125 -100 -187 -271 -187v44c135 0 223 47 223 145c0 105 -102 141 -210 141v44c113 0 177 41 177 129c0 83 -54 125 -147 125c-98 0 -161 -51 -161 -185v-443h-50v446c0 132 62 228 211 228c145 0 197 -86 197 -168
c0 -94 -77 -147 -111 -151z" />
    <glyph glyph-name="agrave" unicode="&#xe0;" horiz-adv-x="515" 
d="M248 493c144 0 207 -71 207 -203v-148c0 -132 -135 -149 -196 -149c-63 0 -202 20 -202 151c0 151 187 157 232 157c65 0 100 -7 116 -10c0 102 -50 153 -160 153c-63 0 -115 -15 -138 -22v48c36 12 86 23 141 23zM406 142v104c-13 2 -57 9 -123 9
c-61 0 -177 -14 -177 -111c0 -89 93 -106 153 -106c59 0 147 16 147 104zM167 707h56l78 -138h-38z" />
    <glyph glyph-name="aacute" unicode="&#xe1;" horiz-adv-x="515" 
d="M248 493c144 0 207 -71 207 -203v-148c0 -132 -135 -149 -196 -149c-63 0 -202 20 -202 151c0 151 187 157 232 157c65 0 100 -7 116 -10c0 102 -50 153 -160 153c-63 0 -115 -15 -138 -22v48c36 12 86 23 141 23zM406 142v104c-13 2 -57 9 -123 9
c-61 0 -177 -14 -177 -111c0 -89 93 -106 153 -106c59 0 147 16 147 104zM305 707h56l-96 -138h-38z" />
    <glyph glyph-name="acircumflex" unicode="&#xe2;" horiz-adv-x="515" 
d="M248 493c144 0 207 -71 207 -203v-148c0 -132 -135 -149 -196 -149c-63 0 -202 20 -202 151c0 151 187 157 232 157c65 0 100 -7 116 -10c0 102 -50 153 -160 153c-63 0 -115 -15 -138 -22v48c36 12 86 23 141 23zM406 142v104c-13 2 -57 9 -123 9
c-61 0 -177 -14 -177 -111c0 -89 93 -106 153 -106c59 0 147 16 147 104zM284 707l102 -138h-48c-25 36 -52 72 -77 108l-78 -108h-47c34 46 69 92 102 138h46z" />
    <glyph glyph-name="atilde" unicode="&#xe3;" horiz-adv-x="515" 
d="M248 493c144 0 207 -71 207 -203v-148c0 -132 -135 -149 -196 -149c-63 0 -202 20 -202 151c0 151 187 157 232 157c65 0 100 -7 116 -10c0 102 -50 153 -160 153c-63 0 -115 -15 -138 -22v48c36 12 86 23 141 23zM406 142v104c-13 2 -57 9 -123 9
c-61 0 -177 -14 -177 -111c0 -89 93 -106 153 -106c59 0 147 16 147 104zM134 570l-2 39c22 29 40 44 65 44c47 0 90 -52 135 -52c18 0 40 12 60 40c0 -12 1 -25 2 -37c-23 -33 -41 -46 -64 -46c-48 0 -91 51 -136 51c-16 0 -41 -12 -60 -39z" />
    <glyph glyph-name="adieresis" unicode="&#xe4;" horiz-adv-x="515" 
d="M248 493c144 0 207 -71 207 -203v-148c0 -132 -135 -149 -196 -149c-63 0 -202 20 -202 151c0 151 187 157 232 157c65 0 100 -7 116 -10c0 102 -50 153 -160 153c-63 0 -115 -15 -138 -22v48c36 12 86 23 141 23zM406 142v104c-13 2 -57 9 -123 9
c-61 0 -177 -14 -177 -111c0 -89 93 -106 153 -106c59 0 147 16 147 104zM159 569v78h54v-78h-54zM308 569v78h54v-78h-54z" />
    <glyph glyph-name="aring" unicode="&#xe5;" horiz-adv-x="515" 
d="M248 493c144 0 207 -71 207 -203v-148c0 -132 -135 -149 -196 -149c-63 0 -202 20 -202 151c0 151 187 157 232 157c65 0 100 -7 116 -10c0 102 -50 153 -160 153c-63 0 -115 -15 -138 -22v48c36 12 86 23 141 23zM406 142v104c-13 2 -57 9 -123 9
c-61 0 -177 -14 -177 -111c0 -89 93 -106 153 -106c59 0 147 16 147 104zM258 704c-39 0 -55 -19 -55 -59c0 -41 16 -59 55 -59c37 0 54 18 54 59c0 40 -17 59 -54 59zM258 730c53 0 83 -30 83 -85s-30 -86 -83 -86c-54 0 -83 31 -83 86s29 85 83 85z" />
    <glyph glyph-name="ae" unicode="&#xe6;" horiz-adv-x="883" 
d="M246 493c106 0 162 -40 186 -114c26 62 80 114 183 114c205 0 212 -207 212 -243c0 -26 -1 -35 -1 -36h-373c8 -127 76 -172 195 -172c55 0 110 14 147 33v-51c-44 -19 -103 -31 -165 -31c-76 0 -153 22 -192 106c-48 -90 -115 -106 -181 -106c-60 0 -201 19 -201 151
c0 137 154 156 231 156c59 0 104 -7 117 -9c0 104 -51 153 -161 153c-63 0 -115 -15 -137 -22v48c36 12 85 23 140 23zM404 142v104c-13 2 -55 9 -122 9c-63 0 -177 -14 -177 -111c0 -89 93 -106 153 -106c58 0 146 16 146 104zM612 446c-107 0 -155 -70 -159 -188h323
c0 30 -7 188 -164 188z" />
    <glyph glyph-name="ccedilla" unicode="&#xe7;" horiz-adv-x="462" 
d="M291 446c-110 0 -183 -51 -183 -203c0 -153 73 -203 183 -203c46 0 93 9 136 26v-48c-37 -14 -77 -22 -117 -25l-75 -134h-57l93 133c-100 5 -212 52 -212 251c0 208 124 251 227 251c48 0 96 -10 141 -26v-48c-43 16 -90 26 -136 26z" />
    <glyph glyph-name="egrave" unicode="&#xe8;" 
d="M277 493c207 0 209 -221 209 -253c0 -22 -1 -25 -1 -26h-373c1 -17 4 -31 9 -43c14 -94 80 -130 174 -130c59 0 118 12 158 34v-51c-45 -21 -107 -31 -162 -31c-110 0 -230 47 -230 240c0 77 24 260 216 260zM274 446c-105 0 -157 -70 -162 -188h323
c0 24 -6 188 -161 188zM179 707h56l78 -138h-38z" />
    <glyph glyph-name="eacute" unicode="&#xe9;" 
d="M277 493c207 0 209 -221 209 -253c0 -22 -1 -25 -1 -26h-373c1 -17 4 -31 9 -43c14 -94 80 -130 174 -130c59 0 118 12 158 34v-51c-45 -21 -107 -31 -162 -31c-110 0 -230 47 -230 240c0 77 24 260 216 260zM274 446c-105 0 -157 -70 -162 -188h323
c0 24 -6 188 -161 188zM311 707h56l-96 -138h-38c25 46 52 92 78 138z" />
    <glyph glyph-name="ecircumflex" unicode="&#xea;" 
d="M277 493c207 0 209 -221 209 -253c0 -22 -1 -25 -1 -26h-373c1 -17 4 -31 9 -43c14 -94 80 -130 174 -130c59 0 118 12 158 34v-51c-45 -21 -107 -31 -162 -31c-110 0 -230 47 -230 240c0 77 24 260 216 260zM274 446c-105 0 -157 -70 -162 -188h323
c0 24 -6 188 -161 188zM292 707l102 -138h-48c-25 36 -52 72 -77 108l-78 -108h-47c34 46 69 92 102 138h46z" />
    <glyph glyph-name="edieresis" unicode="&#xeb;" 
d="M277 493c207 0 209 -221 209 -253c0 -22 -1 -25 -1 -26h-373c1 -17 4 -31 9 -43c14 -94 80 -130 174 -130c59 0 118 12 158 34v-51c-45 -21 -107 -31 -162 -31c-110 0 -230 47 -230 240c0 77 24 260 216 260zM274 446c-105 0 -157 -70 -162 -188h323
c0 24 -6 188 -161 188zM169 569v78h54v-78h-54zM318 569v78h54v-78h-54z" />
    <glyph glyph-name="igrave" unicode="&#xec;" horiz-adv-x="220" 
d="M85 0v485h49v-485h-49zM11 707h56c26 -46 53 -92 78 -138h-38c-32 46 -63 92 -96 138z" />
    <glyph glyph-name="iacute" unicode="&#xed;" horiz-adv-x="220" 
d="M85 0v485h49v-485h-49zM150 707h57l-96 -138h-39c26 46 53 92 78 138z" />
    <glyph glyph-name="icircumflex" unicode="&#xee;" horiz-adv-x="220" 
d="M85 0v485h49v-485h-49zM133 707l102 -138h-48c-25 36 -52 72 -77 108l-78 -108h-46c33 46 68 92 101 138h46z" />
    <glyph glyph-name="idieresis" unicode="&#xef;" horiz-adv-x="220" 
d="M85 0v485h49v-485h-49zM9 569v78h54v-78h-54zM158 569v78h54v-78h-54z" />
    <glyph glyph-name="eth" unicode="&#xf0;" horiz-adv-x="563" 
d="M394 582c54 -51 97 -139 97 -288c0 -204 -72 -302 -219 -302c-155 0 -214 108 -214 210c0 122 82 198 214 198c80 0 137 -29 166 -54c-6 111 -44 174 -89 210l-121 -68c-6 12 -12 22 -19 34c34 18 68 38 102 56c-42 23 -86 27 -113 27c-15 0 -28 -1 -42 -3v47
c14 2 28 3 44 3c38 0 103 -5 161 -45c32 17 63 36 94 53c7 -11 12 -22 18 -33c-26 -16 -52 -30 -79 -45zM442 291c-25 25 -84 63 -170 63c-104 0 -164 -55 -164 -152c0 -56 25 -164 164 -164c76 0 168 30 170 253z" />
    <glyph glyph-name="ntilde" unicode="&#xf1;" horiz-adv-x="550" 
d="M282 493c119 0 188 -60 188 -177v-316h-49v316c0 70 -31 128 -144 128c-58 0 -113 -15 -153 -32v-412h-50v442c35 18 114 51 208 51zM134 570c0 13 -1 26 -2 39c22 29 40 44 65 44c48 0 91 -52 135 -52c18 0 40 12 60 40l2 -37c-23 -33 -41 -46 -64 -46
c-47 0 -91 51 -136 51c-15 0 -40 -12 -60 -39z" />
    <glyph glyph-name="ograve" unicode="&#xf2;" horiz-adv-x="559" 
d="M280 494c104 0 227 -45 227 -251s-123 -251 -227 -251s-227 45 -227 251s123 251 227 251zM280 38c107 0 178 52 178 205s-71 205 -178 205c-106 0 -178 -52 -178 -205s72 -205 178 -205zM189 707h56l78 -137h-38z" />
    <glyph glyph-name="oacute" unicode="&#xf3;" horiz-adv-x="559" 
d="M280 494c104 0 227 -45 227 -251s-123 -251 -227 -251s-227 45 -227 251s123 251 227 251zM280 38c107 0 178 52 178 205s-71 205 -178 205c-106 0 -178 -52 -178 -205s72 -205 178 -205zM325 707h56l-96 -137h-38z" />
    <glyph glyph-name="ocircumflex" unicode="&#xf4;" horiz-adv-x="559" 
d="M280 493c103 0 227 -44 227 -251c0 -206 -124 -249 -227 -249c-104 0 -228 43 -228 249c0 207 124 251 228 251zM280 37c107 0 177 53 177 205c0 153 -70 206 -177 206c-106 0 -178 -53 -178 -206c0 -152 72 -205 178 -205zM302 707l102 -138h-48c-25 36 -51 72 -77 108
l-78 -108h-46c33 46 68 92 101 138h46z" />
    <glyph glyph-name="otilde" unicode="&#xf5;" horiz-adv-x="559" 
d="M280 493c103 0 227 -44 227 -251c0 -206 -124 -249 -227 -249c-104 0 -228 43 -228 249c0 207 124 251 228 251zM280 37c107 0 177 53 177 205c0 153 -70 206 -177 206c-106 0 -178 -53 -178 -206c0 -152 72 -205 178 -205zM149 570c0 13 -1 26 -1 39c21 29 40 44 65 44
c47 0 90 -52 135 -52c17 0 39 12 59 40l2 -37c-23 -33 -41 -46 -64 -46c-47 0 -90 51 -136 51c-15 0 -40 -12 -60 -39z" />
    <glyph glyph-name="odieresis" unicode="&#xf6;" horiz-adv-x="559" 
d="M280 494c104 0 227 -45 227 -251s-123 -251 -227 -251s-227 45 -227 251s123 251 227 251zM280 38c107 0 178 52 178 205s-71 205 -178 205c-106 0 -178 -52 -178 -205s72 -205 178 -205zM178 570v78h55v-78h-55zM327 570v78h54v-78h-54z" />
    <glyph glyph-name="oslash" unicode="&#xf8;" horiz-adv-x="565" 
d="M453 485h54l-51 -62c32 -37 53 -94 53 -179c0 -207 -123 -252 -227 -252c-49 0 -102 10 -144 41l-27 -33h-54l51 63c-32 38 -53 95 -53 181c0 205 123 250 227 250c49 0 101 -10 144 -42zM104 244c0 -66 14 -112 37 -143l255 315c-31 23 -71 32 -114 32
c-107 0 -178 -52 -178 -204zM460 244c0 64 -14 109 -37 141l-255 -316c30 -22 70 -31 114 -31c107 0 178 52 178 206z" />
    <glyph glyph-name="ugrave" unicode="&#xf9;" horiz-adv-x="558" 
d="M428 198v287h50v-284c0 -134 -74 -208 -202 -208c-129 0 -202 74 -202 208v284h50v-287c0 -107 50 -160 152 -160c100 0 152 53 152 160zM182 707h56l78 -138h-38z" />
    <glyph glyph-name="uacute" unicode="&#xfa;" horiz-adv-x="558" 
d="M428 198v287h50v-284c0 -134 -74 -208 -202 -208c-129 0 -202 74 -202 208v284h50v-287c0 -107 50 -160 152 -160c100 0 152 53 152 160zM310 707h56l-96 -138h-38c25 46 52 92 78 138z" />
    <glyph glyph-name="ucircumflex" unicode="&#xfb;" horiz-adv-x="558" 
d="M428 198v287h50v-284c0 -134 -74 -208 -202 -208c-129 0 -202 74 -202 208v284h50v-287c0 -107 50 -160 152 -160c100 0 152 53 152 160zM299 707c33 -46 68 -92 102 -138h-48c-26 36 -52 72 -77 108l-78 -108h-47l102 138h46z" />
    <glyph glyph-name="udieresis" unicode="&#xfc;" horiz-adv-x="558" 
d="M428 198v287h50v-284c0 -134 -74 -208 -202 -208c-129 0 -202 74 -202 208v284h50v-287c0 -107 50 -160 152 -160c100 0 152 53 152 160zM175 569v78h54v-78h-54zM323 569v78h55v-78h-55z" />
    <glyph glyph-name="ydieresis" unicode="&#xff;" horiz-adv-x="482" 
d="M246 65l155 420h53l-203 -543c-40 -107 -98 -133 -148 -133c-18 0 -36 5 -46 9v46c10 -5 29 -9 41 -9c76 0 95 86 124 145l-189 485h54c52 -140 106 -280 159 -420zM144 569v78h55v-78h-55zM293 569v78h54v-78h-54z" />
    <glyph glyph-name="ellipsis" unicode="&#x2026;" horiz-adv-x="673" 
d="M98 0v79h55v-79h-55zM524 0v79h54v-79h-54zM311 0v79h54v-79h-54z" />
    <glyph glyph-name="quotesinglbase" unicode="&#x201a;" horiz-adv-x="255" 
d="M130 82h55l-71 -184h-49z" />
    <glyph glyph-name="quotedblbase" unicode="&#x201e;" horiz-adv-x="385" 
d="M130 82h55l-71 -184h-49zM261 82h56l-71 -184h-50z" />
    <glyph glyph-name="periodcentered" unicode="&#xb7;" horiz-adv-x="262" 
d="M158 314v-79h-54v79h54z" />
    <glyph glyph-name="quoteleft" unicode="&#x2018;" horiz-adv-x="228" 
d="M104 653l65 -185h-49l-72 185h56z" />
    <glyph glyph-name="quoteright" unicode="&#x2019;" horiz-adv-x="227" 
d="M113 653h56l-71 -185h-50z" />
    <glyph glyph-name="quotedblleft" unicode="&#x201c;" horiz-adv-x="357" 
d="M300 468h-49l-72 184h56zM169 468h-50c-24 61 -48 123 -71 184h56z" />
    <glyph glyph-name="quotedblright" unicode="&#x201d;" horiz-adv-x="353" 
d="M113 653h56l-71 -185h-50zM245 653h56l-72 -185h-49z" />
    <glyph glyph-name="dagger" unicode="&#x2020;" horiz-adv-x="427" 
d="M354 523v-33h-124v-391h-33v391h-124v33h124v139h33v-139h124z" />
    <glyph glyph-name="daggerdbl" unicode="&#x2021;" horiz-adv-x="449" 
d="M244 441v-218h146v-41h-146v-147h-42v147h-147v41h147v218h-147v41h147v146h42v-146h146v-41h-146z" />
    <glyph glyph-name="asciicircum" unicode="^" horiz-adv-x="494" 
d="M237 633l-92 -181h-41c38 73 75 147 113 221h38l114 -221h-42z" />
    <glyph glyph-name="underscore" unicode="_" horiz-adv-x="502" 
d="M0 -24h501v-30h-501v30z" />
    <glyph glyph-name="at" unicode="@" horiz-adv-x="913" 
d="M506 602c158 0 336 -109 336 -332c0 -132 -65 -236 -159 -236c-63 0 -94 38 -103 75c-17 -43 -70 -75 -144 -75c-73 0 -140 33 -140 107c0 71 61 135 203 135c31 0 60 -3 88 -8c0 11 2 22 2 33c0 49 -15 87 -109 87c-44 0 -84 -8 -112 -18l5 39c31 10 70 18 111 18
c98 0 145 -42 145 -128c0 -49 -17 -114 -17 -163c0 -40 12 -74 65 -74c75 0 139 79 139 205c0 198 -150 309 -310 309c-204 0 -402 -175 -402 -404c0 -206 164 -302 316 -302c66 0 137 17 191 46l-7 -31c-57 -28 -132 -40 -189 -40c-172 0 -338 117 -338 329
c0 247 222 428 429 428zM438 71c67 0 116 23 130 75c7 28 10 58 14 86c-25 5 -54 7 -79 7c-92 0 -167 -26 -167 -96c0 -58 59 -72 102 -72z" />
    <glyph glyph-name="section" unicode="&#xa7;" horiz-adv-x="524" 
d="M292 664c56 0 104 -12 142 -27v-49c-35 15 -82 29 -138 29c-65 0 -136 -19 -136 -79c0 -34 26 -56 135 -84c86 -22 175 -51 175 -146c0 -50 -39 -88 -98 -101c25 -18 43 -43 43 -83c0 -70 -61 -124 -189 -124c-69 0 -124 13 -164 31v50c35 -18 88 -34 161 -34
c79 0 141 38 141 84c0 40 -28 66 -134 93c-91 23 -170 50 -170 133c0 60 44 94 101 105c-29 16 -49 40 -49 81c0 63 55 121 180 121zM421 308c0 40 -24 68 -123 94c-34 9 -68 18 -98 29c-53 -5 -91 -30 -91 -74c0 -35 28 -57 120 -81c38 -10 78 -20 111 -37
c52 9 81 34 81 69z" />
    <glyph glyph-name="hyphen" unicode="-" horiz-adv-x="463" 
d="M72 260v48h315v-48h-315z" />
    <glyph glyph-name="endash" unicode="&#x2013;" horiz-adv-x="591" 
d="M65 256v43h456v-43h-456z" />
    <glyph glyph-name="emdash" unicode="&#x2014;" horiz-adv-x="905" 
d="M72 256v46h756v-46h-756z" />
    <glyph glyph-name="asciitilde" unicode="~" horiz-adv-x="495" 
d="M412 311c1 -14 2 -27 2 -40c-24 -38 -51 -53 -79 -53c-61 0 -110 64 -170 64c-31 0 -59 -16 -82 -50l-2 40c23 35 52 52 82 52c62 0 112 -64 172 -64c27 0 53 14 77 51z" />
    <glyph glyph-name="guilsinglleft" unicode="&#x2039;" horiz-adv-x="334" 
d="M281 447l-184 -192l184 -191h-67l-178 191l178 192h67z" />
    <glyph glyph-name="guilsinglright" unicode="&#x203a;" horiz-adv-x="344" 
d="M57 447h66l178 -192l-178 -191h-66l183 191z" />
    <glyph glyph-name="guillemotleft" unicode="&#xab;" horiz-adv-x="538" 
d="M281 447l-184 -192l184 -191h-67l-178 191l178 192h67zM476 447l-183 -192l183 -191h-66l-178 191l178 192h66z" />
    <glyph glyph-name="guillemotright" unicode="&#xbb;" 
d="M255 63c62 64 122 128 183 192c-61 63 -121 128 -183 191h67c59 -63 118 -128 178 -191l-178 -192h-67zM60 63l182 192c-61 63 -121 128 -182 191h66c60 -63 118 -128 178 -191l-178 -192h-66z" />
    <glyph glyph-name="bullet" unicode="&#x2022;" horiz-adv-x="380" 
d="M290 333c0 -54 -44 -98 -98 -98s-98 44 -98 98c0 55 44 98 98 98s98 -43 98 -98z" />
    <glyph glyph-name="paragraph" unicode="&#xb6;" horiz-adv-x="424" 
d="M265 659h78v-644h-46v256h-32c-143 0 -221 67 -221 195c0 127 78 193 221 193z" />
    <glyph glyph-name="degree" unicode="&#xb0;" horiz-adv-x="371" 
d="M184 666c68 0 111 -43 111 -112c0 -70 -43 -112 -111 -112c-69 0 -111 42 -111 112c0 69 42 112 111 112zM184 467c54 0 85 31 85 87c0 55 -31 86 -85 86c-55 0 -86 -31 -86 -86c0 -56 31 -87 86 -87z" />
    <glyph glyph-name="trademark" unicode="&#x2122;" horiz-adv-x="723" 
d="M503 430l-122 171v-280h-25v322h27l120 -171c39 57 79 114 119 171h28v-322h-26v280zM188 321h-25v297h-121v25h266v-25h-120v-297z" />
    <glyph glyph-name="copyright" unicode="&#xa9;" horiz-adv-x="757" 
d="M238 321c0 -125 61 -169 152 -169c37 0 75 7 110 21v-28c-36 -14 -75 -20 -114 -20c-105 0 -177 55 -177 196s72 197 177 197c39 0 77 -8 114 -21v-28c-36 13 -73 21 -111 21c-90 0 -151 -44 -151 -169zM378 651c182 0 330 -148 330 -330s-148 -329 -330 -329
s-331 147 -331 329s149 330 331 330zM378 16c168 0 305 137 305 305s-137 306 -305 306s-306 -138 -306 -306s138 -305 306 -305z" />
    <glyph glyph-name="registered" unicode="&#xae;" horiz-adv-x="757" 
d="M378 651c182 0 330 -148 330 -330s-148 -329 -330 -329s-331 147 -331 329s149 330 331 330zM378 16c168 0 305 137 305 305s-137 306 -305 306s-306 -138 -306 -306s138 -305 306 -305zM527 403c0 -81 -63 -107 -100 -110l113 -163h-34l-109 159h-110v-159h-29v382h140
c80 0 129 -37 129 -109zM287 485v-168h109c79 0 101 38 101 84c0 45 -22 84 -101 84h-109z" />
    <glyph glyph-name="fraction" unicode="&#x2044;" horiz-adv-x="322" 
d="M355 662h33l-428 -683h-33z" />
    <glyph glyph-name="ordfeminine" unicode="&#xaa;" horiz-adv-x="368" 
d="M173 670c81 0 116 -39 116 -112v-84c0 -72 -75 -82 -110 -82c-36 0 -113 11 -113 85c0 75 86 86 126 86h20c23 0 43 -5 49 -5c0 57 -28 85 -89 85c-35 0 -64 -8 -77 -12v27c20 7 47 12 78 12zM261 475v58c-6 0 -24 5 -51 5c-22 0 -116 2 -116 -61c0 -51 51 -60 85 -60
c33 0 82 9 82 58z" />
    <glyph glyph-name="ordmasculine" unicode="&#xba;" horiz-adv-x="398" 
d="M199 672c57 0 126 -25 126 -141c0 -115 -69 -139 -126 -139c-58 0 -127 24 -127 139c0 116 69 141 127 141zM199 418c59 0 98 29 98 113c0 86 -39 115 -98 115c-60 0 -100 -29 -100 -115c0 -84 40 -113 100 -113z" />
    </font>
</defs>
</svg>
