<?xml version="1.0" standalone="no"?>
<!DOCTYPE svg PUBLIC "-//W3C//DTD SVG 1.1//EN" "http://www.w3.org/Graphics/SVG/1.1/DTD/svg11.dtd" >
<svg>
<metadata>
Created by FontForge 20120731 at Sun Apr  6 13:19:16 2014
 By World Wide Web Server
Copyright   c   1993 - Roger White - All Rights Reserved - see .txt file for terms for distribution and use.
</metadata>
<defs>
<font id="WrexhamScript" horiz-adv-x="521" >
  <font-face 
    font-family="Wrexham Script"
    font-weight="400"
    font-stretch="normal"
    units-per-em="1000"
    panose-1="3 0 5 0 0 0 0 0 0 0"
    ascent="800"
    descent="-200"
    x-height="414"
    cap-height="696"
    bbox="-128 -252 1075 954"
    underline-thickness="50"
    underline-position="-50"
    unicode-range="U+0020-2122"
  />
<missing-glyph horiz-adv-x="502" 
d="M-1 0h500v500h-500v-500zM9 10v480h480v-480h-480z" />
    <glyph glyph-name=".notdef" horiz-adv-x="502" 
d="M-1 0h500v500h-500v-500zM9 10v480h480v-480h-480z" />
    <glyph glyph-name="space" unicode=" " horiz-adv-x="250" 
 />
    <glyph glyph-name="space" unicode="&#xa0;" horiz-adv-x="250" 
 />
    <glyph glyph-name="exclam" unicode="!" horiz-adv-x="323" 
d="M152 188q6 1 16 7l2 1l3 3l-2 16l-2 15q0 25 14 58q16 35 50 87q42 61 63 116q21 53 21 109q0 33 -8 65q-8 29 -18 29q-9 0 -59 -21q-49 -22 -49 -30l3 -16q6 -30 6 -60q0 -36 -8 -71q-6 -28 -28 -83q-33 -82 -33 -127q0 -54 29 -98zM52 78q-12 -30 -24 -46l-5 -10
q0 -6 28 -19q30 -14 58 -14q24 0 37 9q16 8 26 28l1 3l10 20q8 16 12 28l7 22l-3 5l-8 -2q-19 -8 -37 -8q-38 0 -69 31q-7 9 -13 9l-1 -1q0 -1 -1 -2t-3 -9q-5 -18 -15 -44z" />
    <glyph glyph-name="quotedbl" unicode="&#x22;" horiz-adv-x="440" 
d="M136 653q10 -37 10 -80q0 -40 -7 -69q-5 -20 -10 -35q-7 -22 -12 -37l31 5q37 53 55 94q16 41 21 66l3 33q1 6 1 10v30v12zM301 663q10 -37 10 -80q0 -39 -7 -68q-5 -22 -22 -73l31 5q29 44 45 74q11 22 14 30q5 13 9 28q3 10 4 14q3 11 4 14q2 14 2 21l2 64z" />
    <glyph glyph-name="numbersign" unicode="#" horiz-adv-x="668" 
d="M42 434h142l-35 -171h-107v-70h92l-40 -193h70l40 193h197l-42 -193h71l41 193h155v70h-142l36 171h106v70h-93l42 194h-70l-41 -194h-196l42 194h-70l-42 -194h-156v-70zM450 434l-35 -168h-196l35 168h196z" />
    <glyph glyph-name="dollar" unicode="$" 
d="M343 675q-73 0 -120 -29q-47 -28 -70 -69q-22 -40 -22 -84q0 -45 24 -89q24 -46 84 -109l-73 -267q-37 10 -53 34q-17 23 -17 69l1 12l2 22v12q0 20 -17 20q-6 0 -11 -5q-4 -4 -12 -22q-37 -74 -37 -88l1 -2q0 -1 1 -2q3 -6 12 -16l25 -26q39 -33 95 -44l-26 -96h38
l26 93q33 0 68 13q24 10 35 15q44 23 73 55q30 33 43 69t13 69q0 51 -25 94q-31 52 -89 113l61 226q31 -6 44 -22t13 -48l-2 -28l-3 -23q0 -15 8 -18q7 -4 19 -4l36 61q12 23 12 39q0 22 -33 41q-22 13 -38 19q-19 8 -48 12l7 27h-39zM283 456q-44 50 -44 100q0 30 25 61
q27 30 72 30zM268 255q52 -58 52 -110q0 -30 -14 -56q-14 -27 -42 -43q-30 -17 -59 -20z" />
    <glyph glyph-name="percent" unicode="%" horiz-adv-x="761" 
d="M44 -244h83l573 912q3 5 3 11q0 18 -16 18q-13 0 -100 -36l-92 -39q-85 -30 -148 -30q-19 0 -57 5q0 102 -38 102q-13 0 -24 -20t-11 -45q0 -19 9 -34q7 -14 25 -27q-7 -54 -26 -87q-17 -31 -38 -48q-20 -14 -32 -14q-19 0 -29 19q-11 20 -11 48q0 29 14 76q8 25 18 43
q14 26 23 39q18 27 18 36q0 14 -13 14q-17 0 -42 -16t-41 -37q-14 -16 -25 -35q-11 -20 -17 -38q-17 -46 -17 -78q0 -46 29 -78t72 -32q37 0 84 32t66 144q28 -4 41 -4q7 -1 22 -1q40 0 106 18q66 17 132 45zM725 -32q0 102 -36 102q-15 0 -24 -19q-10 -19 -10 -48
q0 -23 8 -36t25 -23q-10 -54 -28 -88q-19 -35 -39 -48q-20 -14 -32 -14q-15 0 -26 17t-11 44q0 12 3 32q2 11 7 32l1 6q10 45 47 102q15 21 15 31q0 12 -14 12q-10 0 -29 -10q-21 -11 -34 -22q-23 -17 -39 -47q-6 -11 -16 -33q-7 -17 -12 -30q-10 -30 -10 -65q0 -45 29 -77
q28 -31 71 -31q31 0 62 20q32 21 53 59q23 41 33 97q12 0 17 5q3 4 3 27z" />
    <glyph glyph-name="ampersand" unicode="&#x26;" horiz-adv-x="677" 
d="M292 394q-35 -16 -77 -40q-28 -16 -41 -24q-57 -38 -101 -90q-45 -52 -45 -120q0 -57 37 -94t95 -37q50 0 96 25q49 27 111 83q34 -56 69 -82t76 -26t75 22q12 7 34 25q16 13 25 25q23 29 23 34q0 1 -1 3q0 1 -1 2q-2 4 -5 7q-8 8 -14 8q-2 -1 -4 -3q-7 -4 -10 -7
q-27 -34 -62 -34q-21 0 -38 14q-16 14 -33 45q-17 33 -33 83q-2 7 -11 34q-9 26 -11 34q-2 3 -9 40q-13 48 -19 103q-7 48 -7 94q0 40 8 70t19 44q12 15 30 15q26 0 36 -21q1 -2 4 -9q1 -2 4 -9q4 -11 4 -23q4 -31 19 -31q9 0 40 25q31 24 31 39q0 28 -33 49q-34 21 -82 21
q-54 0 -101 -33q-47 -35 -72 -91q-26 -60 -26 -129v-41zM293 355l17 -92q3 -22 7 -34q6 -20 9 -29q9 -34 25 -67q-37 -34 -61 -50q-23 -16 -47 -16q-36 0 -62 38t-26 86q0 38 13 64q14 28 45 53q36 26 80 47z" />
    <glyph glyph-name="quotesingle" unicode="'" horiz-adv-x="240" 
d="M136 663q10 -39 10 -80q0 -39 -7 -68q-4 -16 -10 -38q-7 -22 -12 -35l31 5q29 44 45 74q15 32 22 54q5 17 9 32q2 14 2 21l2 64z" />
    <glyph glyph-name="parenleft" unicode="(" horiz-adv-x="479" 
d="M245 -233q-43 76 -60 138q-17 63 -17 141q0 115 39 254q22 76 55 143q34 69 65 110q28 40 65 80l72 74h-54q-67 -42 -97 -66q-17 -12 -37 -31l-3 -3q-23 -21 -36 -34q-21 -21 -43 -48q-23 -30 -36 -49q-32 -49 -56 -106q-23 -54 -36 -114q-13 -58 -13 -121q0 -81 21 -146
q21 -64 53 -119q29 -51 68 -103h50z" />
    <glyph glyph-name="parenright" unicode=")" horiz-adv-x="479" 
d="M80 -233l85 57q33 24 63 51q51 48 92 104t66 111q26 56 39 120q13 61 13 128q0 21 -2 51q-1 23 -6 45q-11 52 -25 91q-17 43 -45 89q-29 47 -65 93h-49q28 -49 44 -90q17 -43 24 -87q7 -41 7 -104q0 -59 -9 -121q-9 -65 -28 -126q-19 -66 -42 -117q-29 -62 -58 -111
q-26 -41 -62 -84q-29 -35 -97 -100h55z" />
    <glyph glyph-name="asterisk" unicode="*" horiz-adv-x="479" 
d="M99 607q32 -18 66 -49q33 -33 69 -74l-53 3q-24 0 -48 -3q-25 -3 -39 -6q-13 -4 -35 -12q-13 -5 -39 -19l68 -81l60 42l45 25l50 20l-18 -56l-10 -34l-5 -30l-2 -36q0 -19 1 -23q0 -9 4 -32l99 36q-22 79 -25 97q-7 29 -8 40q-2 18 -2 41q59 -50 100 -69q42 -20 94 -26
l-6 104q-91 0 -178 24q22 13 40 26q6 4 14 10q12 10 17 13q26 21 46 48q16 22 31 56l-102 27q-20 -76 -74 -166q-19 81 -41 120q-24 43 -61 73z" />
    <glyph glyph-name="plus" unicode="+" horiz-adv-x="664" 
d="M53 291h229l-48 -231h77l48 231l229 1l16 78h-229l49 231h-77l-49 -231h-229z" />
    <glyph glyph-name="comma" unicode="," horiz-adv-x="240" 
d="M32 -168q93 34 143 84q49 49 49 111q0 36 -18 63t-61 52q-37 -51 -63 -75q-9 -8 -11 -11l-2 -2l-3 -6q0 -6 17 -12q49 -19 49 -62q0 -30 -24 -54q-22 -22 -86 -58z" />
    <glyph glyph-name="hyphen" unicode="-" horiz-adv-x="327" 
d="M39 149l2 -8q0 -1 1 -1l1 -1q1 -1 6 -1l12 5q17 11 39 11l53 -2h55q25 0 33 4q9 3 17 14q6 8 10 17q6 14 10 22l23 53q0 9 -11 9h-3l-2 -1q-4 -2 -6 -4q-13 -10 -30 -12l-63 -2l-75 -2q-18 0 -28 -8q-10 -10 -17 -30z" />
    <glyph glyph-name="period" unicode="." horiz-adv-x="198" 
d="M64 135l-22 -64q-12 -27 -27 -51q26 -18 44 -24q15 -7 41 -7q36 0 54 23t39 90q-37 -8 -48 -8q-19 0 -27 4l-19 10z" />
    <glyph glyph-name="slash" unicode="/" horiz-adv-x="396" 
d="M38 -221h113l218 919h-112z" />
    <glyph glyph-name="zero" unicode="0" 
d="M487 456l9 -1l8 -1q16 0 16 24l-2 10l-9 4l-15 8l4 45l1 44q0 106 -44 106q-21 0 -39 -25q-18 -26 -27 -58q-10 -31 -10 -56q0 -36 19 -58q21 -24 54 -34l-21 -91l-31 -103q-21 -60 -45 -105q-24 -46 -54 -75q-6 -6 -14 -11q-3 -2 -8 -4q-5 -3 -8 -5q-19 -8 -30 -8
q-32 0 -49 32q-17 33 -17 85q0 47 11 111q10 60 36 134q24 72 56 129q35 61 73 99q13 12 13 25q0 17 -8 17q-14 0 -34 -10l-50 -28q-32 -23 -50 -40q-20 -17 -46 -47q-24 -29 -42 -55t-34 -60q-32 -68 -50 -134q-18 -69 -18 -136q0 -57 18 -102q16 -44 50 -69q33 -24 77 -24
q70 0 126 50q54 48 92 124q34 72 58 152q19 69 34 141z" />
    <glyph glyph-name="one" unicode="1" horiz-adv-x="396" 
d="M103 476q14 24 38 53q29 35 72 69l-58 -207l-8 -28q-7 -26 -12 -41q-15 -49 -25 -85l-8 -25q-15 -49 -30 -88q-10 -30 -30 -82l-4 -11l-8 -31q0 -12 25 -12q40 0 74 6q33 4 44 15q8 8 40 111q26 84 59 213l53 205l32 130l1 12q0 9 -4 12t-20 3q-37 0 -57 -6
q-18 -7 -46 -27q-42 -32 -83 -71q-38 -38 -54 -59t-26 -39l-8 -19q0 -7 9 -12q8 -6 17 -6q3 2 8 7q4 4 9 13z" />
    <glyph glyph-name="two" unicode="2" horiz-adv-x="522" 
d="M189 247q-81 -73 -115 -116q-37 -46 -48 -75q-11 -30 -11 -58q0 -9 7 -9l16 3q38 9 80 9l90 -6l83 -6q39 0 59 7q23 6 39 25l2 2q9 11 15 21q7 10 17 30q3 6 7 13q2 6 4 9q10 22 14 33l1 2q4 16 4 21q-1 1 -1 2l-1 1q-1 2 -9 6q-7 3 -18 3l-3 -3q-4 -4 -5 -9
q-9 -25 -26 -36t-47 -11l-69 5l-72 5l-49 -3q-11 -1 -24 -5l-23 -6q-4 -1 -11 -3q25 32 57 59q26 24 125 89l91 65q37 26 66 58q34 34 53 74q20 42 20 85q0 47 -22 85q-22 37 -64 61q-40 21 -92 21q-46 0 -91 -18q-45 -19 -81 -51q-36 -30 -57 -70q-22 -40 -22 -81
q0 -23 14 -42q13 -19 32 -19q10 0 37 8q24 9 42 21t18 21t-17 23q-15 13 -24 28q-8 14 -8 30q0 25 14 48q13 22 35 35t49 13q26 0 49 -14q23 -13 33 -39q11 -27 11 -57q0 -74 -31 -124q-29 -48 -88 -109z" />
    <glyph glyph-name="three" unicode="3" 
d="M475 201q0 73 -53 121l-34 26l-16 8l-6 3q-9 4 -22 9l-6 2q174 53 174 174q0 45 -21 78q-23 34 -63 53q-41 20 -96 20q-68 0 -120 -28q-51 -28 -81 -70q-28 -40 -28 -79q0 -18 9 -32q8 -15 19 -15q15 0 49 18t34 31q0 14 -7 29q-8 18 -8 25q0 20 14 39q13 17 35 28
q19 10 45 10q42 0 68 -28q27 -28 27 -72q0 -25 -4 -42q-4 -18 -9 -31q-15 -40 -35 -62q-19 -21 -44 -27q-30 -5 -63 -5q-19 0 -24 -9q-6 -9 -6 -31q0 -20 17 -20l35 2q35 0 58 -32q23 -34 23 -85q0 -66 -32 -125t-94 -59q-36 0 -62 23t-26 57q0 26 13 52q7 14 7 24l-2 11
l-6 8l-8 3q-8 0 -46 -12q-38 -13 -52 -24q-13 -12 -13 -37q0 -67 47 -105t138 -38q80 0 142 28q63 29 98 77q35 50 35 109z" />
    <glyph glyph-name="four" unicode="4" 
d="M164 30q-7 -18 -7 -29q0 -12 23 -12q37 0 74 6q38 4 45 12q16 13 36 88l26 94q105 0 115 10q6 6 16 40q10 33 10 40q0 10 -15 10l-8 -2q-30 -7 -48 -8q-21 -3 -47 -3l13 47l51 192l15 63q23 94 23 103q-1 8 -7 12q-4 3 -21 3l-40 -3l-32 -12l-34 -25q-20 -17 -60 -53
q-17 -16 -54 -53q-57 -62 -91 -104l-2 -2q-29 -36 -35 -45q-4 -5 -22 -33l-6 -9l-43 -71q-17 -33 -19 -42q-4 -8 -4 -35q0 -2 3 -8l7 -3l25 -2l172 -6zM347 601l-35 -127l-31 -101l-35 -107l-176 -2q46 82 100 150q66 82 107 123q48 50 70 64z" />
    <glyph glyph-name="five" unicode="5" 
d="M229 569q74 -8 112 -8q43 0 75 8q27 9 49 37q23 29 36 89q-34 -7 -71 -10q-34 -3 -67 -3l-53 3l-50 7l-17 3q-16 0 -24 -29l-76 -274l-6 -25q0 -9 9 -9l10 1q26 6 51 6q60 0 93 -35q33 -34 33 -96q0 -47 -10 -81q-11 -39 -26 -65q-16 -27 -40 -45q-25 -17 -51 -17
q-22 0 -42 12q-20 10 -31 32q-11 20 -11 46l5 32l6 37q0 12 -12 12q-5 0 -26 -8l-35 -14l-23 -12q-21 -10 -21 -41q0 -29 21 -59q18 -30 62 -53q44 -21 106 -21q74 0 137 33q62 31 97 87q34 53 34 122q0 56 -27 102q-26 45 -72 71q-46 25 -105 25q-32 0 -81 -11z" />
    <glyph glyph-name="six" unicode="6" 
d="M157 123q0 31 14 106q13 71 42 157t79 162q24 36 56 67q27 27 66 49q3 2 9 8q2 2 3 4l-4 7l-21 12q-31 0 -93 -35q-61 -33 -124 -95q-61 -61 -105 -153q-44 -94 -44 -198q0 -66 23 -118q22 -51 64 -79q41 -30 95 -30q67 0 132 38q64 37 102 101q38 62 38 131q0 41 -17 78
q-18 35 -48 58q-31 22 -64 22q-23 0 -48 -13q-16 -9 -27 -15q-10 -6 -18 -12q-2 -2 -8 -7l-9 -9l-5 -5q1 -6 4 -9l7 -5l15 5q11 4 25 4q22 0 38 -24q17 -25 17 -57q0 -33 -15 -95q-15 -63 -43 -105q-28 -43 -67 -43q-30 0 -49 28q-20 28 -20 70z" />
    <glyph glyph-name="seven" unicode="7" horiz-adv-x="528" 
d="M82 535q-7 -20 -7 -29q0 -12 11 -12q12 0 24 6q11 42 32 59q19 16 60 16l30 -1l41 -4l58 -6l41 -3q26 0 49 4q-4 -7 -9 -17t-9 -17q-6 -12 -13 -23l-1 -2l-29 -42l-56 -73q-87 -107 -132 -178q-47 -74 -69 -142q-18 -49 -18 -67q0 -16 23 -16q36 0 74 6t45 13
q14 12 24 54l27 85l39 104q12 30 27 66q8 18 20 46q8 19 9 21q30 68 66 138q34 63 52 106q19 45 19 56l-3 8q-3 3 -8 4l-11 -4q-34 -14 -73 -14q-26 0 -82 9q-55 9 -89 9h-20q-1 0 -8 -1q-18 -1 -36 -4q-32 -4 -42 -12q-13 -7 -28 -52z" />
    <glyph glyph-name="eight" unicode="8" horiz-adv-x="523" 
d="M472 549q20 46 20 86q0 27 -11 44q-10 16 -32 16q-18 0 -33 -12q-16 -13 -24 -33q-9 -19 -9 -44q0 -46 37 -73q-23 -37 -44 -58q-23 -23 -68 -50q-42 48 -57 76q-14 26 -14 54q0 34 22 65q21 30 59 47q16 6 16 12l-21 17q-57 -10 -100 -38q-43 -27 -65 -69
q-23 -43 -23 -90q0 -76 65 -150q-25 -16 -46 -31q-13 -10 -36 -27q-34 -26 -60 -68q-27 -42 -27 -91q0 -63 48 -104q47 -41 121 -41q49 0 88 19q37 15 74 49q35 32 54 73q20 42 20 87q0 27 -8 54q-5 17 -13 35q-2 3 -8 13q-3 5 -9 13q-7 11 -23 31q-10 13 -30 35l58 44
l31 32q11 13 29 43q9 -3 27 -3q15 0 22 4l6 26q0 7 -6 7h-30zM216 321q30 -29 56 -65q13 -16 19 -29q2 -5 5 -10l9 -21l3 -9q3 -14 4 -18q2 -16 2 -27q0 -35 -16 -60q-17 -26 -45 -41q-29 -16 -66 -16q-57 0 -92 31q-36 32 -36 78q0 43 29 81q28 37 62 63q29 21 66 43z" />
    <glyph glyph-name="nine" unicode="9" 
d="M361 561q0 -38 -13 -107q-13 -71 -42 -157q-27 -81 -79 -160q-49 -76 -123 -117q-6 -4 -7 -6q-4 -4 -5 -6l4 -7l21 -12q31 0 92 34q63 36 123 95q64 63 107 154q44 93 44 198q0 54 -13 92q-12 42 -36 72q-26 29 -58 45t-75 16q-68 0 -132 -37t-102 -100q-38 -62 -38 -131
q0 -39 17 -76q16 -35 47 -59q31 -23 65 -23q16 0 38 8t38 21l29 21l10 11l-3 10q-3 3 -8 4l-15 -4q-17 -5 -25 -5q-20 0 -37 24q-18 24 -18 57q0 36 15 96q13 58 43 104q28 43 67 43q30 0 50 -26q19 -26 19 -72z" />
    <glyph glyph-name="colon" unicode=":" horiz-adv-x="281" 
d="M142 417l-18 -57l-2 -4q-3 -8 -5 -14q-6 -13 -7 -14l-18 -27q32 -19 47 -24q14 -7 39 -7q37 0 58 25q20 27 38 90l-17 -5q-16 -6 -32 -6q-18 0 -26 4q-7 2 -21 11zM67 135l-22 -65q-9 -25 -27 -50q29 -17 47 -24q15 -7 38 -7q37 0 57 26q19 24 37 89q-15 -4 -33 -7l-4 -1
l-3 -1q-6 -1 -9 -1q-20 0 -35 9q-5 3 -20 13q-11 7 -26 19z" />
    <glyph glyph-name="semicolon" unicode=";" horiz-adv-x="323" 
d="M189 416q-14 -46 -22 -64q-12 -25 -30 -49l49 -27q14 -7 37 -7q25 0 42 11q15 10 29 36t24 69q-34 -10 -49 -10q-18 0 -36 8q-17 8 -44 33zM25 -168q64 24 104 53q44 31 66 66q22 34 22 77q0 35 -18 63q-19 26 -60 52l-34 -42l-30 -33q-15 -13 -15 -20t16 -11
q49 -21 49 -62q0 -28 -23 -54q-10 -10 -34 -26t-53 -32z" />
    <glyph glyph-name="less" unicode="&#x3c;" horiz-adv-x="667" 
d="M601 91l-431 176l431 176v83l-535 -224v-70l535 -224v83z" />
    <glyph glyph-name="equal" unicode="=" horiz-adv-x="704" 
d="M90 356h535l14 78h-535zM47 125h535l14 79h-535z" />
    <glyph glyph-name="greater" unicode="&#x3e;" horiz-adv-x="667" 
d="M66 443l431 -176l-431 -175v-83l534 224v69l-534 225v-84z" />
    <glyph glyph-name="question" unicode="?" horiz-adv-x="438" 
d="M166 194l-2 17q0 17 7 27q6 11 20 23l45 31q68 41 112 82q39 36 59 78q19 38 19 86q0 23 -5 45q-4 19 -15 37q-20 36 -56 55q-37 20 -79 20q-52 0 -106 -26q-51 -25 -84 -70t-33 -90q0 -23 7 -38q6 -16 17 -29q10 -13 21 -13q13 0 48 23t35 34t-26 11q-13 2 -21 17
q-9 15 -9 36q0 24 12 45q12 22 33 32q19 10 45 10q42 0 66 -29q24 -28 24 -78q0 -45 -17 -79q-15 -32 -40 -55l-60 -52q-33 -27 -45 -44q-14 -20 -14 -45q0 -27 23 -68zM83 136l-27 -70q-2 -4 -9 -17q-2 -2 -3 -5q-8 -15 -14 -22q13 -10 19 -13q8 -5 26 -13q13 -7 38 -7
q38 0 61 26q21 28 37 90q-34 -9 -46 -9q-23 0 -41 8q-16 8 -41 32z" />
    <glyph glyph-name="at" unicode="@" horiz-adv-x="832" 
d="M496 380q-6 40 -22 56q-17 17 -46 17q-44 0 -103 -50q-58 -49 -99 -131t-41 -166q0 -49 22 -77q21 -29 57 -29q48 0 86 41q12 13 37 47l5 7q23 33 35 54q-1 -5 -2 -9l-6 -27q-3 -18 -3 -29q0 -38 26 -61t69 -23q78 0 143 44t102 120t37 171q0 69 -23 129q-23 57 -69 101
t-108 66t-138 22q-98 0 -181 -33t-145 -93q-63 -63 -95 -143q-34 -81 -34 -179q0 -89 32 -165q31 -75 87 -131t132 -86q75 -31 165 -31q73 0 139 20q62 19 114 55q27 18 52 42q20 19 43 47q40 52 68 122h-29q-26 -71 -70 -119q-44 -50 -99 -82q-54 -31 -110 -45
q-59 -14 -106 -14q-104 0 -190 48q-85 46 -132 133q-47 86 -47 190q0 110 50 211t144 162t222 61q68 0 122 -22q57 -23 96 -59q39 -38 62 -94q22 -54 22 -122q0 -64 -21 -118t-53 -92q-30 -38 -67 -60q-35 -22 -61 -22q-16 0 -27 11q-12 11 -12 27q0 25 14 72l86 296
l-114 -4zM441 419q17 -1 24 -18q9 -16 9 -45q0 -44 -16 -92q-17 -52 -37 -87q-12 -23 -29 -45l-1 -1q-8 -11 -16 -19q-26 -26 -41 -26q-11 0 -19 14t-8 31q0 37 23 111q9 30 25 68q11 25 29 56q32 53 57 53z" />
    <glyph glyph-name="A" unicode="A" horiz-adv-x="677" 
d="M688 164q-71 -83 -122 -83q-29 0 -44 22q-16 20 -16 60q0 55 19 132q14 54 23 81l3 10q17 49 26 72q17 41 33 75q12 24 34 58l12 15l21 28v32q-27 10 -46 14q-30 6 -47 9q-41 7 -107 7q-130 0 -222 -53q-89 -51 -143 -134q-53 -82 -74 -164t-21 -147q0 -62 18 -110
q17 -48 53 -74q35 -26 76 -26q26 0 47 7q25 9 44 23q26 19 52 45q22 22 59 66q0 -31 9 -57q8 -26 23 -46q30 -38 84 -38q49 0 98 30q50 29 108 90v56zM369 196q-25 -37 -49 -61q-23 -23 -43 -34q-19 -10 -40 -10q-34 0 -55 35t-21 89q0 57 19 130q18 75 54 147q16 33 41 66
q21 27 50 53q56 47 124 47q27 0 52 -6q24 -6 45 -18q-145 -160 -177 -438z" />
    <glyph glyph-name="B" unicode="B" horiz-adv-x="760" 
d="M522 345q64 -10 64 -99q0 -29 -5 -67q-6 -34 -18 -75q0 -1 -2 -6q-8 -20 -11 -26q-7 -13 -15 -24q-15 -21 -32 -21q-11 0 -16 9q-7 8 -7 28q-4 47 -24 47q-14 0 -31 -26q-18 -25 -18 -41q0 -15 13 -27t35 -20q24 -8 46 -8q47 0 86 16q41 17 71 46q32 30 48 69
q16 38 16 80q0 120 -130 160q65 17 101 42q37 25 50 55q15 29 15 63q0 53 -35 94q-34 40 -95 63q-59 22 -139 22q-95 0 -166 -25q-72 -25 -120 -66t-71 -86q-24 -45 -24 -85q0 -19 9 -42q9 -22 23 -38q14 -15 26 -15t52 17q38 17 38 26v15q-2 2 -3 4q-2 2 -9 5
q-46 19 -46 62q0 36 22 70q23 35 59 61q39 26 86 42t97 16q49 0 88 -18q39 -20 58 -52q19 -34 19 -78q0 -40 -15 -72q-15 -33 -39 -48q-20 -11 -46 -11zM18 123l-3 -30q0 -51 35 -78t99 -27q52 0 100 17q49 17 86 46q39 30 67 73q35 50 48 110q10 46 14 71q1 10 4 35
q4 24 7 53q6 47 14 82q8 34 20 54q13 21 34 41q-13 22 -26 22q-15 0 -35 -9q-2 -1 -13 -6l-8 -4q-4 -2 -10 -6q-7 -4 -10 -6q-23 -16 -36 -29q-25 -26 -39 -56q-15 -29 -25 -74q-8 -32 -20 -119q-10 -78 -30 -135q-19 -57 -50 -89q-30 -32 -64 -32q-52 0 -52 60l4 32l4 30
q0 27 -18 27q-12 0 -43 -16q-14 -8 -29 -17q-3 -2 -13 -11q-6 -5 -12 -9z" />
    <glyph glyph-name="C" unicode="C" horiz-adv-x="563" 
d="M574 164q-52 -59 -97 -84q-43 -25 -99 -25q-88 0 -147 66q-58 64 -58 167q0 57 20 126t51 122q34 56 71 88q40 35 75 35q31 0 51 -23q18 -24 18 -65q0 -38 -15 -74q-18 -37 -42 -60q-25 -22 -49 -22q-26 0 -43 29q-21 -22 -21 -49q0 -31 25 -50q26 -20 62 -20q49 0 89 30
t66 80q25 49 25 108q0 44 -19 79t-56 55q-36 19 -85 19q-65 0 -127 -34q-64 -34 -120 -96q-58 -65 -88 -145q-33 -82 -33 -171q0 -78 34 -136q35 -61 95 -93q61 -35 138 -35q101 0 163 35q63 35 116 87v56z" />
    <glyph glyph-name="D" unicode="D" horiz-adv-x="760" 
d="M480 563q-56 -6 -107 -51q-21 -19 -36 -38q-16 -25 -27 -51q-10 -26 -10 -28q-4 -10 -7 -28q-4 -16 -6 -34q-3 -16 -9 -57l-12 -78q-1 -9 -7 -27q-3 -8 -7 -18l-3 -6q-13 -23 -33 -40q-34 12 -73 12q-51 0 -88 -23q-37 -22 -37 -58q0 -21 17 -35q17 -15 43 -15
q44 0 106 38q79 -38 163 -38q77 0 152 32q73 31 130 90q56 57 88 131q30 71 30 153q0 67 -23 125q-22 56 -65 96q-43 39 -104 61q-61 21 -135 21q-88 0 -151 -25q-67 -26 -111 -65q-27 -25 -40 -43q-17 -24 -27 -43q-22 -42 -22 -85q0 -35 18 -64q20 -29 45 -29l26 9
q23 7 42 19q17 11 17 19q0 13 -18 22q-41 17 -41 66q0 44 34 85q34 42 85 68q51 27 103 27q48 0 93 -20q42 -19 71 -58q28 -37 45 -89q16 -51 16 -118q0 -70 -19 -146q-19 -77 -60 -133q-40 -55 -100 -55q-17 0 -40 6q-20 5 -65 24q-16 8 -24 11t-15 6q-3 1 -5 2
q54 32 83 64q28 33 44 79t24 118l10 71q2 12 6 24q3 11 9 27q5 15 18 33t28 33z" />
    <glyph glyph-name="E" unicode="E" 
d="M532 164q-45 -55 -99 -84q-56 -29 -110 -29q-44 0 -79 20q-34 20 -54 54q-20 35 -20 76q0 37 17 72q17 34 45 53q29 20 64 20l21 -1l22 -2l18 -2q12 0 19 22q7 21 7 41q0 8 -6 9l-20 1q-56 0 -74 28q-18 27 -18 66q0 40 16 73q15 34 41 57q26 21 52 21q53 0 67 -83
q4 -37 19 -37q8 0 22 16q16 16 27 34q11 19 11 26q0 9 -10 28q-10 20 -42 36q-32 17 -86 17q-48 0 -95 -14q-45 -15 -78 -39q-33 -26 -52 -59q-20 -35 -20 -72q0 -95 104 -133q-49 -10 -88 -26l-9 -5q-18 -9 -25 -14q-3 -2 -8 -6q-14 -11 -20 -16q-62 -56 -62 -137
q0 -53 29 -97q28 -43 83 -66q54 -23 121 -23q53 0 98 12t87 39q4 3 6 4q25 18 37 27q25 20 42 37v56z" />
    <glyph glyph-name="F" unicode="F" horiz-adv-x="604" 
d="M580 705q-8 -14 -48 -14l-73 5l-73 5q-63 0 -116 -32q-54 -31 -88 -77q-37 -50 -52 -92q-19 -45 -19 -78q0 -67 66 -85q25 9 45 29t20 35q0 8 -18 15q-53 26 -53 69q0 49 44 75q44 24 107 24l76 -2l76 -2q39 0 66 11q25 10 41 37q14 26 24 77h-25zM584 407
q-63 -29 -121 -48l4 77q0 17 4 32q1 2 3 11q1 3 3 11q6 20 17 42l-79 -8q-43 -46 -63 -91q-19 -45 -27 -125q-46 -16 -88 -52l-21 -66q57 33 102 42q-9 -64 -26 -113q-19 -46 -44 -68q-26 -23 -56 -23q-32 0 -50 25q-20 26 -20 70l-2 36q-3 9 -16 9q-11 0 -31 -14
q-19 -15 -36 -33t-17 -29q0 -16 17 -41q16 -24 55 -43q38 -18 94 -18q81 0 142 41q59 41 91 106q18 36 28 71q10 31 10 67l84 25q25 10 34 22z" />
    <glyph glyph-name="G" unicode="G" horiz-adv-x="635" 
d="M646 164q-21 -27 -50 -51q-13 -11 -28 -22q-15 -10 -39 -24l14 52l20 66l8 23l7 25q0 3 -3 7l-14 1l-92 -13q-28 -44 -58 -74q-29 -28 -62 -45q-32 -16 -63 -16q-36 0 -65 21q-29 20 -44 60q-16 38 -16 91q0 68 22 135q24 73 59 128q35 57 85 95q48 36 101 36
q29 0 51 -12q23 -12 36 -34t13 -51q0 -30 -9 -60q-10 -30 -27 -54q-16 -26 -36 -40t-39 -14q-14 0 -25 8q-12 8 -12 24q0 17 -15 17t-26 -15q-12 -15 -12 -35q0 -19 14 -39q12 -14 37 -26q24 -11 53 -11q48 0 95 29q45 28 73 76q27 48 27 102q0 51 -24 90t-67 61
q-43 21 -98 21q-72 0 -144 -34q-69 -33 -134 -94q-35 -35 -56 -66q-28 -41 -44 -77q-39 -82 -39 -173q0 -74 25 -130q24 -57 68 -89t98 -32q56 0 114 36t84 77l-36 -119q-80 -40 -125 -79q-51 -44 -51 -97q0 -33 23 -51q22 -19 62 -19q49 0 92 24q42 23 77 70q28 37 43 76
q11 31 15 48q3 12 10 54l40 22l35 21l27 20l25 24v56zM362 -54q-16 -71 -36 -114q-20 -44 -60 -44q-13 0 -22 9t-9 24q0 61 127 125z" />
    <glyph glyph-name="H" unicode="H" horiz-adv-x="885" 
d="M896 164l-45 -49q-13 -12 -20 -17q-8 -7 -20 -11q-21 -12 -45 -12q-35 0 -56 29t-21 75l2 44l18 91q28 7 58 19t44 23q18 12 33 30l-1 29q-2 5 -8 8l-41 -25l-30 -13l-37 -9l24 68l26 61l39 76q9 19 23 42q12 20 24 36q19 25 19 34l-2 2q-1 1 -4 1l-30 -8l-31 -8
q-9 -2 -31 -8q-16 -4 -33 -12q-15 -7 -29 -24q-13 -16 -45 -69l-40 -70q-13 -25 -26 -58q-6 -18 -12 -32q-2 -5 -3 -8q-7 -20 -13 -41l-42 -5l-56 -4q8 55 13 83l2 12q4 28 5 30q10 50 21 82q11 30 24 51q10 14 16 21q5 7 18 20q19 19 19 26q-3 3 -9 7l-5 4q-13 8 -23 13
q-7 -6 -16 -12q-3 -3 -13 -7q-21 -8 -32 -8q-18 0 -58 13q-45 12 -60 12q-33 0 -72 -20q-15 -8 -35 -22q-15 -12 -33 -30q-32 -32 -51 -70q-20 -40 -20 -76q0 -31 17 -59q16 -28 34 -28t37 21t19 37q0 8 -15 18q-33 26 -33 57q0 15 11 39q11 21 32 37q21 15 51 15
q17 0 52 -11q33 -11 51 -11q28 0 83 20l-75 -79q-29 -32 -45 -58q-20 -31 -29 -59q-7 -21 -11 -36q-4 -11 -10 -37q-1 -2 -4 -14q-47 -13 -76 -29q-30 -18 -60 -50q3 -35 7 -42q57 48 116 57q-10 -60 -19 -96t-25 -75q-28 -69 -91 -69q-68 0 -68 101q0 41 -19 41
q-8 0 -28 -13t-38 -34q-17 -20 -17 -35q0 -16 20 -41q19 -23 57 -40q39 -17 89 -17q39 0 81 14q40 13 77 40q30 24 59 64q7 10 16 24q1 1 1 2q10 19 23 54q14 39 26 100l90 7q-10 -67 -10 -106q0 -73 22 -119q23 -47 53 -63q33 -17 61 -17q34 0 65 12q33 13 69 40t74 68v56z
" />
    <glyph glyph-name="I" unicode="I" horiz-adv-x="604" 
d="M285 450q-2 9 -5 11l-11 10q-31 21 -31 54q0 24 13 46q14 23 35 34q21 12 44 12q18 0 46 -11q35 -12 55 -12q36 0 87 20q-61 -57 -97 -102q-17 -22 -31 -46q-12 -23 -25 -55q-22 -56 -38 -159q-9 -58 -21 -105q-13 -46 -40 -84q-27 -36 -70 -36q-30 0 -50 26t-20 69
q0 26 -3 36q-4 10 -18 10q-6 0 -27 -15q-21 -16 -37 -34q-17 -20 -17 -30q0 -19 20 -42q21 -24 56 -41q40 -17 90 -17q41 0 87 15q45 14 92 59q46 43 76 120q8 21 23 82q12 52 22 120l16 98l13 52q4 16 10 29q5 11 12 25q13 24 35 49q17 18 20 24q1 4 6 10q0 9 -12 16
q-14 8 -20 8q-7 0 -17 -7q-23 -17 -50 -17q-20 0 -55 12q-34 12 -58 12q-33 0 -73 -20q-40 -21 -69 -52q-28 -28 -50 -70q-20 -38 -20 -75q0 -33 17 -59q17 -27 35 -27q16 0 35 19q4 4 12 15l2 3q6 9 6 20z" />
    <glyph glyph-name="J" unicode="J" 
d="M532 164q-31 -40 -68 -65q-39 -27 -94 -46l10 39l9 45l13 77l23 142l7 49q14 86 32 144q17 55 48 104q13 19 13 28q0 10 -38 15q-32 -26 -57 -26l-20 2l-23 10l-28 11q-10 3 -26 3q-47 0 -97 -35q-49 -33 -82 -85q-32 -50 -32 -98q0 -25 11 -45q11 -21 23 -30
q11 -10 18 -10q13 0 35 24q22 22 22 32q0 7 -17 21q-33 26 -33 56q0 36 29 63t64 27l25 -3l26 -9l22 -8l24 -3q34 0 80 25l-53 -72q-43 -52 -63 -89q-12 -20 -20 -40q-11 -26 -17 -46q-14 -49 -27 -112l-46 -258q-89 -31 -150 -73q-59 -42 -59 -107q0 -32 20 -52t50 -20
q44 0 90 25q46 23 86 67q29 33 52 70q17 30 40 94l85 37q30 15 51 30t42 36v56zM214 -43q-25 -98 -63 -133q-37 -34 -63 -34q-15 0 -24 11q-10 10 -10 24q0 35 41 70q39 33 119 62z" />
    <glyph glyph-name="K" unicode="K" horiz-adv-x="844" 
d="M855 164q-79 -94 -130 -94q-24 0 -35 14q-9 15 -9 41l2 36l2 35q0 54 -21 88q-21 35 -72 60q39 17 59 56q22 43 34 93q6 26 12 41q3 9 10 24l4 8q16 31 42 31q20 0 35 -24q8 -12 13 -12q10 0 28 36q18 35 18 46q0 19 -20 36t-43 17q-30 0 -58 -22q-29 -23 -49 -64
q-19 -40 -36 -108q-16 -66 -37 -103q-21 -35 -57 -35l-11 1q-18 0 -31 -5q-10 -6 -10 -24q0 -20 23 -20l18 1q10 -12 15 -26q1 -1 3 -9q0 -2 1 -4v-27l-6 -69l-7 -62q0 -56 33 -94t83 -38q30 0 60 11q28 11 62 39q24 19 75 70v56zM496 445q8 57 17 86q7 33 24 62q8 15 18 30
q1 1 5 7q10 15 18 25q7 9 13 18q2 4 3 7q0 6 -14 11l-22 5q-6 0 -14 -8q-22 -24 -52 -24q-19 0 -57 15q-46 18 -76 18q-51 0 -97 -31q-47 -32 -77 -81t-30 -102q0 -27 17 -58q17 -30 34 -30q16 0 38 22t22 31q0 6 -12 16q-37 31 -37 72q0 35 23 61q22 25 55 25q20 0 57 -14
q45 -16 69 -16q37 0 91 21q-46 -46 -84 -88q-29 -34 -48 -67q-18 -32 -31 -79q-6 -20 -13 -54q-5 -27 -12 -65q-11 -81 -39 -157q-29 -77 -94 -77q-66 0 -66 104q0 37 -23 37q-9 0 -28 -13q-18 -13 -36 -32q-17 -18 -17 -32q0 -39 52 -70q52 -32 115 -32q102 0 175 73
q48 48 76 121q27 70 47 202z" />
    <glyph glyph-name="L" unicode="L" horiz-adv-x="635" 
d="M646 164q-38 -43 -75 -62q-38 -20 -78 -20q-43 0 -115 28t-118 28h-24q46 49 69 94q23 47 35 99q13 65 19 125t16 108q8 38 30 66q23 29 63 29q34 0 53 -24q18 -24 18 -66q0 -35 -10 -65q-11 -32 -30 -50q-19 -19 -43 -19q-19 0 -33 15q-6 -19 -6 -35q0 -29 18 -46
q17 -17 48 -17q39 0 75 27q34 25 54 71q21 44 21 94q0 31 -11 62q-10 25 -31 47q-22 21 -49 32q-31 11 -63 11q-38 0 -84 -20q-46 -21 -87 -66q-42 -47 -70 -114q-16 -40 -24 -80q-9 -40 -9 -87q0 -18 -2 -48q-1 -9 -2 -25q-1 -8 -2 -14q-4 -32 -11 -50l-1 -3
q-8 -19 -13 -27q-10 -18 -17 -27q-65 -10 -102 -38t-37 -66q0 -12 6 -21q5 -11 16 -16q12 -5 21 -5q27 0 55 16q29 17 64 56q36 -11 80 -30q24 -12 31 -15t28 -10l46 -12q17 -4 44 -4q41 0 83 14q40 14 77 39q38 26 77 65v56z" />
    <glyph glyph-name="M" unicode="M" horiz-adv-x="1000" 
d="M801 573q-33 -61 -55 -135q-14 -48 -20 -77q-10 -43 -14 -69q-12 -70 -12 -108q0 -74 26 -134t86 -60q28 0 62 14q34 15 68 40q17 14 36 30q13 12 33 34v56q-34 -43 -63 -63t-53 -20q-29 0 -44 26q-16 25 -16 72q0 63 16 147q16 88 39 175q25 91 49 144q16 32 16 46
q0 7 -13 7l-46 -4l-44 -6q-7 -1 -33 -24q-29 -27 -52 -57q-18 -24 -32 -45q-13 -21 -36 -62q-41 -73 -96 -217l-42 -103q-15 -31 -33 -58q27 107 27 276l-1 131q0 73 9 137l3 22l-2 9l-8 2l-57 -3q-28 -4 -32 -10q-36 -47 -56 -83l-3 -6q-13 -24 -16 -31q-8 -20 -15 -40
q-3 -10 -7 -23q-5 -13 -8 -23q-5 -16 -16 -57l-14 -59l-3 -13q-8 -30 -14 -49q-1 -3 -8 -25q-8 -27 -9 -30q-4 -14 -14 -40l-2 -5q-8 -23 -18 -44q-18 -34 -36 -59q-33 -44 -62 -44q-39 0 -44 52l-8 40q-4 9 -15 9q-1 -1 -2 -1q-2 0 -3 -1q-3 -2 -13 -8q-4 -3 -8 -5
q-20 -15 -38 -36q-16 -19 -16 -34q0 -20 14 -40q13 -19 37 -30t46 -11q20 0 39 6t38 19q40 27 70 70q18 25 34 59q6 10 16 36q4 9 13 33l3 9l30 106l12 48l30 108q15 46 29 77q6 12 18 34q8 13 17 24q-19 -54 -33 -118q-13 -61 -13 -146l-2 -89l-3 -92l-8 -80l-14 -79
l-2 -15q0 -7 4 -8l14 -2q37 0 55 6q19 5 33 19q21 21 40 48t33 55q15 30 36 75q16 38 42 101q32 81 57 135l11 22l14 28q14 27 21 39q20 37 39 59q14 18 21 26q12 14 19 21z" />
    <glyph glyph-name="N" unicode="N" horiz-adv-x="885" 
d="M588 338l-13 74l-13 88l-12 93l-3 79q0 16 -5 21q-6 3 -30 3l-51 -7q-21 -3 -25 -6q-7 -7 -11 -19l-16 -46q-16 -45 -66 -232l-15 -59l-34 -116q-19 -61 -48 -111t-61 -50q-18 0 -31 16q-14 17 -18 52q-5 35 -20 35q-8 0 -28 -15q-9 -6 -17 -13l-5 -4q-3 -3 -12 -13
q-1 -2 -3 -4q-18 -21 -18 -31q0 -25 29 -54q29 -30 75 -30q61 0 104 46q43 48 65 103q1 4 2 4q13 36 21 60q14 41 24 79l58 212q8 30 14 39q0 -16 3 -43q4 -35 7 -54l1 -5q2 -23 3 -32q3 -22 6 -35l20 -111l17 -84l7 -49l5 -60l3 -57q1 -9 5 -11l16 -2l53 6l18 4q6 1 10 5
l25 46q16 34 37 91q21 56 38 134l15 68l23 105l21 73q12 32 33 53t52 24q24 4 35 15q10 10 10 37q0 46 -40 46q-65 0 -98 -75q-14 -34 -29 -86q-15 -51 -23 -96q-37 -195 -80 -304l-5 45l-9 60z" />
    <glyph glyph-name="O" unicode="O" horiz-adv-x="635" 
d="M386 696q-57 0 -93 -13q-23 -7 -66 -50t-87 -111q-46 -68 -74 -152q-30 -85 -30 -172q0 -59 21 -107q20 -49 57 -75q36 -27 82 -27q71 0 144 52q75 52 140 138q34 45 59 92q21 40 44 96q39 101 39 194q0 44 -12 72q-10 30 -33 47q-22 16 -53 16q-46 0 -90 -37
q-46 -37 -75 -94q-29 -58 -29 -112q0 -40 20 -66q20 -27 49 -27q24 0 46 21q22 19 22 42q0 7 -3 10t-12 3q-32 0 -32 40q0 26 17 72q17 44 42 75q27 31 56 31q25 0 38 -25t13 -69q0 -66 -24 -143q-26 -81 -68 -151q-44 -75 -99 -131q-56 -58 -115 -58q-34 0 -56 19
q-24 18 -36 53q-13 32 -13 82q0 106 44 215q44 108 117 190l50 52v8z" />
    <glyph glyph-name="P" unicode="P" horiz-adv-x="677" 
d="M535 408q-9 -10 -17 -25q-1 -4 -6 -10q0 -9 16 -19q16 -11 27 -11q17 0 48 20t53 57t22 93q0 43 -15 77q-17 36 -45 58t-70 36q-39 13 -95 13q-78 0 -141 -25q-62 -25 -108 -64q-43 -38 -69 -86q-25 -46 -25 -87q0 -22 9 -43q8 -22 24 -35q16 -14 28 -14q11 0 51 17
q37 18 37 31q0 12 -17 20q-42 17 -42 63q0 45 36 88q33 42 95 71q59 27 120 27q40 0 73 -14q32 -13 48 -42q17 -29 17 -64q0 -66 -54 -132zM545 570l-14 15q-4 4 -7 5t-7 3q-20 0 -58 -21q-44 -25 -69 -59q-24 -32 -41 -85q-16 -51 -27 -143q-18 -148 -59 -203
q-42 -54 -87 -54q-21 0 -35 15q-14 14 -14 43l5 35l4 38q0 8 -6 14q-8 5 -14 5q-7 0 -32 -11l-42 -25l-19 -15q-6 -6 -8 -12l-3 -17q0 -48 39 -78q37 -31 101 -31q45 0 89 14q43 14 78 37q37 24 64 57q38 45 57 103q18 53 29 148l15 97q2 15 6 30q1 4 3 10q3 10 5 15
q3 9 8 20q2 3 5 8t5 8q9 16 29 34z" />
    <glyph glyph-name="Q" unicode="Q" horiz-adv-x="635" 
d="M371 696q-54 0 -93 -13q-23 -7 -66 -50q-41 -41 -86 -109q-41 -64 -74 -153q-31 -86 -31 -174q0 -60 21 -107q19 -48 58 -74q38 -27 82 -27q80 0 181 80l35 -41l26 -22q12 -9 24 -14l24 -3q21 0 46 13q21 11 52 35q37 32 76 71v56q-43 -49 -67 -68q-28 -22 -57 -22
q-22 0 -42 17q-18 16 -43 51q31 41 53 74q23 35 42 69q37 70 56 136q19 67 19 138q0 63 -26 101q-27 36 -73 36q-32 0 -67 -21q-33 -22 -62 -58q-30 -38 -46 -80q-18 -43 -18 -85q0 -40 20 -66t49 -26q23 0 46 20q22 19 22 43q0 6 -3 9t-12 3q-32 0 -32 41q0 30 16 71
q10 27 19 41q8 15 24 34q27 31 56 31q25 0 38 -25t13 -68q0 -65 -20 -134q-21 -68 -56 -134q-19 -35 -38 -62t-42 -57q-31 31 -48 40q-20 11 -38 11q-20 0 -40 -11q-22 -14 -34 -28q-14 -17 -14 -23t7 -6l5 1l9 2h5q18 0 35 -11q17 -14 39 -46q-31 -17 -43 -21
q-15 -5 -32 -5q-34 0 -56 19q-23 18 -36 52q-14 36 -14 83q0 67 20 145q19 75 57 143q35 65 84 119l51 52z" />
    <glyph glyph-name="R" unicode="R" horiz-adv-x="802" 
d="M813 164q-42 -50 -69 -74q-31 -26 -58 -26q-33 0 -33 42l3 31q3 17 6 35q1 6 1 27q0 42 -20 73q-19 30 -63 54q59 15 87 27q27 9 51 28q31 26 47 57t16 63q0 38 -16 71t-51 62q-35 30 -88 47q-51 16 -126 16q-102 0 -189 -35q-87 -34 -138 -96q-51 -61 -51 -132
q0 -34 17 -63t39 -29q16 0 52 16q36 17 36 29q0 14 -19 24q-40 21 -40 61q0 47 39 90q37 43 102 70q63 27 132 27q168 0 168 -148q0 -83 -43 -129q-3 -2 -5 -4l-12 -9q-3 -3 -14 -7q-8 -4 -26 -4l-14 1l-17 1q-23 0 -23 -29q0 -9 3 -12q4 -4 15 -5q30 0 30 -47
q0 -29 -14 -83t-14 -82q0 -49 29 -81t77 -32q46 0 89 27q44 27 104 92v56zM562 575q-17 17 -27 17q-27 0 -58 -16q-32 -16 -56 -40q-38 -37 -58 -91q-18 -50 -32 -159q-13 -105 -42 -165q-28 -59 -56 -76t-49 -17t-38 17t-17 46l5 33l5 34q0 19 -16 19q-14 0 -51 -22
t-45 -32q-7 -10 -7 -22q0 -17 11 -44q10 -27 43 -47q32 -21 86 -21q63 0 117 25q54 23 98 69q52 52 72 118q18 60 31 148q2 18 9 60q6 37 11 59q8 41 23 63q13 22 41 44z" />
    <glyph glyph-name="S" unicode="S" horiz-adv-x="563" 
d="M458 514q63 75 63 94q0 14 -19 33q-20 20 -59 38q-42 17 -89 17q-68 0 -115 -32q-48 -33 -71 -80q-23 -49 -23 -91q0 -59 28 -102q32 -49 83 -97q56 -52 78 -81q23 -29 23 -67q0 -25 -10 -45q-10 -22 -29 -39q-21 -17 -42 -26q-22 -9 -48 -9q-46 0 -70 22q-25 22 -31 47
q-8 26 -9 37l-1 6l-3 24q0 20 -7 30t-24 10q-5 -5 -6 -7q-10 -12 -28 -43q-30 -49 -30 -63q0 -12 23 -38q21 -24 66 -44t103 -20q66 0 124 30q60 31 94 81q34 49 34 108q0 29 -7 50q-7 22 -22 44q-30 42 -88 99q-58 56 -82 87q-26 35 -26 75q0 26 12 48q10 15 16 21t19 14
q21 12 47 12q27 0 51 -15q24 -16 37 -39q12 -23 17 -60l4 -20l8 -9h9z" />
    <glyph glyph-name="T" unicode="T" horiz-adv-x="677" 
d="M671 668l-3 -1q-7 -7 -20 -7q-11 0 -46 12q-34 12 -66 18q-31 6 -66 6q-69 0 -135 -29q-64 -28 -109 -73q-49 -48 -75 -99q-26 -52 -26 -93q0 -31 20 -57q20 -27 43 -27q14 0 42 23q26 23 26 35q0 10 -19 22q-47 30 -47 67q0 22 23 57t61 60q37 25 88 25q59 0 150 -30
q62 -17 80 -17q38 0 60 28q23 28 29 77zM198 27q-25 0 -42 9t-23 23q-7 14 -9 31l-2 38q0 39 -21 39q-8 0 -23 -9l-29 -21l-23 -25q-9 -13 -9 -22q0 -18 18 -42t56 -41q38 -18 96 -18q52 0 106 19q53 18 100 57q46 37 76 102q18 37 26 72q8 40 8 79l1 61q0 54 3 79
q0 14 5 29q2 5 3 10t2 6q0 12 -19 12q-10 0 -25 -6l-32 -15l-26 -20q-27 -27 -36 -60q-10 -31 -10 -105l-4 -105q-4 -33 -13 -60q-7 -24 -26 -50q-24 -33 -57 -50q-32 -17 -71 -17z" />
    <glyph glyph-name="U" unicode="U" horiz-adv-x="760" 
d="M771 164q-51 -56 -78 -77q-28 -24 -54 -24q-19 0 -33 20q-12 20 -12 51q0 18 11 79q3 18 7 38q4 18 6 28q5 26 15 65q17 75 39 159l27 103l23 83q0 7 -13 7l-70 -8q-33 -3 -38 -7q-7 -4 -15 -24q-23 -66 -31 -96q-14 -48 -21 -74l-51 -185q-1 -4 -7 -23l-6 -18
q-3 -9 -9 -28q-2 -4 -4 -10q-16 -42 -36 -78q-18 -35 -43 -60q-24 -24 -49 -24q-20 0 -31 15q-12 14 -12 39q0 16 6 41q5 26 15 54l19 56q32 94 45 146q13 53 13 108q0 49 -17 91q-16 40 -49 63q-32 22 -75 22q-38 0 -77 -21t-69 -57q-32 -35 -50 -80q-18 -46 -18 -91
q0 -34 18 -63t38 -29q16 0 39 23q21 23 21 40q0 8 -12 18q-33 30 -33 74q0 29 17 66q17 31 43 54q26 21 51 21q24 0 41 -20q16 -20 16 -56q0 -31 -15 -85q-20 -69 -35 -108q-31 -88 -45 -147q-15 -58 -15 -97q0 -67 32 -108t85 -41q45 0 83 26t63 61q25 32 48 77
q0 -42 4 -59l1 -3q4 -21 7 -28l12 -24q18 -24 40 -37q20 -13 47 -13q78 0 191 119v56z" />
    <glyph glyph-name="V" unicode="V" horiz-adv-x="677" 
d="M245 697q-44 0 -82 -22q-39 -22 -69 -61q-28 -36 -45 -82q-17 -45 -17 -86q0 -33 17 -62t39 -29q15 0 38 23q21 23 21 41q0 11 -14 23q-16 16 -22 31q-7 14 -7 38q0 31 17 66q16 32 43 54q26 21 51 21q26 0 41 -21q14 -23 14 -59q0 -61 -49 -192q-53 -144 -53 -215
q0 -49 20 -91q20 -40 54 -63q38 -24 81 -24q69 0 134 56q63 54 112 145q49 94 73 186q25 94 25 175q0 31 -5 59q-3 13 -8 28q-1 7 -3 12l-4 10q-4 9 -6 15q-11 23 -22 23q-8 0 -34 -12q-9 -5 -25 -15q-7 -4 -19 -13l-1 -1q-21 -16 -21 -29q0 -11 15 -38q48 -91 48 -170
q0 -67 -19 -131q-18 -63 -52 -121q-30 -54 -71 -88q-39 -33 -75 -33q-30 0 -50 23q-21 23 -21 57q0 50 41 162q14 37 24 68q3 10 9 32q4 12 7 23q14 58 14 106q0 52 -17 95q-18 41 -50 64q-31 22 -77 22z" />
    <glyph glyph-name="W" unicode="W" horiz-adv-x="958" 
d="M386 523q0 48 -18 88q-20 42 -53 64q-32 22 -72 22q-38 0 -77 -21q-19 -10 -38 -25q-21 -17 -32 -31q-31 -37 -48 -81q-17 -45 -17 -91q0 -31 11 -53q11 -21 25 -30q13 -10 21 -10q15 0 36 26t21 32q0 4 -14 24l-24 34q-9 17 -9 41q0 30 17 64q16 31 44 54q25 22 51 22
q25 0 41 -19t16 -48q0 -60 -53 -215q-29 -84 -42 -136q-14 -56 -14 -100q0 -65 32 -105q31 -40 88 -40q63 0 109 48q44 47 82 117q0 -69 20 -106q19 -37 46 -48t44 -11q55 0 120 50q64 49 122 133t93 185q36 102 36 202q0 32 -5 57q-4 15 -11 36l-6 12q-3 7 -5 11
q-12 21 -23 21q-8 0 -34 -12q-25 -12 -44 -28q-20 -17 -20 -32q0 -9 12 -32q21 -43 33 -90q11 -52 11 -90q0 -70 -24 -132q-23 -60 -59 -112q-35 -48 -73 -77t-61 -29q-22 0 -34 18q-13 16 -13 48q0 65 39 219l66 255l23 86q-1 7 -4 7l-15 1l-60 -5q-43 -4 -46 -11
q-19 -42 -29 -73q-5 -16 -10 -29q-5 -15 -7 -23q-6 -19 -15 -54l-46 -172q-21 -81 -49 -146q-27 -61 -55 -91q-28 -31 -57 -31q-19 0 -31 14t-12 36q0 24 11 68l32 103l33 100q11 37 19 77q2 11 4 32q1 8 1 11v21z" />
    <glyph glyph-name="X" unicode="X" horiz-adv-x="719" 
d="M730 164q-85 -102 -171 -102q-48 0 -77 35t-29 91q0 43 16 114q18 76 40 141q14 38 27 69q16 35 26 51q29 48 53 48q17 0 30 -25q11 -17 19 -17t23 15q12 12 24 31q9 17 9 30q0 19 -19 35t-43 16q-13 0 -36 -12q-22 -12 -57 -53q-35 -43 -71 -119q0 17 -2 43q-1 15 -5 32
q-7 27 -23 51q-19 29 -50 43q-31 15 -69 15q-61 0 -114 -37q-56 -38 -90 -95q-35 -59 -35 -113q0 -25 11 -49q12 -25 29 -37q20 -14 39 -14q22 0 38 16q18 18 27 35q3 5 9 17l2 4q0 2 1 4q0 10 -18 10q-66 0 -66 64q0 34 20 69q19 34 52 59q32 23 61 23q30 0 50 -26
q18 -25 18 -69q0 -54 -31 -174q-15 -61 -35 -117q-19 -50 -42 -100q-47 -95 -91 -95q-19 0 -33 14q-15 15 -19 36q-4 22 -15 22t-50 -36t-39 -47q0 -14 26 -43q25 -28 66 -28q65 0 117 58q25 28 50 66q19 29 44 81q4 -52 14 -85q9 -30 30 -57q14 -19 25 -27q8 -8 30 -20
q31 -16 66 -16q36 0 79 15q41 16 85 42q41 27 74 62v56z" />
    <glyph glyph-name="Y" unicode="Y" horiz-adv-x="760" 
d="M735 586l26 106q0 7 -11 7l-16 -1l-39 -5l-35 -4q-14 0 -25 -7q-7 -4 -9 -15l-29 -94q-16 -48 -45 -124q-36 -97 -81 -189q-48 -95 -89 -147q-44 -56 -76 -56t-32 44t41 162q31 86 47 152q13 53 13 108q0 49 -17 91q-18 40 -50 63q-32 22 -75 22q-61 0 -110 -40
q-50 -41 -77 -101q-28 -59 -28 -112q0 -33 19 -61q18 -29 39 -29q19 0 39 26q19 25 19 40q0 7 -12 17q-33 29 -33 75q0 33 17 67t42 53q26 20 51 20q28 0 44 -22t16 -53q0 -53 -51 -199q-32 -88 -45 -148q-14 -64 -14 -99q0 -61 30 -99q30 -39 80 -39q70 0 130 70
q59 69 105 165l68 143l-28 -93l-16 -62l-25 -98l-19 -75l-11 -46q-207 -72 -207 -177q0 -34 23 -54t59 -20q37 0 78 19q41 18 90 75q49 56 86 165q64 21 111 46q42 23 68 55v56q-37 -45 -75 -69q-38 -25 -89 -42l24 90q3 11 7 25q12 48 21 87zM451 -44q-5 -20 -16 -53
q-9 -26 -18 -46q-19 -40 -38 -56q-20 -17 -42 -17q-19 0 -31 13q-13 12 -13 29q0 21 20 47q9 11 25 24q10 8 33 22q34 21 80 37z" />
    <glyph glyph-name="Z" unicode="Z" horiz-adv-x="563" 
d="M317 405l-94 -102l-12 -13q-25 -27 -34 -39q-7 -9 -39 -48q-39 -49 -66 -92q-28 -45 -43 -81q-4 -9 -7 -18q-2 -8 -3 -11q0 -2 3 -8q0 -1 1 -1l1 -1q1 -1 7 -1l23 -1q10 0 17 19q7 18 18 26q10 7 38 7q16 0 46 -5q23 -6 57 -21l60 -21q28 -5 45 -5q63 0 117 28
q55 27 122 91v56q-37 -42 -62 -58q-26 -17 -55 -17q-14 0 -39 5l-59 18q-40 15 -68 21q-33 5 -57 5q-28 0 -45 -3l-64 -17q29 50 69 96l38 42l90 98l86 95l44 49q24 29 45 57q22 30 35 53q30 53 30 80q-1 7 -4 7l-14 1q-6 0 -12 -6q-26 -20 -60 -20l-42 5l-54 10l-44 8
q-15 4 -22 4h-15q-36 0 -79 -20q-42 -19 -75 -54q-32 -34 -52 -73q-19 -38 -19 -81q0 -26 16 -51t32 -25q7 0 21 11l7 5q6 5 7 6l12 12q11 14 11 22q0 12 -19 27q-19 19 -24 28q-6 9 -6 24q0 28 25 46q22 19 62 19q29 0 85 -13q61 -14 96 -14q39 0 76 17q-7 -12 -17 -24
q-3 -3 -12 -15l-12 -16l-80 -88z" />
    <glyph glyph-name="bracketleft" unicode="[" horiz-adv-x="479" 
d="M18 -224h227l13 45h-107l216 831h107l13 45h-229z" />
    <glyph glyph-name="backslash" unicode="\" horiz-adv-x="10" 
d="M21 164q-67 -79 -123 -108q-26 -14 -26 -19t5 -13q4 -7 8 -9q1 -1 5 -3q8 0 31 14q13 7 26 17l3 3q13 11 21 17q32 26 50 45v56z" />
    <glyph glyph-name="bracketright" unicode="]" horiz-adv-x="479" 
d="M237 652h107l-219 -831h-109l-10 -45h227l245 921h-229z" />
    <glyph glyph-name="asciicircum" unicode="^" horiz-adv-x="570" 
d="M176 325l192 250l94 -250h78l-128 351h-40l-270 -351h74z" />
    <glyph glyph-name="underscore" unicode="_" horiz-adv-x="500" 
d="M-10 -125h518v50h-518v-50z" />
    <glyph glyph-name="grave" unicode="`" horiz-adv-x="333" 
d="M202 476q-34 54 -49 90q-18 45 -25 87l-113 -19q31 -60 65 -94q39 -40 99 -77z" />
    <glyph glyph-name="a" unicode="a" 
d="M532 164q-31 -31 -43 -42q-4 -3 -5 -5q-16 -13 -24 -20q-16 -15 -34 -15q-13 0 -21 11q-9 11 -9 31q0 16 11 65l22 83l43 143h-27l-100 -55q-24 56 -85 56q-37 0 -80 -22q-42 -22 -83 -61q-40 -39 -66 -92q-26 -55 -26 -113q0 -36 14 -69q13 -32 38 -51q22 -19 51 -19
q42 0 84 33t91 103q0 -136 73 -136q34 0 68 25l10 8q23 18 36 30q14 12 44 40l18 16v56zM265 376q22 0 34 -16q11 -17 11 -42q0 -46 -19 -100q-19 -55 -51 -96t-65 -41q-18 0 -32 17t-14 42q0 41 20 99q19 56 51 97q31 40 65 40z" />
    <glyph glyph-name="b" unicode="b" horiz-adv-x="438" 
d="M449 164l-30 -35q-8 -10 -20 -15q-13 -6 -31 -6q-34 0 -61 33q90 137 90 219q0 13 -3 23q-2 7 -8 17q-10 15 -28 15q-24 0 -44 -16q-22 -17 -38 -45q-16 -25 -27 -60q-11 -36 -11 -70q0 -42 24 -86q-26 -35 -46 -49q-16 -13 -40 -13q-21 0 -33 17q-13 16 -13 44l3 38
q0 9 4 24q1 7 3 15t2 10l18 70l64 64q36 36 70 78q35 43 65 97q28 52 28 99q0 29 -10 46q-10 18 -25 18l-57 -12l-113 -34l-23 -41l-6 -10q-8 -13 -10 -18q-3 -7 -15 -31l-33 -81l-45 -128q-44 -140 -44 -228q0 -50 29 -87q29 -36 71 -36q41 0 82 26q40 25 98 92
q27 -22 43 -28q21 -8 38 -8q49 0 82 36v56zM184 369l24 74l36 97q18 40 40 74q20 29 40 29q9 0 15 -9t6 -22q0 -31 -41 -99q-40 -67 -120 -144z" />
    <glyph glyph-name="c" unicode="c" horiz-adv-x="365" 
d="M376 164q-37 -37 -56 -52q-29 -25 -51 -32q-24 -8 -47 -8q-44 0 -73 35t-29 92q0 42 14 84q14 40 35 65q23 24 46 24q15 0 24 -13t9 -35l-3 -26l-3 -26q0 -10 7 -10l15 5l57 27q12 5 19 14q5 8 5 20q0 40 -27 64q-29 23 -71 23t-87 -24q-46 -26 -79 -65q-34 -40 -54 -91
q-20 -52 -20 -100q0 -64 41 -105t105 -41q55 0 107 28q55 30 116 91v56z" />
    <glyph glyph-name="d" unicode="d" 
d="M328 383q-16 18 -31 25t-40 7q-60 0 -118 -43q-59 -44 -95 -113q-37 -70 -37 -139q0 -35 15 -65q15 -31 39 -48q24 -18 51 -18q44 0 93 40q37 30 79 92q0 -83 27 -107q25 -25 49 -25q22 0 50 15q27 17 54 39l68 65v56q-32 -35 -58 -58t-45 -23q-12 0 -20 12q-8 11 -8 29
q0 36 18 124l42 189l44 172l18 78q0 8 -10 8q-14 0 -46 -6q-4 -1 -39 -8l-30 -6zM263 378q21 0 35 -17q12 -16 12 -46q0 -34 -10 -73q-11 -41 -30 -77q-21 -40 -41 -60q-23 -23 -50 -23q-22 0 -34 16q-12 15 -12 42q0 40 20 100q20 59 49 98q28 40 61 40z" />
    <glyph glyph-name="e" unicode="e" horiz-adv-x="365" 
d="M376 164l-60 -56q-19 -16 -42 -27q-25 -11 -48 -11q-39 0 -66 24q-25 25 -36 71q67 21 103 38q40 18 77 50q35 32 35 76q0 40 -28 62q-29 23 -72 23q-45 0 -85 -22q-41 -23 -74 -60q-32 -38 -52 -88q-20 -51 -20 -101q0 -68 41 -111q40 -43 107 -43q20 0 36 3q11 2 33 8
q33 10 68 36q12 8 38 31q14 11 45 41v56zM120 198q0 52 14 94q13 38 37 62q23 21 40 21q16 0 25 -12t9 -35q0 -49 -31 -80q-32 -32 -94 -50z" />
    <glyph glyph-name="f" unicode="f" horiz-adv-x="396" 
d="M0 152v-44h11l33 36l19 -47q-37 -209 -54 -347q82 16 122 21l11 76l8 57l7 45l10 54q37 -14 51 -14q37 0 89 32q50 31 100 87v56q-42 -52 -77 -74q-37 -25 -71 -25q-48 0 -72 51l41 204q86 80 131 144q42 62 42 144q0 36 -11 63q-12 25 -31 25l-68 -17q-62 -17 -68 -26
l-16 -32q-8 -15 -28 -64l-35 -95q-16 -52 -24 -87l-27 -127zM243 386l19 86q3 15 11 45q4 17 11 41q7 23 13 36q1 2 1 3l12 24q13 25 29 25q12 0 19 -13t7 -34q0 -49 -34 -107q-36 -61 -88 -106z" />
    <glyph glyph-name="g" unicode="g" horiz-adv-x="479" 
d="M227 10l-11 -4q-38 -14 -56 -22q-7 -3 -33 -15q-41 -19 -73 -54t-32 -79q0 -37 24 -62q22 -25 61 -25q73 0 134 70q63 70 101 193q49 18 80 39q33 20 68 57v56q-11 -13 -35 -39q-15 -15 -33 -29q-30 -24 -67 -39l46 245q15 70 29 112h-11l-92 -39q-37 40 -84 40
q-56 0 -111 -40q-56 -42 -92 -107q-34 -64 -34 -127q0 -58 26 -98q26 -39 66 -39q33 0 68 23q33 24 82 79zM254 377q17 0 29 -15q11 -17 11 -38q0 -18 -7 -54q-7 -39 -21 -78q-13 -39 -36 -69q-24 -31 -54 -31q-23 0 -37 20t-14 53q0 39 17 93q9 26 20 47q10 19 26 38
q30 34 66 34zM217 -33q-12 -46 -26 -84q-12 -33 -24 -54q-27 -43 -61 -43q-19 0 -33 14t-14 36q0 38 39 71q39 31 119 60z" />
    <glyph glyph-name="h" unicode="h" horiz-adv-x="479" 
d="M121 13q0 78 4 114q0 25 4 48q5 26 9 54q41 45 76 70q38 29 59 29q10 0 14 -6q5 -7 5 -14q0 -21 -24 -75q-45 -108 -45 -165q0 -34 23 -57t54 -23q39 0 85 30q47 29 105 90v56q-42 -48 -71 -71t-44 -23q-9 0 -15 9q-7 7 -7 18q0 12 7 34l21 62l21 60l1 2q5 19 9 30
q2 6 3 15q3 13 4 17q4 17 4 32q0 29 -15 47t-41 18q-22 0 -43 -9l-87 -48q27 38 33 45q27 37 43 65q29 45 42 84q13 38 13 72q0 29 -8 51q-9 21 -22 21l-58 -18q-41 -13 -108 -41q-43 -70 -75 -139q-13 -27 -29 -68q-14 -37 -23 -64q-8 -23 -17 -64q-8 -36 -12 -64
q-10 -60 -10 -138q0 -61 6 -111zM152 308q25 99 54 172q32 74 60 116q25 40 44 40q8 0 12 -7t4 -22q0 -96 -174 -299z" />
    <glyph glyph-name="i" unicode="i" horiz-adv-x="240" 
d="M127 610q-17 -53 -44 -97q28 -25 72 -25q42 0 64 30q22 28 22 87q-25 -19 -52 -19q-13 0 -26 5zM251 164q-13 -14 -34 -35q-18 -18 -25 -23q-19 -16 -40 -16q-11 0 -18 10t-7 26q0 26 7 53l23 82l49 153h-6l-124 -26q-11 -28 -21 -59q-15 -42 -28 -91q-21 -70 -21 -138
q0 -47 21 -79q21 -33 53 -33q56 0 171 120v56z" />
    <glyph glyph-name="j" unicode="j" horiz-adv-x="365" 
d="M242 609q-5 -24 -14 -41q-8 -16 -36 -53q31 -28 74 -28q89 0 99 119q-28 -21 -58 -21q-19 0 -26 4zM175 357l-58 -74l-57 -68l-60 -63v-44h11l80 84l87 106l-36 -294q-59 -29 -94 -70t-35 -91q0 -38 23 -66q22 -28 56 -28q33 0 63 27q32 25 54 69q25 48 37 94l16 86
q63 34 114 83l-1 55l-57 -58q-27 -21 -49 -33l29 210l22 133q-39 -9 -59 -12q-7 -1 -37 -5l-19 -2zM129 -126q-9 -86 -44 -86q-14 0 -24 16t-10 37q0 36 25 68q25 34 63 50z" />
    <glyph glyph-name="k" unicode="k" horiz-adv-x="479" 
d="M123 9l2 77l6 76l15 98q43 55 69 74t58 19q15 0 27 -6t18 -16t6 -24q0 -23 -22 -47t-84 -24q-18 0 -26 -6t-8 -24q0 -8 5 -13q5 -4 18 -6q14 0 21 -7t7 -17l-6 -38q-6 -36 -6 -52q0 -36 24 -60q24 -25 59 -25q19 0 41 8q21 8 42 22q10 6 24 17q4 3 7 5q12 10 17 15
q19 17 31 30q9 9 22 24v56l-16 -19q-9 -11 -26 -28q-16 -16 -31 -28q-23 -17 -41 -17q-28 0 -28 30l1 11l1 15l1 12v6q0 54 -57 67q54 14 87 33q34 21 46 41q13 22 13 45q0 36 -29 59t-74 23q-28 0 -69 -12q68 81 93 129q25 47 25 90q0 24 -11 49q-10 24 -23 24
q-9 0 -56 -16q-39 -13 -55 -19q-20 -7 -54 -20q-3 -1 -12 -5q-18 -29 -42 -70q-18 -34 -35 -68q-32 -67 -51 -133q-19 -67 -30 -135q-6 -43 -8 -73q-3 -39 -3 -75q0 -19 2 -51q0 -9 3 -27l1 -13zM170 344q32 117 58 178q27 63 51 89q23 26 40 26q13 0 20 -7q6 -7 6 -23
q0 -26 -18 -61q-21 -37 -49 -75q-32 -41 -76 -91z" />
    <glyph glyph-name="l" unicode="l" horiz-adv-x="323" 
d="M334 164q-61 -57 -86 -76q-28 -22 -61 -22q-26 0 -41 25q-16 25 -16 67l4 70q63 69 108 137q42 64 62 127q19 60 19 128q0 31 -8 55q-9 22 -24 22l-9 -2l-124 -46q-8 -15 -21 -42l-7 -14q-1 -2 -7 -17q-5 -10 -11 -24q-29 -66 -50 -129q-22 -67 -39 -144
q-17 -79 -17 -141q0 -41 14 -77t40 -53q26 -19 62 -19q44 0 93 27q48 27 119 92v56zM147 299q23 116 48 194q5 19 14 44q4 11 14 35q3 7 11 25q8 17 16 29q9 14 17 14t14 -11q5 -13 5 -29q0 -40 -18 -94q-18 -56 -49 -109q-30 -53 -72 -98z" />
    <glyph glyph-name="m" unicode="m" horiz-adv-x="719" 
d="M118 16l3 64l6 52l12 68q61 71 86 91q37 31 48 31t11 -17l-8 -50l-12 -65l-47 -201l124 22l49 201q16 21 35 42q22 24 34 35q35 30 49 30q16 0 16 -16q0 -20 -19 -76q-34 -99 -34 -156q0 -38 19 -60t51 -22q37 0 78 26t111 93v56l-19 -20q-69 -74 -96 -74q-9 0 -14 8
q-6 8 -6 19q0 29 24 93q34 95 34 150q0 31 -17 54q-16 22 -44 22q-24 0 -47 -13q-26 -14 -58 -43l-80 -77l5 58q0 36 -16 55q-17 20 -41 20q-21 0 -54 -17q-30 -17 -65 -49q-17 -16 -31 -30q-12 -13 -27 -30l-14 -16l-10 -11q7 35 21 76q18 52 28 78l-118 -23
q-6 -13 -23 -51l-3 -8q-13 -31 -21 -54q-16 -48 -24 -94t-8 -103q0 -3 1 -21l1 -21q0 -4 1 -11q1 -28 1 -41z" />
    <glyph glyph-name="n" unicode="n" horiz-adv-x="479" 
d="M119 13l3 82q0 19 4 40q6 32 9 49l9 11q27 31 42 48q18 19 40 43q35 36 52 36q12 0 12 -16q0 -13 -23 -73q-43 -105 -43 -160q0 -38 20 -61t53 -23q41 0 88 29t105 90v56q-26 -30 -58 -60q-34 -34 -57 -34q-10 0 -18 8q-6 8 -6 21q0 20 29 96l22 60q11 33 15 56
q5 28 5 38q0 20 -7 34q-7 15 -21 24q-14 8 -30 8q-46 0 -92 -40q-30 -26 -54 -50q-43 -43 -65 -68q14 65 49 159l-119 -23l-37 -89q-11 -29 -22 -73l-4 -20q-2 -11 -4 -18q-2 -10 -6 -36l-1 -5q-3 -21 -3 -34v-32l5 -98z" />
    <glyph glyph-name="o" unicode="o" horiz-adv-x="438" 
d="M449 164q-51 -57 -84 -57q-26 0 -52 23q50 136 50 224q0 15 -1 18q-1 2 -2 6q0 4 -2 9q-4 10 -24 19q-19 9 -60 9q-71 0 -133 -36q-60 -36 -98 -99q-37 -62 -37 -136q0 -48 16 -82q16 -33 45 -53t66 -20q46 0 86 27q41 27 75 79q19 -15 36 -20q7 -3 17 -5h1q10 -2 16 -2
q41 0 85 40v56zM266 122q-40 -64 -75 -64q-25 0 -42 27q-17 26 -17 77q0 46 14 100q13 52 44 87q28 34 77 34l21 -2q-35 -32 -51 -62q-17 -32 -17 -73q0 -69 46 -124z" />
    <glyph glyph-name="p" unicode="p" horiz-adv-x="563" 
d="M0 108h11l30 31l39 50l18 23l-24 -110l-25 -121l-21 -120l-18 -112l124 22q7 65 18 121l27 127l19 -14l15 -9l17 -5l25 -2q41 0 84 24q43 22 78 65q36 44 55 95t19 104q0 40 -14 73q-13 32 -39 48q-25 16 -58 16q-11 0 -25 -2q-5 -1 -17 -5l-8 -2q-15 -6 -39 -26
q-24 -21 -47 -48l19 84l-110 -20q-22 -53 -65 -125q-40 -67 -88 -118v-44zM218 197q12 51 21 72q10 22 24 37q26 27 51 27t40 -23q15 -22 15 -61q0 -45 -16 -95q-17 -52 -44 -88q-29 -38 -65 -38q-13 0 -27 9q-14 8 -29 33z" />
    <glyph glyph-name="q" unicode="q" 
d="M174 -251q40 12 126 23q15 49 50 107q32 54 73 104q18 24 36 45l6 6q16 19 25 29l42 45v56q-47 -46 -93 -100q-47 -54 -85 -108l128 460h-33q-37 -31 -87 -60q-21 60 -85 60q-63 0 -127 -46q-63 -46 -105 -118q-40 -70 -40 -143q0 -36 13 -62q14 -27 37 -42
q22 -16 53 -16q28 0 55 12q25 10 52 34q17 15 29 29q4 5 17 19q10 11 14 16zM283 378q13 0 23 -7q9 -8 16 -20q5 -17 5 -30q0 -42 -22 -99q-23 -60 -58 -102q-36 -45 -74 -45q-19 0 -31 13q-13 13 -13 32q0 31 13 73q12 45 33 87t49 70t59 28z" />
    <glyph glyph-name="r" unicode="r" horiz-adv-x="365" 
d="M0 108h11q69 69 100 126q45 8 79 26q-39 -62 -56 -105q-18 -46 -18 -80q0 -35 20 -61t51 -26q23 0 51 12q29 14 61 39q33 26 77 69v56l-54 -50q-19 -18 -31 -23t-21 -5q-16 0 -25 13q-10 10 -10 32l3 30l15 50l27 78l45 125l-44 -2q-34 -60 -65 -88q-33 -30 -77 -36
q22 56 22 88q0 39 -38 39q-25 0 -45 -15q-19 -15 -30 -33q-10 -18 -16 -43l-5 -32q0 -35 42 -55q-27 -42 -69 -85v-44z" />
    <glyph glyph-name="s" unicode="s" horiz-adv-x="406" 
d="M0 108h11q19 20 43 49q17 20 33 41q22 29 35 47q19 28 33 50l18 -44l27 -44q32 -50 32 -80q0 -22 -12 -42q-13 -21 -31 -32q-19 -13 -39 -13q-15 0 -26 11q-10 10 -19 40q-9 29 -25 29q-11 0 -38 -32q-28 -32 -28 -45q0 -12 14 -26q14 -13 33 -21q21 -8 41 -8
q48 0 100 31q53 33 86 83q34 50 34 99q0 18 -8 42q-6 19 -25 46q-26 38 -26 63q0 17 8 43q4 7 4 15l-5 4l-24 -3l-49 -9l-36 -8q-21 -60 -67 -126q-42 -61 -94 -116v-44z" />
    <glyph glyph-name="t" unicode="t" horiz-adv-x="281" 
d="M76 402l-46 -2l-16 -77l38 2l-19 -66q-5 -17 -9 -33l-3 -11q-6 -22 -8 -33q-7 -29 -7 -65q0 -55 26 -92q26 -36 68 -36q40 0 84 28q45 28 108 91v56q-50 -50 -69 -64q-24 -18 -52 -18q-18 0 -29 15q-12 14 -12 37q0 25 9 61q2 10 10 42l1 3q8 27 12 39l17 55l76 6l16 75
l-68 -4l50 170l-131 -27z" />
    <glyph glyph-name="u" unicode="u" 
d="M268 180q-7 -28 -45 -70q-39 -43 -65 -43q-16 0 -25 13q-10 13 -10 34q0 33 16 91l36 126l28 83l-130 -26q-68 -187 -68 -286q0 -52 22 -83t60 -31q39 0 80 26q39 25 99 89q0 -50 20 -82t60 -32q24 0 50 13q27 13 56 36q6 5 15 12q15 12 22 19q13 10 43 39v56l-10 -9
l-10 -10l-38 -36q-23 -19 -34 -24q-12 -6 -24 -6q-15 0 -22 13q-9 14 -9 33q0 10 1 17q2 12 3 17l17 63l25 84l34 109l-133 -27z" />
    <glyph glyph-name="v" unicode="v" horiz-adv-x="438" 
d="M449 164q-47 -53 -80 -53q-26 0 -52 23q80 131 80 229q0 51 -33 51q-23 0 -43 -15q-19 -14 -37 -41q-17 -28 -27 -58q-11 -33 -11 -68q0 -51 25 -100q-27 -41 -52 -60q-26 -20 -49 -20q-21 0 -34 19q-14 19 -14 43q0 17 9 59l17 66l59 176l-133 -25l-34 -100l-19 -61
l-11 -57l-1 -6q-1 -8 -3 -15v-30q0 -62 29 -97t79 -35q49 0 95 27q45 27 89 83q15 -11 36 -20q15 -7 34 -7q42 0 81 36v56z" />
    <glyph glyph-name="w" unicode="w" horiz-adv-x="677" 
d="M205 415l-129 -24q-37 -99 -54 -162q-16 -61 -16 -118q0 -58 29 -90t77 -32q75 0 141 76q30 -76 99 -76q51 0 97 30q45 30 86 80q14 -11 35 -20q15 -7 35 -7q22 0 42 10q21 9 41 26v56q-50 -53 -82 -53q-26 0 -52 23q41 64 60 124q20 63 20 109q0 48 -32 48
q-28 0 -57 -26q-28 -25 -45 -70q-17 -46 -17 -90q0 -21 1 -26l1 -4q2 -11 4 -20q6 -20 20 -48l-40 -47q-15 -15 -29 -22q-16 -8 -32 -8q-21 0 -33 17q-13 16 -13 46q0 48 26 129l55 169l-131 -24l-40 -118q-17 -50 -22 -89q-5 -40 -5 -47q-1 -7 -1 -23q-39 -61 -78 -61
q-19 0 -31 17t-12 41q0 56 46 195z" />
    <glyph glyph-name="x" unicode="x" horiz-adv-x="563" 
d="M0 108h11l42 44q15 18 43 66l8 12q13 22 17 27q11 17 25 35q26 32 43 46t34 14q18 0 28 -13t10 -39l-6 -51q-2 -15 -8 -43q-4 -19 -12 -46q-13 -51 -34 -85q-22 -36 -50 -36q-29 0 -46 44q-7 21 -15 21l-19 -12q-10 -7 -16 -13l-13 -13q-14 -14 -14 -20q0 -22 28 -41
t61 -19q82 0 132 101q26 -101 113 -101q90 0 212 122v56q-107 -122 -172 -122q-22 0 -36 17q-15 17 -15 45q0 25 12 88q12 62 33 114t50 52q17 0 26 -18q7 -18 9 -35q0 -16 7 -16q8 0 37 26q28 25 28 33q0 16 -17 42q-16 24 -58 24q-37 0 -63 -22q-27 -21 -52 -73
q-17 95 -98 95q-47 0 -96 -43q-52 -45 -112 -144q-28 -46 -57 -75v-44z" />
    <glyph glyph-name="y" unicode="y" 
d="M37 266q-15 -35 -23 -82q-9 -43 -9 -76q0 -49 23 -81t61 -32q39 0 77 25q40 27 85 78l-30 -105q-9 -4 -35 -17q-33 -17 -48 -27q-35 -22 -55 -45q-21 -24 -29 -43q-9 -21 -9 -42q0 -32 19 -51t50 -19q83 0 147 87q40 56 73 149l84 42q30 15 61 37l53 44v56
q-45 -48 -80 -73l-7 -5q-24 -15 -38 -23q-27 -15 -58 -30l15 47l96 289l16 46l-133 -25l-56 -153q-16 -45 -40 -85q-15 -24 -25 -36q-13 -17 -24 -26q-25 -22 -45 -22q-30 0 -30 44q0 30 15 78q14 50 27 80l61 145l-142 -25zM207 -55q-20 -78 -45 -118q-26 -41 -52 -41
q-13 0 -20 10q-8 11 -8 23q0 32 33 67q36 35 92 59z" />
    <glyph glyph-name="z" unicode="z" horiz-adv-x="479" 
d="M0 108h11q6 6 24 26l6 6q3 3 9 10q13 14 17 19l54 66q22 28 61 84q48 -15 91 -15q36 0 61 6l-60 -73l-91 -111l-72 -88q-29 -38 -29 -46q8 -2 13 -3t21 -1l6 3l6 6q22 23 53 23q27 0 76 -16q48 -16 67 -16q18 0 39 8q16 6 37 22q17 14 42 39l48 51v56q-13 -15 -24 -27
q-15 -15 -22 -20q-19 -18 -33 -24q-13 -7 -36 -7l-63 11h-2q-56 11 -63 11l-32 -2l39 48l70 84l69 84l38 49q20 32 20 38q-1 1 -1 2l-1 1q-2 2 -7 2l-23 -3q-53 -10 -106 -10q-23 0 -49 3q-19 2 -48 8l-15 2q-6 0 -13 -16l-18 -31l-32 -48l-38 -51q-55 -70 -100 -116v-44z
" />
    <glyph glyph-name="braceleft" unicode="{" horiz-adv-x="394" 
d="M80 222q46 -7 70 -34q25 -25 25 -69q0 -27 -11 -76q-15 -59 -15 -89q0 -34 21 -71q21 -38 68 -62t112 -24v22q-46 10 -70 33q-24 22 -24 64q0 29 12 79t12 80q0 27 -10 51q-9 21 -31 47q-21 22 -49 37t-71 27q23 7 44 14q19 7 28 12q26 15 44 34q44 47 44 101
q0 31 -12 80q-12 50 -12 84q0 37 26 60t69 32v22q-9 0 -33 -2h-3q-26 -4 -38 -7q-19 -4 -42 -18q-39 -22 -61 -58q-23 -38 -23 -73q0 -33 15 -87q10 -39 10 -73q0 -46 -25 -73q-25 -26 -70 -34v-29z" />
    <glyph glyph-name="bar" unicode="|" horiz-adv-x="546" 
d="M234 -250h78v1000h-78v-1000z" />
    <glyph glyph-name="braceright" unicode="}" horiz-adv-x="394" 
d="M314 251q-95 17 -95 102q0 18 3 37q2 13 8 39q15 54 15 90t-21 72t-67 61q-46 24 -113 24v-22q44 -9 70 -32q24 -22 24 -65q0 -30 -12 -84q-12 -55 -12 -76q0 -25 12 -51q11 -27 33 -48q20 -21 44 -34q19 -11 72 -29q-15 -3 -23 -6q-15 -5 -28 -10q-14 -6 -19 -9t-13 -7
l-4 -3l-29 -24q-44 -47 -44 -101q0 -30 12 -83t12 -81q0 -39 -25 -61q-27 -24 -70 -31v-22q39 0 66 8q25 6 50 19q38 23 62 59q22 34 22 72q0 28 -15 87q-10 39 -10 73q0 47 25 73q26 26 70 33v30z" />
    <glyph glyph-name="asciitilde" unicode="~" horiz-adv-x="667" 
d="M96 248q13 87 86 87q31 0 103 -30l99 -40q35 -12 48 -14q15 -4 36 -4q37 0 68 20q29 20 45 54q10 23 13 40q5 23 5 44h-28q-4 -43 -27 -66t-59 -23q-21 0 -38 7l-66 24q-94 41 -122 49q-36 10 -64 10q-62 0 -101 -55l-13 -27q-6 -15 -9 -33q-4 -16 -4 -43h28z" />
    <glyph glyph-name="quotesinglbase" unicode="&#x201a;" horiz-adv-x="240" 
d="M32 -172q94 38 143 90q49 50 49 111q0 34 -18 62q-17 27 -61 53q-37 -51 -63 -75q-9 -8 -11 -11l-2 -2l-3 -6q0 -6 17 -12q49 -19 49 -62q0 -21 -10 -37q-5 -9 -14 -18q-6 -8 -18 -16q-18 -14 -28 -21l-14 -10q-19 -11 -26 -16z" />
    <glyph glyph-name="florin" unicode="&#x192;" horiz-adv-x="500" 
d="M422 383l12 59h-75q6 38 6 60l-2 46l-2 39q0 30 13 49t33 19l10 -3l3 -8l-2 -7q-13 -26 -13 -38q0 -16 14 -28t29 -12q24 0 38 17t14 39q0 30 -22 46q-23 17 -57 17q-52 0 -87 -30q-36 -33 -59 -95q-15 -43 -31 -68t-36 -34q-21 -9 -56 -9l-12 -59h69l-53 -262l-16 -91
q-4 -21 -4 -62l2 -46l2 -46q0 -29 -10 -45q-11 -17 -27 -17l-9 3q-2 2 -5 8l3 13l3 13q0 17 -12 28q-13 10 -33 10q-21 0 -35 -14q-15 -14 -15 -34q0 -23 23 -40t53 -17q32 0 64 16q33 16 65 58q34 45 56 123q3 11 11 45q6 23 9 33q8 31 17 80l49 244h75z" />
    <glyph glyph-name="quotedblbase" unicode="&#x201e;" horiz-adv-x="479" 
d="M270 -172q98 38 147 88q48 51 48 113q0 37 -16 62q-15 23 -59 50l-55 -62q-5 -5 -15 -18l-3 -4q-2 -4 -6 -8q0 -8 19 -15q24 -10 35 -24q10 -13 10 -33q0 -19 -11 -41q-12 -22 -34 -36q-22 -17 -66 -38zM123 110l-34 -39l-17 -22q0 -5 15 -13q47 -20 47 -62
q0 -30 -24 -54q-22 -22 -86 -58l6 -31q196 72 196 197q0 34 -17 63q-16 27 -57 53z" />
    <glyph glyph-name="ellipsis" unicode="&#x2026;" horiz-adv-x="1000" 
d="M792 135q-22 -72 -49 -115l32 -19l26 -9l28 -3q24 0 39 9t27 32t27 72q-37 -8 -49 -8q-18 0 -36 8q-13 8 -45 33zM460 135q-24 -74 -50 -115l32 -19l26 -9l28 -3q24 0 39 9t27 32t27 72q-37 -8 -49 -8q-19 0 -35 8t-45 33zM127 135l-23 -64q-5 -14 -12 -26q-4 -7 -14 -25
q26 -18 44 -24q15 -7 41 -7q36 0 54 23t39 90q-37 -8 -48 -8q-19 0 -27 4l-19 10z" />
    <glyph glyph-name="dagger" unicode="&#x2020;" horiz-adv-x="563" 
d="M52 334q35 -5 46 -5q22 0 50 5q21 4 51 16q33 13 66 32l-15 -48l-40 -113l-45 -127l-38 -112l-30 -98q-6 -21 -12 -39q-3 -13 -4 -16q-4 -17 -12 -53q27 4 48 9l8 2q19 4 26 6q35 10 81 30q12 82 29 177q5 32 12 66q5 30 15 74l30 134l28 104q45 -20 80 -30
q35 -13 75 -21q8 12 16 28l4 7q4 7 11 24l6 14q10 27 20 71q-75 -26 -106 -32q-41 -10 -91 -14l58 150q10 25 12 32q1 3 5 18l2 9l8 63q-4 -1 -14 -5l-9 -3q-1 -1 -33 -6q-2 0 -9 -1q-14 -2 -25 -4q-28 -5 -51 -5l-5 -102l-6 -62l-14 -83q-22 0 -44 2q-20 2 -42 7
q-33 6 -99 27z" />
    <glyph glyph-name="daggerdbl" unicode="&#x2021;" horiz-adv-x="635" 
d="M134 365q13 -4 49 -4q9 0 16 1q11 0 34 4q25 4 52 15q22 7 32 13q19 8 31 15q-16 -58 -33 -94q-19 -34 -51 -76l5 -56q0 -30 -6 -57l-18 -64q-37 18 -84 35q-34 11 -68 19q-27 -43 -40 -75q-13 -30 -19 -67q50 17 97 28q45 9 98 15l-46 -119q-14 -36 -18 -61
q-6 -26 -9 -60q18 0 36 2q16 2 37 6q11 2 32 8q3 1 7 2l18 6q7 2 13 4q0 112 9 207q47 0 79 -7q40 -6 105 -31l44 126q-32 8 -55 8q-19 0 -26 -1q-6 -1 -13 -3q-5 -1 -6 -1q-6 -1 -27 -8q-7 -3 -13 -5q-10 -4 -14 -6l-66 -32l21 80q4 15 12 31l5 10q5 11 8 16q13 25 37 52
l-3 35q0 31 6 59q5 27 18 77q7 -3 13 -6q11 -5 27 -12q25 -13 46 -19q33 -11 74 -18q4 7 14 25l6 12q11 20 15 33q12 30 21 73q-59 -20 -106 -31q-21 -6 -46 -9q-20 -4 -45 -4l44 103q12 30 21 63q11 32 15 73q-3 0 -12 -3l-16 -4q-22 -7 -37 -8l-5 -1q-20 -3 -33 -4
q-26 -2 -39 -2l-2 -77q0 -21 -1 -27q0 -1 -1 -9l-3 -18l-11 -86q-12 0 -35 3q-18 1 -37 5q-13 1 -49 11q-14 3 -42 11l-19 5z" />
    <glyph glyph-name="circumflex" unicode="&#x2c6;" horiz-adv-x="333" 
d="M42 464q55 20 74 29q24 11 51 32l11 11q8 7 14 13q4 4 13 14q10 11 16 17q30 -53 56 -78q25 -24 68 -36l4 19q-21 28 -29 47q-10 20 -13 53q-4 25 -4 85l-105 -19q-33 -54 -68 -91q-35 -38 -83 -72z" />
    <glyph glyph-name="perthousand" unicode="&#x2030;" horiz-adv-x="1001" 
d="M44 -244h83l573 912q3 5 3 11q0 18 -16 18q-9 0 -46 -14l-78 -33l-55 -23q-96 -35 -161 -35q-19 0 -57 5q0 102 -38 102q-14 0 -24 -19t-10 -46q0 -21 8 -35q8 -15 25 -26q-7 -52 -26 -86q-18 -32 -38 -48q-21 -15 -32 -15q-19 0 -29 19q-11 20 -11 48q0 29 14 76
q8 25 18 43q14 26 23 39q18 27 18 36q0 14 -13 14q-15 0 -40 -16t-42 -36q-26 -28 -42 -72q-18 -45 -18 -80q0 -46 29 -78t72 -32q22 0 48 10q27 11 58 50q30 37 44 116q28 -4 41 -4q7 -1 22 -1q40 0 106 18q66 17 132 45zM1061 -32q0 102 -36 102q-15 0 -24 -19
q-10 -19 -10 -48q0 -23 8 -36t25 -23q-14 -75 -45 -112q-32 -38 -54 -38q-15 0 -26 17t-11 44q0 22 11 71q6 21 17 47q11 22 30 54q15 21 15 31q0 12 -14 12q-7 0 -26 -8q-6 -2 -16 -9q-6 -4 -7 -5q-7 -5 -9 -6q-37 -31 -59 -79q-23 -51 -23 -100t28 -78q29 -30 71 -30
q29 0 60 18q29 19 54 60q24 39 35 98q12 0 17 5q3 4 3 27zM725 -32q0 102 -36 102q-13 0 -23 -19q-11 -20 -11 -48q0 -23 8 -36t25 -23q-14 -75 -45 -112q-32 -38 -54 -38q-15 0 -26 17t-11 44q0 12 3 32q2 11 7 32l1 6q11 42 48 102q14 23 14 31q0 12 -14 12q-7 0 -26 -8
q-6 -2 -16 -9q-6 -4 -7 -5q-7 -5 -9 -6q-37 -31 -59 -79q-23 -51 -23 -100q0 -45 29 -77q28 -31 71 -31q12 0 30 5q14 4 29 14q29 17 56 59q23 41 33 98q12 0 17 5q3 4 3 27z" />
    <glyph glyph-name="Scaron" unicode="&#x160;" horiz-adv-x="563" 
d="M458 514q63 75 63 94q0 14 -19 33q-20 20 -59 38q-42 17 -89 17q-68 0 -115 -32q-48 -33 -71 -80q-23 -49 -23 -91q0 -59 28 -102q32 -49 83 -97q56 -52 78 -81q23 -29 23 -67q0 -25 -10 -45q-10 -22 -29 -39q-21 -17 -42 -26q-22 -9 -48 -9q-46 0 -70 22q-25 22 -31 47
q-8 26 -9 37l-1 6l-3 24q0 20 -7 30t-24 10q-5 -5 -6 -7q-10 -12 -28 -43q-30 -49 -30 -63q0 -12 23 -38q21 -24 66 -44t103 -20q66 0 124 30q60 31 94 81q34 49 34 108q0 29 -7 50q-7 22 -22 44q-30 42 -88 99q-58 56 -82 87q-26 35 -26 75q0 26 12 48q10 15 16 21t19 14
q21 12 47 12q27 0 51 -15q24 -16 37 -39q12 -23 17 -60l4 -20l8 -9h9zM270 931q22 -25 31 -50q5 -15 9 -29q2 -16 2 -26q3 -25 3 -67v-12l106 17q11 17 37 53q15 20 33 40q30 31 81 68l6 24q-52 -13 -92 -38q-28 -18 -44 -31q-17 -15 -44 -43q-30 51 -56 74q-30 27 -67 40z
" />
    <glyph glyph-name="guilsinglleft" unicode="&#x2039;" horiz-adv-x="281" 
d="M143 184q-9 29 -9 42q0 15 29 50l69 82l16 17l12 17q0 6 -34 28q-34 21 -42 21q-3 -2 -6 -5q-10 -10 -15 -16l-65 -80q-25 -28 -44 -59q-21 -31 -21 -44q0 -25 18 -75l31 -90q15 -41 21 -41l16 6l53 20q2 1 6 5l2 2q2 2 3 4l-4 15l-5 13z" />
    <glyph glyph-name="OE" unicode="&#x152;" horiz-adv-x="1042" 
d="M1053 164q-21 -26 -49 -52q-21 -20 -48 -34q-48 -27 -100 -27q-46 0 -80 19q-36 20 -55 53q-20 34 -20 75q0 37 17 72q16 33 47 55q29 20 63 20l34 -2l28 -2q6 0 14 26q8 27 8 35l-2 8l-13 1l-34 2q-15 2 -30 11q-15 8 -26 29q-11 20 -11 52q0 11 2 29q1 12 6 26
q9 26 24 48q15 21 35 33q20 11 38 11q63 0 63 -79q0 -36 15 -36q8 0 24 16q17 19 27 35q12 18 12 27q0 17 -16 33q-18 22 -46 34q-29 13 -69 13q-53 0 -107 -21q-55 -22 -89 -56q-24 -24 -34 -49q-12 -28 -12 -61l-21 -18l-26 -21l-29 -20l14 65q4 19 4 56q0 57 -23 92
q-22 33 -65 33q-30 0 -65 -20q-33 -18 -59 -51q-15 -18 -23 -33q-7 -14 -18 -40q-16 -38 -16 -81q0 -50 32 -82t78 -32q40 0 78 16q-27 -74 -70 -142t-93 -112q-49 -43 -94 -43q-31 0 -53 19q-23 19 -35 54t-12 81q0 53 13 109q13 62 37 119q24 59 60 114q37 55 82 96
q19 15 19 22q0 6 -18 6q-23 0 -50 -7q-30 -8 -54 -26q-43 -33 -95 -100q-28 -37 -50 -76t-42 -90q-39 -96 -39 -201q0 -59 20 -108q12 -25 24 -40q11 -15 31 -31q35 -26 82 -26q45 0 99 28q57 29 108 79q30 29 54 58q26 35 47 69q47 75 75 168q27 14 54 32q25 18 46 38
q17 -33 38 -51q23 -20 61 -33q-89 -18 -135 -55q-34 -25 -57 -68t-23 -85q0 -67 56 -123q56 -57 179 -57q63 0 114 17q47 16 79 42t65 59v56zM549 425q-22 -16 -52 -16q-26 0 -46 23t-20 56q0 30 13 69q12 42 34 69q22 28 48 28q24 0 37 -21q12 -21 12 -60q0 -29 -6 -62z
" />
    <glyph glyph-name="quoteleft" unicode="&#x2018;" horiz-adv-x="240" 
d="M220 698q-62 -20 -103 -49q-43 -30 -69 -69q-24 -39 -24 -77q0 -74 80 -116l48 59q30 30 30 37q-1 1 -1 2q-6 4 -10 6q-26 9 -40 26t-14 38q0 31 26 57q25 25 83 54z" />
    <glyph glyph-name="quoteright" unicode="&#x2019;" horiz-adv-x="240" 
d="M31 387q44 16 84 38q35 19 61 45q25 25 37 54q13 26 13 59q0 75 -78 115q-20 -28 -62 -73q-3 -4 -8 -10q-4 -5 -5 -7l-2 -3q-1 -2 -2 -3q4 -4 6 -5q4 -4 9 -5q50 -17 50 -61q0 -22 -10 -38t-34 -35q-26 -20 -66 -41z" />
    <glyph glyph-name="quotedblleft" unicode="&#x201c;" horiz-adv-x="479" 
d="M223 698q-30 -7 -74 -30t-83 -66t-39 -104q0 -64 79 -110q35 44 53 62q26 29 26 34q-2 2 -3 4q-2 3 -10 4q-52 19 -52 63q0 30 23 56q22 25 86 57zM463 698q-21 -6 -73 -31q-45 -22 -84 -67q-38 -44 -38 -102q0 -64 78 -109l19 23l19 24l15 15q26 26 26 33q-2 2 -3 4
q-2 2 -10 5q-52 19 -52 62q0 32 25 57q24 26 84 57z" />
    <glyph glyph-name="quotedblright" unicode="&#x201d;" horiz-adv-x="479" 
d="M270 387q77 26 120 60q44 33 60 69q16 35 16 65q0 75 -80 117l-23 -29l-22 -27l-12 -13l-14 -15l-7 -10q0 -8 17 -13q17 -4 33 -21q16 -16 16 -39q0 -32 -25 -57q-26 -26 -85 -55zM30 385q95 33 146 84q50 50 50 113q0 39 -18 66q-18 28 -63 50l-22 -27l-19 -25l-20 -24
l-16 -19q0 -8 18 -13q17 -4 33 -22q15 -18 15 -38q0 -22 -10 -39q-9 -17 -34 -35q-21 -15 -65 -39z" />
    <glyph glyph-name="bullet" unicode="&#x2022;" horiz-adv-x="350" 
d="M196 470q-38 0 -70 -18q-29 -19 -49 -51t-20 -71t20 -71q20 -33 50 -50q29 -19 69 -19q39 0 70 19q30 18 50 50q19 31 19 71t-19 71t-50 51q-31 18 -70 18z" />
    <glyph glyph-name="endash" unicode="&#x2013;" horiz-adv-x="1000" 
d="M-5 206h1010v89h-1010v-89z" />
    <glyph glyph-name="emdash" unicode="&#x2014;" horiz-adv-x="500" 
d="M-5 206h510v89h-510v-89z" />
    <glyph glyph-name="tilde" unicode="&#x2dc;" horiz-adv-x="333" 
d="M74 491q20 35 54 35q23 0 61 -20q26 -13 42 -18q17 -5 29 -5q37 0 62 21q26 21 51 72l-28 24q-20 -38 -55 -38q-13 0 -50 17q-48 24 -80 24q-75 0 -113 -95z" />
    <glyph glyph-name="trademark" unicode="&#x2122;" horiz-adv-x="682" 
d="M273 682h-2l-7 -3l-19 4q-13 6 -27 8l-27 3q-27 0 -53 -12t-46 -32q-19 -19 -30 -42q-11 -24 -11 -40q0 -11 8 -24q8 -12 18 -12l4 2l4 2q3 1 8 6q11 9 11 15q-1 1 -1 3q-1 2 -7 6q-19 13 -19 29q0 8 11 25q10 15 25 26q14 10 34 10q26 0 61 -13q21 -7 33 -7q15 0 24 12
q9 11 12 33zM81 408q-11 0 -18 4l-9 10l-4 13v16q0 16 -9 16l-9 -3l-12 -9l-9 -11l-4 -9q0 -7 8 -18t23 -18q16 -8 38 -8q21 0 39 7q16 5 26 11q6 4 19 15q19 16 31 43q6 13 11 32q3 15 3 33v26l1 34l4 19q0 6 -7 6l-11 -3l-13 -7l-10 -8q-9 -10 -14 -25t-5 -46l-2 -45
q-1 -17 -5 -26q-3 -13 -10 -20q-11 -14 -23 -21q-14 -8 -29 -8zM501 642q-7 -18 -12 -30l-9 -27q-4 -11 -9 -34q-4 -21 -6 -30l-5 -46q0 -30 11 -57q11 -26 35 -26q11 0 26 6q13 4 27 17l28 27v24q-15 -19 -25 -26q-12 -9 -22 -9q-12 0 -18 11q-7 10 -7 31q0 30 7 62
q4 25 7 40q6 24 9 35q9 34 20 62l6 20l-5 3l-18 -2l-19 -3l-1 -1q0 -1 -1 -1q-7 -4 -11 -8l-21 -24l-28 -46q-16 -30 -39 -93l-17 -44l-13 -25q10 41 10 118v57q0 37 4 58l1 9l-4 5l-23 -1q-2 0 -10 -3q-2 0 -3 -1l-23 -36l-14 -32l-13 -45l-5 -25l-14 -51l-14 -37l-14 -26
q-13 -19 -26 -19q-17 0 -17 23l-4 17q0 3 -6 4l-1 -1q-1 0 -2 -1q-4 -2 -7 -5l-16 -15q-6 -7 -6 -15q0 -9 6 -17q5 -8 14 -13q7 -4 19 -4q15 0 28 9q11 6 18 13q3 3 11 14q1 2 3 5l14 25l13 33l12 46l5 20l12 46q5 20 12 33q3 8 8 16t6 9q-1 -4 -7 -21l-1 -3q0 -1 -1 -3
q-2 -12 -3 -21l-1 -4q-3 -18 -4 -28q-2 -22 -2 -33l-1 -38l-1 -39l-3 -34l-6 -35l-1 -6l2 -3l6 -1l22 2q8 2 13 8q17 17 31 45l31 75l23 58l18 38l17 25l16 20z" />
    <glyph glyph-name="scaron" unicode="&#x161;" horiz-adv-x="406" 
d="M0 108h11q19 20 43 49q17 20 33 41q22 29 35 47q19 28 33 50l18 -44l27 -44q32 -50 32 -80q0 -22 -12 -42q-13 -21 -31 -32q-19 -13 -39 -13q-15 0 -26 11q-10 10 -19 40q-9 29 -25 29q-11 0 -38 -32q-28 -32 -28 -45q0 -12 14 -26q14 -13 33 -21q21 -8 41 -8
q48 0 100 31q53 33 86 83q34 50 34 99q0 18 -8 42q-6 19 -25 46q-26 38 -26 63q0 17 8 43q4 7 4 15l-5 4l-24 -3l-49 -9l-36 -8q-21 -60 -67 -126q-42 -61 -94 -116v-44zM132 649q22 -25 31 -50q5 -15 9 -29q2 -16 2 -26q3 -25 3 -67v-12l106 17q11 17 37 53q15 20 33 40
q30 31 81 68l6 24q-52 -13 -92 -38q-28 -18 -44 -31q-17 -15 -44 -43q-30 51 -56 74q-30 27 -67 40z" />
    <glyph glyph-name="guilsinglright" unicode="&#x203a;" horiz-adv-x="281" 
d="M238 186q22 28 22 46q0 15 -19 76q-20 64 -39 113q-2 5 -8 15l-1 2l-3 3q-14 0 -46 -16q-18 -8 -26 -13q-2 -1 -8 -5q0 -9 17 -51l24 -63q9 -31 9 -45q0 -13 -8 -24l-51 -66l-42 -48l-26 -31l8 -8q11 -9 25 -18q31 -22 44 -22l2 2l4 4z" />
    <glyph glyph-name="oe" unicode="&#x153;" horiz-adv-x="604" 
d="M616 165q-31 -32 -58 -53q-18 -12 -27 -17q-14 -9 -23 -12q-24 -8 -48 -8q-80 0 -98 92q125 33 169 77q43 43 43 88q0 25 -12 44q-14 20 -37 30q-27 11 -52 11q-51 0 -112 -43q0 42 -86 42q-73 0 -135 -36q-62 -38 -98 -99q-36 -63 -36 -138q0 -69 37 -112t94 -43
q31 0 63 17q32 18 65 55q45 -72 121 -72q53 0 106 28t124 93v56zM360 199q0 10 2 30q1 10 8 40q3 15 10 31q2 3 3 7q7 15 9 19q10 22 26 37q13 13 28 13q17 0 26 -12t9 -34q0 -46 -29 -78t-92 -53zM261 175q-8 -37 -8 -76q-12 -12 -18 -17q-9 -11 -16 -15q-14 -8 -28 -8
q-26 0 -43 27q-16 28 -16 78q0 45 14 99q14 53 43 86q29 35 77 35l27 -2q-75 -55 -75 -134q0 -52 43 -73z" />
    <glyph glyph-name="Ydieresis" unicode="&#x178;" horiz-adv-x="760" 
d="M735 586l26 106q0 7 -11 7l-16 -1l-39 -5l-35 -4q-14 0 -25 -7q-7 -4 -9 -15l-29 -94q-16 -48 -45 -124q-36 -97 -81 -189q-48 -95 -89 -147q-44 -56 -76 -56t-32 44t41 162q31 86 47 152q13 53 13 108q0 49 -17 91q-18 40 -50 63q-32 22 -75 22q-61 0 -110 -40
q-50 -41 -77 -101q-28 -59 -28 -112q0 -33 19 -61q18 -29 39 -29q19 0 39 26q19 25 19 40q0 7 -12 17q-33 29 -33 75q0 33 17 67t42 53q26 20 51 20q28 0 44 -22t16 -53q0 -53 -51 -199q-32 -88 -45 -148q-14 -64 -14 -99q0 -61 30 -99q30 -39 80 -39q70 0 130 70
q59 69 105 165l68 143l-28 -93l-16 -62l-25 -98l-19 -75l-11 -46q-207 -72 -207 -177q0 -34 23 -54t59 -20q37 0 78 19q41 18 90 75q49 56 86 165q64 21 111 46q42 23 68 55v56q-37 -45 -75 -69q-38 -25 -89 -42l24 90q3 11 7 25q12 48 21 87zM451 -44q-5 -20 -16 -53
q-9 -26 -18 -46q-19 -40 -38 -56q-20 -17 -42 -17q-19 0 -31 13q-13 12 -13 29q0 21 20 47q9 11 25 24q10 8 33 22q34 21 80 37zM380 900q-11 -40 -42 -89q41 -30 70 -30q54 0 65 80q-21 3 -41 11q-13 5 -52 28zM557 900q-15 -40 -45 -90q48 -30 75 -30t42 20q10 11 14 26
q5 15 5 33q-18 5 -42 14q-18 7 -49 27z" />
    <glyph glyph-name="exclamdown" unicode="&#xa1;" horiz-adv-x="323" 
d="M133 582l16 2q14 7 33 7q41 0 82 -41q15 61 42 103l6 10l-2 2q-6 6 -11 9l-34 15q-18 7 -39 7q-26 0 -42 -13q-17 -14 -23 -31zM165 487l2 -38q0 -26 -15 -58q-19 -35 -58 -96q-75 -118 -75 -213q0 -27 8 -61q8 -32 17 -32l14 3l21 8l30 13l37 18q7 4 7 12l-2 9
q-8 34 -8 69q0 31 9 65q7 32 27 82q34 84 34 130q0 12 -1 19q-2 14 -3 22q-2 9 -11 30l-16 28z" />
    <glyph glyph-name="cent" unicode="&#xa2;" horiz-adv-x="365" 
d="M227 414q-56 -11 -106 -53q-52 -44 -80 -102q-29 -59 -29 -120q0 -108 98 -143l-61 -218h23l59 212l29 -2q109 0 214 120v42h-6q-25 -28 -48 -45q-20 -18 -47 -26q-22 -9 -47 -9q-36 0 -65 26l77 270q16 -16 16 -41l-4 -30l-3 -24q0 -8 7 -8q8 0 28 10q48 21 56 29
q11 9 11 25q0 42 -25 64q-11 11 -31 20q-18 6 -42 6l69 246h-23zM143 117q-20 32 -20 87q0 35 10 69q11 38 32 65q22 29 51 34z" />
    <glyph glyph-name="sterling" unicode="&#xa3;" horiz-adv-x="635" 
d="M559 160h-10q-19 -33 -45 -47t-62 -14l-35 5l-83 15l-66 11q1 1 6 9q19 25 26 38l5 9q13 21 18 30q19 41 31 86h92q30 0 44 11q13 10 28 43q19 34 19 51q0 10 -12 10h-4l-1 -1q-2 -2 -3 -4q-23 -20 -49 -26q-35 -5 -64 -5q-21 0 -33 3l17 110q14 87 37 125q24 39 61 39
q31 0 38 -16q9 -20 11 -29q2 -18 2 -28q0 -32 16 -32q7 0 29 12q8 5 21 15q12 8 17 13q17 14 17 26q0 23 -27 48q-35 29 -103 29q-96 0 -152 -49q-58 -49 -82 -114q-24 -62 -40 -144q-47 0 -70 -3q-24 -3 -37 -16q-9 -9 -24 -40t-15 -47q0 -10 10 -10q8 0 14 8q11 12 27 21
q18 8 31 8l50 1q-11 -107 -39 -182q-48 0 -77 -10q-28 -9 -47 -28q-31 -29 -31 -57q0 -20 16 -33t40 -13q59 0 120 64l38 -10l45 -20q42 -19 66 -27q17 -5 25 -6q6 -1 25 -1q128 0 192 163z" />
    <glyph glyph-name="currency" unicode="&#xa4;" horiz-adv-x="688" 
d="M141 570l-51 -52l62 -62q-21 -30 -31 -62q-10 -30 -10 -68q0 -39 10 -66q10 -34 31 -64l-62 -62l52 -52l62 62q20 -12 34 -19q22 -10 32 -13q27 -10 65 -10q39 0 66 10q15 5 32 14q13 6 31 18l62 -62l52 52l-63 62q42 62 42 129q0 69 -42 130l63 63l-52 52l-62 -63
q-64 42 -130 42q-65 0 -130 -42zM184 326q0 40 21 76q20 35 55 55q34 19 74 19q16 0 31 -3q9 -2 27 -8q27 -12 48 -33t33 -48q11 -30 11 -58q0 -33 -10 -57q-11 -26 -32 -49q-23 -23 -50 -33q-28 -12 -58 -12q-62 0 -106 45q-44 44 -44 106z" />
    <glyph glyph-name="yen" unicode="&#xa5;" horiz-adv-x="680" 
d="M420 394q31 87 98 171q65 83 150 126l-82 2q-72 -44 -128 -106q-28 -32 -51 -73q-21 -35 -43 -88l1 37q0 115 -40 177q-40 61 -107 61q-47 0 -88 -31q-42 -28 -69 -78q-27 -48 -27 -96q0 -37 13 -63q13 -27 33 -27q21 0 41 22t20 34q0 7 -12 17q-33 29 -33 75q0 24 17 52
q17 26 45 42q26 16 58 16q37 0 59 -30q22 -29 31 -77q8 -50 8 -94l-1 -39l-4 -30l-133 -2v-36h128l-11 -39l-130 1v-36h121l-89 -293l120 24l71 269h144v36h-134l12 38l134 1l1 37h-123z" />
    <glyph glyph-name="brokenbar" unicode="&#xa6;" horiz-adv-x="546" 
d="M234 -175h78v350h-78v-350zM234 325h78v350h-78v-350z" />
    <glyph glyph-name="section" unicode="&#xa7;" 
d="M219 416q-74 -48 -105 -91q-32 -44 -32 -94q0 -31 12 -63q4 -15 15 -32q7 -13 23 -36q29 -40 68 -81q27 -27 45 -51q18 -28 26 -45q8 -22 8 -35q0 -31 -26 -54q-28 -23 -68 -23q-44 0 -73 24t-29 59l3 28l4 24q0 6 -8 12q-12 5 -19 5q-13 0 -30 -47q-18 -48 -18 -60
q0 -13 27 -32q11 -8 31 -19l1 -1q16 -9 35 -14q42 -15 76 -15q48 0 89 23t64 64q22 38 22 86q0 64 -42 116q57 33 98 74q40 40 40 104q0 51 -25 99q-14 27 -32 50q-19 26 -48 54q-28 28 -51 58q-19 25 -28 46t-9 38q0 22 13 39q12 17 33 28q20 10 47 10q44 0 69 -21
q26 -23 26 -57l-2 -22l-5 -28q0 -6 8 -11q8 -6 16 -6t12 6q3 3 7 11q3 4 6 14l13 33q12 35 12 42q0 5 -14 19q-12 11 -37 24q-24 11 -52 20q-34 8 -62 8q-49 0 -88 -21q-40 -21 -63 -60q-23 -40 -23 -86q0 -29 11 -57q12 -31 29 -56zM239 385l45 -52q50 -55 69 -87
q18 -31 18 -59q0 -30 -17 -53t-55 -43l-93 113l-4 6q-10 14 -12 18q-4 6 -13 21q-10 19 -10 39q0 23 20 51q19 27 52 46z" />
    <glyph glyph-name="dieresis" unicode="&#xa8;" horiz-adv-x="333" 
d="M131 618q-11 -40 -42 -89q40 -30 70 -30q54 0 65 80q-21 3 -41 11q-13 5 -52 28zM308 618q-15 -40 -45 -90q48 -30 75 -30t42 20q10 11 14 26q5 15 5 33q-18 5 -42 14q-18 7 -49 27z" />
    <glyph glyph-name="copyright" unicode="&#xa9;" horiz-adv-x="747" 
d="M373 692q-94 0 -173 -46t-126 -126t-47 -174t46 -173q47 -80 127 -126q80 -47 173 -47t175 47q80 47 126 126t46 173q0 95 -46 174q-46 80 -126 126q-79 46 -175 46zM373 649q81 0 151 -40q71 -41 111 -110q41 -71 41 -153q0 -81 -41 -152q-40 -70 -111 -111
q-70 -40 -151 -40q-60 0 -116 24q-58 24 -98 66q-42 43 -65 98q-23 57 -23 115q0 60 23 117q21 53 65 98q43 43 97 65q57 23 117 23zM518 555q-3 -25 -22 -25q-8 0 -23 6q-25 9 -33 12q-4 1 -9 2q-7 2 -12 3q-15 3 -23 3h-19q-47 0 -85 -16q-40 -16 -68 -44t-45 -69
q-17 -43 -17 -86q0 -87 59 -143t147 -56q96 0 155 62v35q-56 -68 -127 -68q-50 0 -86 39q-19 22 -29 57q-9 35 -9 87q0 84 33 130t93 46q31 0 56 -12q26 -13 42 -36q16 -22 22 -56h19v129h-19z" />
    <glyph glyph-name="ordfeminine" unicode="&#xaa;" horiz-adv-x="354" 
d="M415 522l-21 -20l-29 -27q-10 -7 -21 -7q-20 0 -20 28q0 12 14 70q15 60 37 130h-19l-68 -38q-14 38 -60 38q-33 0 -74 -27q-41 -29 -69 -73q-29 -47 -29 -94q0 -39 20 -68t51 -29q28 0 56 21q27 23 63 73q0 -36 9 -65t41 -29q4 0 12 2h2q6 2 15 6q16 7 32 20l31 28
l27 26v35zM234 670q14 0 23 -12q8 -13 8 -30q0 -25 -7 -49q-8 -27 -21 -53q-15 -28 -31 -42q-16 -16 -34 -16q-13 0 -22 12t-9 30q0 29 14 68q13 37 34 65q21 27 45 27z" />
    <glyph glyph-name="guillemotleft" unicode="&#xab;" horiz-adv-x="438" 
d="M170 441l-42 -48q-19 -24 -37 -46q-21 -25 -37 -48q-34 -46 -34 -58l16 -57l33 -103q6 -18 15 -37l6 -12l24 7l40 14q17 8 17 14l-5 18l-16 43l-19 60q-10 27 -10 37q0 15 27 52q27 35 56 64l30 32q4 5 10 15q2 2 3 6q0 9 -34 28t-43 19zM262 50q3 -10 9 -17q0 -1 1 -2
l23 7l40 16q8 3 12 7q4 3 7 7l-13 39l-26 71q-12 36 -12 49q0 16 22 41l64 72q41 47 41 53l-7 7q-13 13 -19 17q-27 18 -54 24l-54 -63q-37 -47 -64 -85q-29 -41 -29 -54l2 -14z" />
    <glyph glyph-name="logicalnot" unicode="&#xac;" horiz-adv-x="667" 
d="M66 350h458v-238h77v315h-535v-77z" />
    <glyph glyph-name="minus" unicode="&#xad;" horiz-adv-x="667" 
d="M66 229h535v79h-535v-79z" />
    <glyph glyph-name="minus" unicode="&#x2212;" horiz-adv-x="667" 
d="M66 229h535v79h-535v-79z" />
    <glyph glyph-name="registered" unicode="&#xae;" horiz-adv-x="747" 
d="M374 692q-95 0 -174 -46t-126 -126t-47 -174t46 -173q47 -80 127 -126q80 -47 174 -47t174 47t126 126t46 173q0 95 -46 174q-46 80 -126 126q-79 46 -174 46zM374 649q61 0 118 -23q54 -22 97 -65q43 -46 64 -98q23 -57 23 -117q0 -81 -41 -152q-40 -70 -110 -111
q-70 -40 -151 -40q-80 0 -151 41q-70 41 -111 111q-41 71 -41 151q0 81 41 152t111 111t151 40zM188 530q28 -3 36 -14t8 -50v-231q0 -40 -10 -53t-42 -13v-17h207v17q-37 0 -48 14q-11 11 -11 52v97h23l100 -180h118v17q-17 3 -28 14q-10 10 -23 34l-67 122q43 14 65 39
t22 62q0 46 -37 77q-19 17 -48 24q-30 6 -88 6h-177v-17zM328 526q46 0 77 -14q28 -15 28 -70q0 -38 -22 -62q-22 -25 -56 -25l-27 2v169z" />
    <glyph glyph-name="macron" unicode="&#xaf;" horiz-adv-x="333" 
d="M-41 511h327l10 89h-327z" />
    <glyph glyph-name="degree" unicode="&#xb0;" horiz-adv-x="400" 
d="M259 676q-36 0 -65 -13q-32 -13 -53 -35q-24 -23 -37 -55q-14 -34 -14 -66q0 -44 23 -84q22 -40 62 -62q40 -23 84 -23t85 23q38 21 62 61q22 37 22 85q0 37 -13 66q-13 30 -36 54q-24 23 -54 36q-29 13 -66 13zM259 612q43 0 74 -31t31 -74t-31 -73q-31 -31 -74 -31
t-74 31q-31 30 -31 73t31 74q30 31 74 31z" />
    <glyph glyph-name="plusminus" unicode="&#xb1;" horiz-adv-x="656" 
d="M86 386h228l-33 -228h77l33 228h230l11 77h-230l33 230h-77l-33 -230h-228zM29 -8h534l12 78h-535z" />
    <glyph glyph-name="twosuperior" unicode="&#xb2;" horiz-adv-x="616" 
d="M285 450q-2 9 -5 11l-11 10q-31 21 -31 54q0 24 13 46q14 23 35 34q21 12 44 12q18 0 46 -11q35 -12 55 -12q36 0 87 20q-61 -57 -97 -102q-17 -22 -31 -46q-12 -23 -25 -55q-22 -56 -38 -159q-9 -58 -21 -105q-13 -46 -40 -84q-27 -36 -70 -36q-30 0 -50 26t-20 69
q0 26 -3 36q-4 10 -18 10q-6 0 -27 -15q-21 -16 -37 -34q-17 -20 -17 -30q0 -19 20 -42q21 -24 56 -41q40 -17 90 -17q41 0 87 15q45 14 92 59q46 43 76 120q8 21 23 82q12 52 22 120l16 98l13 52q4 16 10 29q5 11 12 25q13 24 35 49q17 18 20 24q1 4 6 10q0 9 -12 16
q-14 8 -20 8q-7 0 -17 -7q-23 -17 -50 -17q-20 0 -55 12q-34 12 -58 12q-33 0 -73 -20q-40 -21 -69 -52q-28 -28 -50 -70q-20 -38 -20 -75q0 -33 17 -59q17 -27 35 -27q16 0 35 19q4 4 12 15l2 3q6 9 6 20zM256 750l192 143l94 -143h78l-128 200h-40l-270 -200h74z" />
    <glyph glyph-name="threesuperior" unicode="&#xb3;" horiz-adv-x="766" 
d="M771 164q-51 -56 -78 -77q-28 -24 -54 -24q-19 0 -33 20q-12 20 -12 51q0 18 11 79q3 18 7 38q4 18 6 28q5 26 15 65q17 75 39 159l27 103l23 83q0 7 -13 7l-70 -8q-33 -3 -38 -7q-7 -4 -15 -24q-23 -66 -31 -96q-14 -48 -21 -74l-51 -185q-1 -4 -7 -23l-6 -18
q-3 -9 -9 -28q-2 -4 -4 -10q-16 -42 -36 -78q-18 -35 -43 -60q-24 -24 -49 -24q-20 0 -31 15q-12 14 -12 39q0 16 6 41q5 26 15 54l19 56q32 94 45 146q13 53 13 108q0 49 -17 91q-16 40 -49 63q-32 22 -75 22q-38 0 -77 -21t-69 -57q-32 -35 -50 -80q-18 -46 -18 -91
q0 -34 18 -63t38 -29q16 0 39 23q21 23 21 40q0 8 -12 18q-33 30 -33 74q0 29 17 66q17 31 43 54q26 21 51 21q24 0 41 -20q16 -20 16 -56q0 -31 -15 -85q-20 -69 -35 -108q-31 -88 -45 -147q-15 -58 -15 -97q0 -67 32 -108t85 -41q45 0 83 26t63 61q25 32 48 77
q0 -42 4 -59l1 -3q4 -21 7 -28l12 -24q18 -24 40 -37q20 -13 47 -13q78 0 191 119v56zM332 748l192 143l94 -143h78l-128 200h-40l-270 -200h74z" />
    <glyph glyph-name="acute" unicode="&#xb4;" horiz-adv-x="944" 
d="M386 523q0 48 -18 88q-20 42 -53 64q-32 22 -72 22q-38 0 -77 -21q-19 -10 -38 -25q-21 -17 -32 -31q-31 -37 -48 -81q-17 -45 -17 -91q0 -31 11 -53q11 -21 25 -30q13 -10 21 -10q15 0 36 26t21 32q0 4 -14 24l-24 34q-9 17 -9 41q0 30 17 64q16 31 44 54q25 22 51 22
q25 0 41 -19t16 -48q0 -60 -53 -215q-29 -84 -42 -136q-14 -56 -14 -100q0 -65 32 -105q31 -40 88 -40q63 0 109 48q44 47 82 117q0 -69 20 -106q19 -37 46 -48t44 -11q55 0 120 50q64 49 122 133t93 185q36 102 36 202q0 32 -5 57q-4 15 -11 36l-6 12q-3 7 -5 11
q-12 21 -23 21q-8 0 -34 -12q-25 -12 -44 -28q-20 -17 -20 -32q0 -9 12 -32q21 -43 33 -90q11 -52 11 -90q0 -70 -24 -132q-23 -60 -59 -112q-35 -48 -73 -77t-61 -29q-22 0 -34 18q-13 16 -13 48q0 65 39 219l66 255l23 86q-1 7 -4 7l-15 1l-60 -5q-43 -4 -46 -11
q-19 -42 -29 -73q-5 -16 -10 -29q-5 -15 -7 -23q-6 -19 -15 -54l-46 -172q-21 -81 -49 -146q-27 -61 -55 -91q-28 -31 -57 -31q-19 0 -31 14t-12 36q0 24 11 68l32 103l33 100q11 37 19 77q2 11 4 32q1 8 1 11v21zM494 744l15 5l24 8q15 5 34 15q26 13 52 33l11 11
q8 7 14 13q4 4 13 14q10 11 16 17q32 -54 57 -78q26 -24 67 -36l4 19q-21 28 -29 47q-10 20 -13 53q-4 25 -4 85l-105 -19q-34 -55 -68 -92q-19 -19 -40 -37q-20 -19 -43 -34z" />
    <glyph glyph-name="mu" unicode="&#xb5;" horiz-adv-x="768" 
d="M735 586l26 106q0 7 -11 7l-16 -1l-39 -5l-35 -4q-14 0 -25 -7q-7 -4 -9 -15l-29 -94q-16 -48 -45 -124q-36 -97 -81 -189q-48 -95 -89 -147q-44 -56 -76 -56t-32 44t41 162q31 86 47 152q13 53 13 108q0 49 -17 91q-18 40 -50 63q-32 22 -75 22q-61 0 -110 -40
q-50 -41 -77 -101q-28 -59 -28 -112q0 -33 19 -61q18 -29 39 -29q19 0 39 26q19 25 19 40q0 7 -12 17q-33 29 -33 75q0 33 17 67t42 53q26 20 51 20q28 0 44 -22t16 -53q0 -53 -51 -199q-32 -88 -45 -148q-14 -64 -14 -99q0 -61 30 -99q30 -39 80 -39q70 0 130 70
q59 69 105 165l68 143l-28 -93l-16 -62l-25 -98l-19 -75l-11 -46q-207 -72 -207 -177q0 -34 23 -54t59 -20q37 0 78 19q41 18 90 75q49 56 86 165q64 21 111 46q42 23 68 55v56q-37 -45 -75 -69q-38 -25 -89 -42l24 90q3 11 7 25q12 48 21 87zM451 -44q-5 -20 -16 -53
q-9 -26 -18 -46q-19 -40 -38 -56q-20 -17 -42 -17q-19 0 -31 13q-13 12 -13 29q0 21 20 47q9 11 25 24q10 8 33 22q34 21 80 37zM342 748q55 20 73 28q18 10 27 16q12 8 24 18q21 17 55 54q32 -55 57 -77q24 -23 67 -37l4 19q-21 28 -28 45q-10 21 -11 32q-4 17 -5 34
q-2 26 -2 74l-105 -19q-22 -34 -34 -50q-21 -28 -34 -41q-35 -38 -83 -72z" />
    <glyph glyph-name="paragraph" unicode="&#xb6;" horiz-adv-x="450" 
d="M343 166q-13 -14 -34 -35q-18 -18 -25 -23q-19 -16 -40 -16q-11 0 -18 10t-7 26t8 53q3 19 9 37l5 15q7 22 9 30l48 153h-6l-124 -26q-11 -28 -21 -59q-15 -42 -28 -91q-21 -70 -21 -138q0 -47 21 -79q21 -33 53 -33q56 0 171 120v56zM84 467l192 143l94 -143h78
l-128 201h-40l-270 -201h74z" />
    <glyph glyph-name="periodcentered" unicode="&#xb7;" horiz-adv-x="524" 
d="M268 180q-7 -28 -45 -70q-39 -43 -65 -43q-16 0 -25 13q-10 13 -10 34q0 33 16 91l36 126l28 83l-130 -26q-68 -187 -68 -286q0 -52 22 -83t60 -31q39 0 80 26q39 25 99 89q0 -50 20 -82t60 -32q24 0 50 13q27 13 56 36q6 5 15 12q15 12 22 19q13 10 43 39v56l-10 -9
l-10 -10l-38 -36q-23 -19 -34 -24q-12 -6 -24 -6q-15 0 -22 13q-9 14 -9 33q0 10 1 17q2 12 3 17l17 63l25 84l34 109l-133 -27zM134 465l192 143l94 -143h78l-128 201h-40l-270 -201h74z" />
    <glyph glyph-name="periodcentered" unicode="&#x2219;" horiz-adv-x="524" 
d="M268 180q-7 -28 -45 -70q-39 -43 -65 -43q-16 0 -25 13q-10 13 -10 34q0 33 16 91l36 126l28 83l-130 -26q-68 -187 -68 -286q0 -52 22 -83t60 -31q39 0 80 26q39 25 99 89q0 -50 20 -82t60 -32q24 0 50 13q27 13 56 36q6 5 15 12q15 12 22 19q13 10 43 39v56l-10 -9
l-10 -10l-38 -36q-23 -19 -34 -24q-12 -6 -24 -6q-15 0 -22 13q-9 14 -9 33q0 10 1 17q2 12 3 17l17 63l25 84l34 109l-133 -27zM134 465l192 143l94 -143h78l-128 201h-40l-270 -201h74z" />
    <glyph glyph-name="cedilla" unicode="&#xb8;" horiz-adv-x="678" 
d="M205 415l-129 -24q-37 -99 -54 -162q-16 -61 -16 -118q0 -58 29 -90t77 -32q75 0 141 76q30 -76 99 -76q51 0 97 30q45 30 86 80q14 -11 35 -20q15 -7 35 -7q22 0 42 10q21 9 41 26v56q-50 -53 -82 -53q-26 0 -52 23q41 64 60 124q20 63 20 109q0 48 -32 48
q-28 0 -57 -26q-28 -25 -45 -70q-17 -46 -17 -90q0 -21 1 -26l1 -4q2 -11 4 -20q6 -20 20 -48l-40 -47q-15 -15 -29 -22q-16 -8 -32 -8q-21 0 -33 17q-13 16 -13 46q0 48 26 129l55 169l-131 -24l-40 -118q-17 -50 -22 -89q-5 -40 -5 -47q-1 -7 -1 -23q-39 -61 -78 -61
q-19 0 -31 17t-12 41q0 56 46 195zM222 462q55 20 74 29q24 11 51 32l11 11q8 7 14 13q4 4 13 14q10 11 16 17q32 -54 57 -78q26 -24 67 -36l4 19q-21 28 -29 47q-10 20 -13 53q-4 25 -4 85l-105 -19q-33 -54 -68 -91q-35 -38 -83 -72z" />
    <glyph glyph-name="onesuperior" unicode="&#xb9;" horiz-adv-x="520" 
d="M37 266q-15 -35 -23 -82q-9 -43 -9 -76q0 -49 23 -81t61 -32q39 0 77 25q40 27 85 78l-30 -105q-9 -4 -35 -17q-33 -17 -48 -27q-35 -22 -55 -45q-21 -24 -29 -43q-9 -21 -9 -42q0 -32 19 -51t50 -19q83 0 147 87q40 56 73 149l84 42q30 15 61 37l53 44v56
q-45 -48 -80 -73l-7 -5q-24 -15 -38 -23q-27 -15 -58 -30l15 47l96 289l16 46l-133 -25l-56 -153q-16 -45 -40 -85q-15 -24 -25 -36q-13 -17 -24 -26q-25 -22 -45 -22q-30 0 -30 44q0 30 15 78q14 50 27 80l61 145l-142 -25zM207 -55q-20 -78 -45 -118q-26 -41 -52 -41
q-13 0 -20 10q-8 11 -8 23q0 32 33 67q36 35 92 59zM154 468l15 5l24 8q15 5 34 15q27 14 51 33q16 14 26 24q7 7 19 20q8 9 10 11q30 -53 56 -78q25 -24 68 -36l4 19q-21 28 -29 46q-10 21 -14 54q-3 32 -3 85l-105 -19q-14 -23 -33 -49q-22 -29 -35 -43q-19 -19 -40 -37
q-20 -19 -43 -34z" />
    <glyph glyph-name="ordmasculine" unicode="&#xba;" horiz-adv-x="302" 
d="M359 523q-26 -38 -55 -38q-20 0 -39 16q35 85 35 151q0 22 -11 33t-53 11q-50 0 -90 -25q-41 -25 -64 -68q-25 -40 -25 -92q0 -48 24 -77q23 -29 63 -29q61 0 110 72q3 -2 6 -3q12 -7 15 -8q2 -1 4 -1l4 -2l22 -3q32 0 54 27v36zM248 674q-14 -14 -22 -24q-4 -5 -13 -21
q-10 -19 -10 -49q0 -40 30 -85q-25 -43 -50 -43q-18 0 -29 20t-11 50q0 23 8 61q8 35 31 63q22 28 66 28z" />
    <glyph glyph-name="guillemotright" unicode="&#xbb;" horiz-adv-x="438" 
d="M332 246q0 -15 -26 -47l-65 -75q-19 -20 -30 -35q-3 -3 -9 -13q3 -3 9 -7q12 -10 27 -17q36 -21 43 -21q3 1 6 4q3 5 12 17q1 2 6 8q12 17 24 30l48 56l39 48q16 22 16 33q0 22 -31 118t-41 96q-8 0 -45 -14q-12 -5 -26 -14q-1 0 -3 -2q-3 -1 -6 -3q3 -15 10 -31
q6 -20 10 -29q32 -82 32 -102zM147 249q0 -15 -12 -32l-64 -75l-35 -40q-11 -10 -12 -15l-2 -4l-2 -4l3 -2q5 -4 6 -5q15 -13 25 -19q31 -22 43 -22q3 1 6 4q17 24 58 71q30 34 65 80l2 2q21 29 21 48q0 10 -14 61q-13 49 -32 97q-18 47 -26 47q-9 0 -44 -15t-36 -19
q2 -15 14 -40q3 -7 7 -16t7 -16q7 -19 11 -34q11 -41 11 -52z" />
    <glyph glyph-name="onequarter" unicode="&#xbc;" horiz-adv-x="742" 
d="M523 -111q0 -10 15 -10q36 0 49 4q15 3 21 11l11 28l22 74l51 2q13 0 17 9q6 8 14 40l-2 4l-6 2l-9 -2q-9 -2 -25 -4q-9 -1 -27 -1l9 34l7 29l6 22l30 112l8 42q0 7 -14 7q-30 0 -50 -14q-51 -35 -98 -89q-52 -60 -80 -104q-32 -50 -32 -62v-16q1 -1 2 -1l1 -1t2 -1l2 -2
l34 -2l81 -2zM469 38q8 15 24 40l4 6q10 15 32 43q15 20 33 40q10 12 30 34q18 18 25 24q11 9 17 13l-31 -109l-29 -89zM145 -116h51l431 811h-49zM184 547l-10 -39l-9 -28l-38 -120l-6 -18l-12 -34l-7 -23q2 -2 4 -3q4 -2 11 -2q31 0 46 3q13 3 20 8q5 5 8 12q8 18 35 120
l65 247l3 17q0 7 -13 7q-23 0 -38 -5q-13 -4 -37 -25q-34 -30 -60 -59q-27 -31 -27 -43q4 -2 5 -3q2 -2 11 -5l5 7q9 15 14 22q9 12 22 25q24 28 33 29z" />
    <glyph glyph-name="onehalf" unicode="&#xbd;" horiz-adv-x="741" 
d="M676 -20q-9 -21 -19 -28t-31 -7l-38 3l-41 3q-29 0 -64 -9q15 19 39 39l1 1q16 14 27 21q3 2 39 27q66 45 101 80q34 34 34 85q0 42 -29 69q-28 27 -75 27q-34 0 -69 -18q-35 -20 -56 -48q-21 -30 -21 -62q0 -13 8 -24t18 -11q9 0 33 11q22 10 22 18q0 7 -10 14
q-18 15 -18 33q0 22 17 40t42 18q24 0 40 -18q15 -18 15 -48q0 -42 -24 -81q-26 -39 -84 -91q-95 -86 -95 -137q0 -3 4 -7l23 3l31 3l57 -3l46 -4q39 0 58 18q18 19 35 77zM136 -116h51l431 811h-49zM165 479l-38 -119l-8 -24l-10 -26q-7 -17 -7 -25q2 -2 4 -3q4 -2 11 -2
q31 0 46 3q13 3 20 8q5 5 8 12q8 18 35 120l65 247l3 17q0 7 -13 7q-23 0 -38 -5q-13 -4 -37 -25q-30 -25 -59 -58q-28 -32 -28 -44q4 -2 5 -3q2 -2 11 -5q20 32 42 55q23 27 32 28z" />
    <glyph glyph-name="threequarters" unicode="&#xbe;" horiz-adv-x="730" 
d="M511 -111q0 -7 4 -8l11 -2q37 0 49 4q15 3 21 11l11 28l22 74l51 2q12 0 18 9q7 13 13 40l-3 4l-5 2l-9 -2q-4 -1 -15 -3q-2 0 -5 -1q-5 -1 -32 -1l22 85l22 81l12 51l4 22q0 7 -14 7q-33 0 -50 -14q-50 -36 -97 -90q-50 -58 -80 -103q-33 -49 -33 -62v-16q1 -1 2 -1
l1 -1t2 -1l2 -2l34 -2l81 -2zM457 38q34 63 89 125q51 60 76 75q-31 -111 -60 -198zM151 -116h51l431 811h-49zM163 478q22 0 37 -19q14 -20 14 -51q0 -22 -7 -44q-8 -26 -23 -44q-17 -20 -45 -20q-24 0 -38 13q-15 14 -15 33q0 17 8 35l3 11q0 11 -8 11q-4 0 -15 -3
q-5 -1 -11 -4q-8 -2 -14 -4q-17 -8 -20 -14q-5 -8 -5 -19q0 -35 29 -58q30 -21 79 -21q45 0 84 17q38 17 56 44q20 29 20 64t-18 57q-18 23 -60 42q53 18 77 42q23 23 23 58q0 40 -28 65q-28 24 -77 24q-52 0 -92 -31q-41 -32 -41 -72q0 -10 5 -18q5 -9 10 -9q10 0 29 10
t19 19l-4 16l-5 14q0 20 17 34q16 13 38 13q26 0 43 -17q15 -18 15 -46q0 -39 -21 -68q-23 -29 -60 -29q-17 0 -22 -3q-5 -5 -5 -20q0 -10 8 -10z" />
    <glyph glyph-name="questiondown" unicode="&#xbf;" horiz-adv-x="438" 
d="M233 582l14 2q17 6 33 6q26 0 46 -10q22 -11 38 -30q11 32 21 57q5 13 18 36l4 7q2 2 4 7l1 1q0 3 1 5q-1 1 -1 2l-5 5q-3 2 -5 4q-11 8 -28 15q-18 7 -40 7q-25 0 -42 -9q-15 -10 -28 -33q-7 -13 -15 -30q-5 -12 -16 -42zM235 46q-38 0 -64 30q-25 28 -25 79t25 92
q26 43 84 86q39 29 53 51t14 45q0 16 -8 42q-9 24 -19 24q-14 0 -14 -9l1 -7l1 -9q0 -20 -16 -38q-15 -17 -60 -43q-37 -23 -58 -39q-22 -16 -46 -38q-43 -43 -62 -82q-20 -41 -20 -84q0 -45 20 -82t56 -57q39 -20 82 -20q56 0 106 29q52 27 82 70q31 43 31 92q0 31 -13 53
q-14 23 -31 23q-10 0 -29 -10t-37 -25q-17 -14 -17 -21q0 -8 29 -11q28 -3 28 -53q0 -38 -26 -63q-25 -25 -67 -25z" />
    <glyph glyph-name="Agrave" unicode="&#xc0;" horiz-adv-x="677" 
d="M688 164q-71 -83 -122 -83q-29 0 -44 22q-16 20 -16 60q0 55 19 132q14 54 23 81l3 10q17 49 26 72q17 41 33 75q12 24 34 58l12 15l21 28v32q-27 10 -46 14q-30 6 -47 9q-41 7 -107 7q-130 0 -222 -53q-89 -51 -143 -134q-53 -82 -74 -164t-21 -147q0 -62 18 -110
q17 -48 53 -74q35 -26 76 -26q26 0 47 7q25 9 44 23q26 19 52 45q22 22 59 66q0 -31 9 -57q8 -26 23 -46q30 -38 84 -38q49 0 98 30q50 29 108 90v56zM369 196q-25 -37 -49 -61q-23 -23 -43 -34q-19 -10 -40 -10q-34 0 -55 35t-21 89q0 57 19 130q18 75 54 147q16 33 41 66
q21 27 50 53q56 47 124 47q27 0 52 -6q24 -6 45 -18q-145 -160 -177 -438zM444 758q-34 54 -49 90q-18 45 -25 87l-113 -19q31 -60 65 -94q39 -40 99 -77z" />
    <glyph glyph-name="Aacute" unicode="&#xc1;" horiz-adv-x="677" 
d="M688 164q-71 -83 -122 -83q-29 0 -44 22q-16 20 -16 60q0 55 19 132q14 54 23 81l3 10q17 49 26 72q17 41 33 75q12 24 34 58l12 15l21 28v32q-27 10 -46 14q-30 6 -47 9q-41 7 -107 7q-130 0 -222 -53q-89 -51 -143 -134q-53 -82 -74 -164t-21 -147q0 -62 18 -110
q17 -48 53 -74q35 -26 76 -26q26 0 47 7q25 9 44 23q26 19 52 45q22 22 59 66q0 -31 9 -57q8 -26 23 -46q30 -38 84 -38q49 0 98 30q50 29 108 90v56zM369 196q-25 -37 -49 -61q-23 -23 -43 -34q-19 -10 -40 -10q-34 0 -55 35t-21 89q0 57 19 130q18 75 54 147q16 33 41 66
q21 27 50 53q56 47 124 47q27 0 52 -6q24 -6 45 -18q-145 -160 -177 -438zM447 749l76 46q32 23 53 44q12 12 20 24q10 13 14 20q13 23 19 48l-112 -12q-14 -38 -37 -75q-24 -36 -63 -85z" />
    <glyph glyph-name="Acircumflex" unicode="&#xc2;" horiz-adv-x="677" 
d="M688 164q-71 -83 -122 -83q-29 0 -44 22q-16 20 -16 60q0 55 19 132q14 54 23 81l3 10q17 49 26 72q17 41 33 75q12 24 34 58l12 15l21 28v32q-27 10 -46 14q-30 6 -47 9q-41 7 -107 7q-130 0 -222 -53q-89 -51 -143 -134q-53 -82 -74 -164t-21 -147q0 -62 18 -110
q17 -48 53 -74q35 -26 76 -26q26 0 47 7q25 9 44 23q26 19 52 45q22 22 59 66q0 -31 9 -57q8 -26 23 -46q30 -38 84 -38q49 0 98 30q50 29 108 90v56zM369 196q-25 -37 -49 -61q-23 -23 -43 -34q-19 -10 -40 -10q-34 0 -55 35t-21 89q0 57 19 130q18 75 54 147q16 33 41 66
q21 27 50 53q56 47 124 47q27 0 52 -6q24 -6 45 -18q-145 -160 -177 -438zM274 746q55 20 74 29q24 11 51 32l11 11q8 7 14 13q4 4 13 14q10 11 16 17q30 -53 56 -78q25 -24 68 -36l4 19q-21 28 -29 47q-10 20 -13 53q-4 25 -4 85l-105 -19q-33 -54 -68 -91q-35 -38 -83 -72
z" />
    <glyph glyph-name="Atilde" unicode="&#xc3;" horiz-adv-x="677" 
d="M688 164q-71 -83 -122 -83q-29 0 -44 22q-16 20 -16 60q0 55 19 132q14 54 23 81l3 10q17 49 26 72q17 41 33 75q12 24 34 58l12 15l21 28v32q-27 10 -46 14q-30 6 -47 9q-41 7 -107 7q-130 0 -222 -53q-89 -51 -143 -134q-53 -82 -74 -164t-21 -147q0 -62 18 -110
q17 -48 53 -74q35 -26 76 -26q26 0 47 7q25 9 44 23q26 19 52 45q22 22 59 66q0 -31 9 -57q8 -26 23 -46q30 -38 84 -38q49 0 98 30q50 29 108 90v56zM369 196q-25 -37 -49 -61q-23 -23 -43 -34q-19 -10 -40 -10q-34 0 -55 35t-21 89q0 57 19 130q18 75 54 147q16 33 41 66
q21 27 50 53q56 47 124 47q27 0 52 -6q24 -6 45 -18q-145 -160 -177 -438zM321 773q20 35 54 35q23 0 61 -20q26 -13 42 -18q17 -5 29 -5q37 0 62 21q26 21 51 72l-28 24q-20 -38 -55 -38q-13 0 -50 17q-48 24 -80 24q-75 0 -113 -95z" />
    <glyph glyph-name="Adieresis" unicode="&#xc4;" horiz-adv-x="677" 
d="M688 164q-71 -83 -122 -83q-29 0 -44 22q-16 20 -16 60q0 55 19 132q14 54 23 81l3 10q17 49 26 72q17 41 33 75q12 24 34 58l12 15l21 28v32q-27 10 -46 14q-30 6 -47 9q-41 7 -107 7q-130 0 -222 -53q-89 -51 -143 -134q-53 -82 -74 -164t-21 -147q0 -62 18 -110
q17 -48 53 -74q35 -26 76 -26q26 0 47 7q25 9 44 23q26 19 52 45q22 22 59 66q0 -31 9 -57q8 -26 23 -46q30 -38 84 -38q49 0 98 30q50 29 108 90v56zM369 196q-25 -37 -49 -61q-23 -23 -43 -34q-19 -10 -40 -10q-34 0 -55 35t-21 89q0 57 19 130q18 75 54 147q16 33 41 66
q21 27 50 53q56 47 124 47q27 0 52 -6q24 -6 45 -18q-145 -160 -177 -438zM333 900q-11 -40 -42 -89q41 -30 70 -30q54 0 65 80q-21 3 -41 11q-13 5 -52 28zM510 900q-15 -40 -45 -90q48 -30 75 -30t42 20q10 11 14 26q5 15 5 33q-18 5 -42 14q-18 7 -49 27z" />
    <glyph glyph-name="Aring" unicode="&#xc5;" horiz-adv-x="677" 
d="M688 164q-71 -83 -122 -83q-29 0 -44 22q-16 20 -16 60q0 55 19 132q14 54 23 81l3 10q17 49 26 72q17 41 33 75q12 24 34 58l12 15l21 28v32q-27 10 -46 14q-30 6 -47 9q-41 7 -107 7q-130 0 -222 -53q-89 -51 -143 -134q-53 -82 -74 -164t-21 -147q0 -62 18 -110
q17 -48 53 -74q35 -26 76 -26q26 0 47 7q25 9 44 23q26 19 52 45q22 22 59 66q0 -31 9 -57q8 -26 23 -46q30 -38 84 -38q49 0 98 30q50 29 108 90v56zM369 196q-25 -37 -49 -61q-23 -23 -43 -34q-19 -10 -40 -10q-34 0 -55 35t-21 89q0 57 19 130q18 75 54 147q16 33 41 66
q21 27 50 53q56 47 124 47q27 0 52 -6q24 -6 45 -18q-145 -160 -177 -438zM467 933q-37 0 -63 -27q-27 -28 -27 -64q0 -39 27 -66t65 -27t65 27t27 66q0 27 -13 46q-12 21 -34 33t-47 12zM470 898q24 0 40 -16t16 -40q0 -23 -17 -40t-40 -17q-22 0 -39 17t-17 40t17 40
q16 16 40 16z" />
    <glyph glyph-name="AE" unicode="&#xc6;" horiz-adv-x="854" 
d="M865 164q-43 -54 -94 -84q-50 -29 -102 -29q-45 0 -80 20q-34 20 -54 54q-20 35 -20 79q0 41 17 75q16 31 46 50q29 17 67 17l26 -2l26 -2q8 0 17 29q8 30 8 41q0 7 -6 7l-9 -1l-12 -1q-41 0 -67 23q-24 24 -24 65t15 78q15 34 41 57q26 21 53 21q52 0 65 -81
q7 -40 19 -40q9 0 24 15q16 18 26 34q11 20 11 29q0 11 -13 30q-10 14 -17 19t-29 16q-30 16 -84 16q-31 0 -46 -4l-50 -16l-68 15q-20 4 -35 4h-31q-120 0 -206 -49q-90 -50 -141 -125q-55 -77 -80 -164q-26 -89 -26 -161q0 -61 19 -109q18 -49 52 -74q33 -27 75 -27
q21 0 41 7q21 6 44 21q29 19 57 47q25 27 56 74l20 -44q8 -15 27 -35q64 -70 182 -70q56 0 99 12q28 10 42 16q14 5 33 16q32 20 48 36l38 39v56zM549 643q-74 -56 -74 -132q0 -28 11 -52q10 -22 34 -43q13 -11 31 -21q24 -14 35 -19q-25 -4 -46 -9q-17 -4 -37 -13
q-37 -17 -59 -39q-23 -23 -36 -43l-33 -58q-25 -51 -54 -87q-28 -36 -69 -36q-33 0 -56 32t-23 82q0 53 18 129q17 77 54 152q36 76 93 125q58 50 130 50q44 0 81 -18z" />
    <glyph glyph-name="Ccedilla" unicode="&#xc7;" horiz-adv-x="563" 
d="M189 -218q60 0 94 7q36 6 72 30q46 31 46 76q0 60 -65 72l22 26q53 8 95 27q23 11 39 21q18 10 29 18q9 8 26 23q3 3 11 10l16 16v56q-52 -59 -97 -84q-43 -25 -99 -25q-88 0 -147 66q-58 64 -58 167q0 57 20 126t51 122q34 56 71 88q40 35 75 35q31 0 51 -23
q18 -24 18 -65q0 -38 -15 -74q-18 -37 -42 -60q-25 -22 -49 -22q-26 0 -43 29q-21 -22 -21 -49q0 -31 25 -50q26 -20 62 -20q49 0 89 30t66 80q25 49 25 108q0 44 -19 79t-56 55q-36 19 -85 19q-65 0 -127 -34q-64 -34 -120 -96q-58 -65 -88 -145q-33 -82 -33 -171
q0 -76 33 -135q33 -58 96 -93q61 -34 146 -34l-1 -1q-10 -13 -21 -24q-5 -5 -9 -10q-22 -23 -27 -28q26 0 39 -12q14 -12 14 -33q0 -59 -102 -59z" />
    <glyph glyph-name="Egrave" unicode="&#xc8;" 
d="M532 164q-45 -55 -99 -84q-56 -29 -110 -29q-44 0 -79 20q-34 20 -54 54q-20 35 -20 76q0 37 17 72q17 34 45 53q29 20 64 20l21 -1l22 -2l18 -2q12 0 19 22q7 21 7 41q0 8 -6 9l-20 1q-56 0 -74 28q-18 27 -18 66q0 40 16 73q15 34 41 57q26 21 52 21q53 0 67 -83
q4 -37 19 -37q8 0 22 16q16 16 27 34q11 19 11 26q0 9 -10 28q-10 20 -42 36q-32 17 -86 17q-48 0 -95 -14q-45 -15 -78 -39q-33 -26 -52 -59q-20 -35 -20 -72q0 -95 104 -133q-49 -10 -88 -26l-9 -5q-18 -9 -25 -14q-3 -2 -8 -6q-14 -11 -20 -16q-62 -56 -62 -137
q0 -53 29 -97q28 -43 83 -66q54 -23 121 -23q53 0 98 12t87 39q4 3 6 4q25 18 37 27q25 20 42 37v56zM361 758q-34 54 -49 90q-18 45 -25 87l-113 -19q31 -60 65 -94q39 -40 99 -77z" />
    <glyph glyph-name="Eacute" unicode="&#xc9;" 
d="M532 164q-45 -55 -99 -84q-56 -29 -110 -29q-44 0 -79 20q-34 20 -54 54q-20 35 -20 76q0 37 17 72q17 34 45 53q29 20 64 20l21 -1l22 -2l18 -2q12 0 19 22q7 21 7 41q0 8 -6 9l-20 1q-56 0 -74 28q-18 27 -18 66q0 40 16 73q15 34 41 57q26 21 52 21q53 0 67 -83
q4 -37 19 -37q8 0 22 16q16 16 27 34q11 19 11 26q0 9 -10 28q-10 20 -42 36q-32 17 -86 17q-48 0 -95 -14q-45 -15 -78 -39q-33 -26 -52 -59q-20 -35 -20 -72q0 -95 104 -133q-49 -10 -88 -26l-9 -5q-18 -9 -25 -14q-3 -2 -8 -6q-14 -11 -20 -16q-62 -56 -62 -137
q0 -53 29 -97q28 -43 83 -66q54 -23 121 -23q53 0 98 12t87 39q4 3 6 4q25 18 37 27q25 20 42 37v56zM339 749l76 46q32 23 53 44q12 12 20 24q10 13 14 20q13 23 19 48l-112 -12q-14 -38 -37 -75q-24 -36 -63 -85z" />
    <glyph glyph-name="Ecircumflex" unicode="&#xca;" 
d="M532 164q-45 -55 -99 -84q-56 -29 -110 -29q-44 0 -79 20q-34 20 -54 54q-20 35 -20 76q0 37 17 72q17 34 45 53q29 20 64 20l21 -1l22 -2l18 -2q12 0 19 22q7 21 7 41q0 8 -6 9l-20 1q-56 0 -74 28q-18 27 -18 66q0 40 16 73q15 34 41 57q26 21 52 21q53 0 67 -83
q4 -37 19 -37q8 0 22 16q16 16 27 34q11 19 11 26q0 9 -10 28q-10 20 -42 36q-32 17 -86 17q-48 0 -95 -14q-45 -15 -78 -39q-33 -26 -52 -59q-20 -35 -20 -72q0 -95 104 -133q-49 -10 -88 -26l-9 -5q-18 -9 -25 -14q-3 -2 -8 -6q-14 -11 -20 -16q-62 -56 -62 -137
q0 -53 29 -97q28 -43 83 -66q54 -23 121 -23q53 0 98 12t87 39q4 3 6 4q25 18 37 27q25 20 42 37v56zM196 746q55 20 74 29q24 11 51 32l11 11q8 7 14 13q4 4 13 14q10 11 16 17q30 -53 56 -78q25 -24 68 -36l4 19q-21 28 -29 47q-10 20 -13 53q-4 25 -4 85l-105 -19
q-33 -54 -68 -91q-35 -38 -83 -72z" />
    <glyph glyph-name="Edieresis" unicode="&#xcb;" 
d="M532 164q-45 -55 -99 -84q-56 -29 -110 -29q-44 0 -79 20q-34 20 -54 54q-20 35 -20 76q0 37 17 72q17 34 45 53q29 20 64 20l21 -1l22 -2l18 -2q12 0 19 22q7 21 7 41q0 8 -6 9l-20 1q-56 0 -74 28q-18 27 -18 66q0 40 16 73q15 34 41 57q26 21 52 21q53 0 67 -83
q4 -37 19 -37q8 0 22 16q16 16 27 34q11 19 11 26q0 9 -10 28q-10 20 -42 36q-32 17 -86 17q-48 0 -95 -14q-45 -15 -78 -39q-33 -26 -52 -59q-20 -35 -20 -72q0 -95 104 -133q-49 -10 -88 -26l-9 -5q-18 -9 -25 -14q-3 -2 -8 -6q-14 -11 -20 -16q-62 -56 -62 -137
q0 -53 29 -97q28 -43 83 -66q54 -23 121 -23q53 0 98 12t87 39q4 3 6 4q25 18 37 27q25 20 42 37v56zM240 900q-11 -40 -42 -89q41 -30 70 -30q54 0 65 80q-21 3 -41 11q-13 5 -52 28zM417 900q-15 -40 -45 -90q48 -30 75 -30t42 20q10 11 14 26q5 15 5 33q-18 5 -42 14
q-18 7 -49 27z" />
    <glyph glyph-name="Igrave" unicode="&#xcc;" horiz-adv-x="604" 
d="M285 450q-2 9 -5 11l-11 10q-31 21 -31 54q0 24 13 46q14 23 35 34q21 12 44 12q18 0 46 -11q35 -12 55 -12q36 0 87 20q-61 -57 -97 -102q-17 -22 -31 -46q-12 -23 -25 -55q-22 -56 -38 -159q-9 -58 -21 -105q-13 -46 -40 -84q-27 -36 -70 -36q-30 0 -50 26t-20 69
q0 26 -3 36q-4 10 -18 10q-6 0 -27 -15q-21 -16 -37 -34q-17 -20 -17 -30q0 -19 20 -42q21 -24 56 -41q40 -17 90 -17q41 0 87 15q45 14 92 59q46 43 76 120q8 21 23 82q12 52 22 120l16 98l13 52q4 16 10 29q5 11 12 25q13 24 35 49q17 18 20 24q1 4 6 10q0 9 -12 16
q-14 8 -20 8q-7 0 -17 -7q-23 -17 -50 -17q-20 0 -55 12q-34 12 -58 12q-33 0 -73 -20q-40 -21 -69 -52q-28 -28 -50 -70q-20 -38 -20 -75q0 -33 17 -59q17 -27 35 -27q16 0 35 19q4 4 12 15l2 3q6 9 6 20zM438 758q-34 54 -49 90q-18 45 -25 87l-113 -19q31 -60 65 -94
q39 -40 99 -77z" />
    <glyph glyph-name="Iacute" unicode="&#xcd;" horiz-adv-x="604" 
d="M285 450q-2 9 -5 11l-11 10q-31 21 -31 54q0 24 13 46q14 23 35 34q21 12 44 12q18 0 46 -11q35 -12 55 -12q36 0 87 20q-61 -57 -97 -102q-17 -22 -31 -46q-12 -23 -25 -55q-22 -56 -38 -159q-9 -58 -21 -105q-13 -46 -40 -84q-27 -36 -70 -36q-30 0 -50 26t-20 69
q0 26 -3 36q-4 10 -18 10q-6 0 -27 -15q-21 -16 -37 -34q-17 -20 -17 -30q0 -19 20 -42q21 -24 56 -41q40 -17 90 -17q41 0 87 15q45 14 92 59q46 43 76 120q8 21 23 82q12 52 22 120l16 98l13 52q4 16 10 29q5 11 12 25q13 24 35 49q17 18 20 24q1 4 6 10q0 9 -12 16
q-14 8 -20 8q-7 0 -17 -7q-23 -17 -50 -17q-20 0 -55 12q-34 12 -58 12q-33 0 -73 -20q-40 -21 -69 -52q-28 -28 -50 -70q-20 -38 -20 -75q0 -33 17 -59q17 -27 35 -27q16 0 35 19q4 4 12 15l2 3q6 9 6 20zM436 749l76 46q32 23 53 44q12 12 20 24q10 13 14 20q13 23 19 48
l-112 -12q-14 -38 -37 -75q-24 -36 -63 -85z" />
    <glyph glyph-name="Icircumflex" unicode="&#xce;" horiz-adv-x="604" 
d="M285 450q-2 9 -5 11l-11 10q-31 21 -31 54q0 24 13 46q14 23 35 34q21 12 44 12q18 0 46 -11q35 -12 55 -12q36 0 87 20q-61 -57 -97 -102q-17 -22 -31 -46q-12 -23 -25 -55q-22 -56 -38 -159q-9 -58 -21 -105q-13 -46 -40 -84q-27 -36 -70 -36q-30 0 -50 26t-20 69
q0 26 -3 36q-4 10 -18 10q-6 0 -27 -15q-21 -16 -37 -34q-17 -20 -17 -30q0 -19 20 -42q21 -24 56 -41q40 -17 90 -17q41 0 87 15q45 14 92 59q46 43 76 120q8 21 23 82q12 52 22 120l16 98l13 52q4 16 10 29q5 11 12 25q13 24 35 49q17 18 20 24q1 4 6 10q0 9 -12 16
q-14 8 -20 8q-7 0 -17 -7q-23 -17 -50 -17q-20 0 -55 12q-34 12 -58 12q-33 0 -73 -20q-40 -21 -69 -52q-28 -28 -50 -70q-20 -38 -20 -75q0 -33 17 -59q17 -27 35 -27q16 0 35 19q4 4 12 15l2 3q6 9 6 20zM253 746q55 20 74 29q24 11 51 32l11 11q8 7 14 13q4 4 13 14
q10 11 16 17q30 -53 56 -78q25 -24 68 -36l4 19q-21 28 -29 47q-10 20 -13 53q-4 25 -4 85l-105 -19q-33 -54 -68 -91q-35 -38 -83 -72z" />
    <glyph glyph-name="Idieresis" unicode="&#xcf;" horiz-adv-x="604" 
d="M285 450q-2 9 -5 11l-11 10q-31 21 -31 54q0 24 13 46q14 23 35 34q21 12 44 12q18 0 46 -11q35 -12 55 -12q36 0 87 20q-61 -57 -97 -102q-17 -22 -31 -46q-12 -23 -25 -55q-22 -56 -38 -159q-9 -58 -21 -105q-13 -46 -40 -84q-27 -36 -70 -36q-30 0 -50 26t-20 69
q0 26 -3 36q-4 10 -18 10q-6 0 -27 -15q-21 -16 -37 -34q-17 -20 -17 -30q0 -19 20 -42q21 -24 56 -41q40 -17 90 -17q41 0 87 15q45 14 92 59q46 43 76 120q8 21 23 82q12 52 22 120l16 98l13 52q4 16 10 29q5 11 12 25q13 24 35 49q17 18 20 24q1 4 6 10q0 9 -12 16
q-14 8 -20 8q-7 0 -17 -7q-23 -17 -50 -17q-20 0 -55 12q-34 12 -58 12q-33 0 -73 -20q-40 -21 -69 -52q-28 -28 -50 -70q-20 -38 -20 -75q0 -33 17 -59q17 -27 35 -27q16 0 35 19q4 4 12 15l2 3q6 9 6 20zM327 900q-11 -40 -42 -89q41 -30 70 -30q54 0 65 80q-21 3 -41 11
q-13 5 -52 28zM504 900q-15 -40 -45 -90q48 -30 75 -30t42 20q10 11 14 26q5 15 5 33q-18 5 -42 14q-18 7 -49 27z" />
    <glyph glyph-name="Eth" unicode="&#xd0;" horiz-adv-x="760" 
d="M509 333l6 35h-84q8 66 21 100q15 34 47 69l-19 26q-33 -4 -63 -20q-13 -6 -30 -19q-13 -9 -27 -24q-22 -21 -39 -54q-17 -31 -28 -78h-65l-5 -38h63l-20 -131q-2 -7 -3 -13q-3 -13 -5 -18q-4 -14 -9 -22q-10 -19 -33 -39q-34 12 -73 12q-51 0 -88 -23q-37 -22 -37 -58
q0 -21 18 -35q17 -15 43 -15q25 0 47 9q27 9 59 29q21 -10 27 -12q5 -3 26 -9q20 -8 52 -12q35 -5 58 -5q76 0 151 32q73 31 130 90q56 57 88 131q30 71 30 153q0 93 -40 160q-41 69 -114 106q-72 37 -173 37q-88 0 -151 -25q-67 -26 -111 -65q-27 -25 -40 -43
q-17 -24 -27 -43q-22 -42 -22 -85q0 -35 18 -64q20 -29 45 -29q8 0 47 17q38 17 38 30t-18 22q-41 18 -41 66q0 44 34 85q34 42 85 68q51 27 103 27q48 0 93 -20q42 -19 71 -58q28 -37 45 -89q16 -51 16 -118q0 -51 -10 -102q-7 -39 -13 -58q-8 -29 -18 -52q-9 -24 -26 -49
q-16 -24 -31 -39q-34 -34 -81 -34q-38 0 -104 30l-45 19q73 43 106 97q32 52 44 148h82z" />
    <glyph glyph-name="Ntilde" unicode="&#xd1;" horiz-adv-x="885" 
d="M588 338l-13 74l-13 88l-12 93l-3 79q0 16 -5 21q-6 3 -30 3l-51 -7q-21 -3 -25 -6q-7 -7 -11 -19l-16 -46q-16 -45 -66 -232l-15 -59l-34 -116q-19 -61 -48 -111t-61 -50q-18 0 -31 16q-14 17 -18 52q-5 35 -20 35q-8 0 -28 -15q-9 -6 -17 -13l-5 -4q-3 -3 -12 -13
q-1 -2 -3 -4q-18 -21 -18 -31q0 -25 29 -54q29 -30 75 -30q61 0 104 46q43 48 65 103q1 4 2 4q13 36 21 60q14 41 24 79l58 212q8 30 14 39q0 -16 3 -43q4 -35 7 -54l1 -5q2 -23 3 -32q3 -22 6 -35l20 -111l17 -84l7 -49l5 -60l3 -57q1 -9 5 -11l16 -2l53 6l18 4q6 1 10 5
l25 46q16 34 37 91q21 56 38 134l15 68l23 105l21 73q12 32 33 53t52 24q24 4 35 15q10 10 10 37q0 46 -40 46q-65 0 -98 -75q-14 -34 -29 -86q-15 -51 -23 -96q-37 -195 -80 -304l-5 45l-9 60zM505 773q20 35 54 35q23 0 61 -20q26 -13 42 -18q17 -5 29 -5q37 0 62 21
q26 21 51 72l-28 24q-20 -38 -55 -38q-13 0 -50 17q-48 24 -80 24q-75 0 -113 -95z" />
    <glyph glyph-name="Ograve" unicode="&#xd2;" horiz-adv-x="635" 
d="M386 696q-57 0 -93 -13q-23 -7 -66 -50t-87 -111q-46 -68 -74 -152q-30 -85 -30 -172q0 -59 21 -107q20 -49 57 -75q36 -27 82 -27q71 0 144 52q75 52 140 138q34 45 59 92q21 40 44 96q39 101 39 194q0 44 -12 72q-10 30 -33 47q-22 16 -53 16q-46 0 -90 -37
q-46 -37 -75 -94q-29 -58 -29 -112q0 -40 20 -66q20 -27 49 -27q24 0 46 21q22 19 22 42q0 7 -3 10t-12 3q-32 0 -32 40q0 26 17 72q17 44 42 75q27 31 56 31q25 0 38 -25t13 -69q0 -66 -24 -143q-26 -81 -68 -151q-44 -75 -99 -131q-56 -58 -115 -58q-34 0 -56 19
q-24 18 -36 53q-13 32 -13 82q0 106 44 215q44 108 117 190l50 52v8zM418 758q-34 54 -49 90q-18 45 -25 87l-113 -19q31 -60 65 -94q39 -40 99 -77z" />
    <glyph glyph-name="Oacute" unicode="&#xd3;" horiz-adv-x="635" 
d="M386 696q-57 0 -93 -13q-23 -7 -66 -50t-87 -111q-46 -68 -74 -152q-30 -85 -30 -172q0 -59 21 -107q20 -49 57 -75q36 -27 82 -27q71 0 144 52q75 52 140 138q34 45 59 92q21 40 44 96q39 101 39 194q0 44 -12 72q-10 30 -33 47q-22 16 -53 16q-46 0 -90 -37
q-46 -37 -75 -94q-29 -58 -29 -112q0 -40 20 -66q20 -27 49 -27q24 0 46 21q22 19 22 42q0 7 -3 10t-12 3q-32 0 -32 40q0 26 17 72q17 44 42 75q27 31 56 31q25 0 38 -25t13 -69q0 -66 -24 -143q-26 -81 -68 -151q-44 -75 -99 -131q-56 -58 -115 -58q-34 0 -56 19
q-24 18 -36 53q-13 32 -13 82q0 106 44 215q44 108 117 190l50 52v8zM446 749l76 46q32 23 53 44q12 12 20 24q10 13 14 20q13 23 19 48l-112 -12q-14 -38 -37 -75q-24 -36 -63 -85z" />
    <glyph glyph-name="Ocircumflex" unicode="&#xd4;" horiz-adv-x="635" 
d="M386 696q-57 0 -93 -13q-23 -7 -66 -50t-87 -111q-46 -68 -74 -152q-30 -85 -30 -172q0 -59 21 -107q20 -49 57 -75q36 -27 82 -27q71 0 144 52q75 52 140 138q34 45 59 92q21 40 44 96q39 101 39 194q0 44 -12 72q-10 30 -33 47q-22 16 -53 16q-46 0 -90 -37
q-46 -37 -75 -94q-29 -58 -29 -112q0 -40 20 -66q20 -27 49 -27q24 0 46 21q22 19 22 42q0 7 -3 10t-12 3q-32 0 -32 40q0 26 17 72q17 44 42 75q27 31 56 31q25 0 38 -25t13 -69q0 -66 -24 -143q-26 -81 -68 -151q-44 -75 -99 -131q-56 -58 -115 -58q-34 0 -56 19
q-24 18 -36 53q-13 32 -13 82q0 106 44 215q44 108 117 190l50 52v8zM258 746q55 20 74 29q24 11 51 32l11 11q8 7 14 13q4 4 13 14q10 11 16 17q30 -53 56 -78q25 -24 68 -36l4 19q-21 28 -29 47q-10 20 -13 53q-4 25 -4 85l-105 -19q-33 -54 -68 -91q-35 -38 -83 -72z" />
    <glyph glyph-name="Otilde" unicode="&#xd5;" horiz-adv-x="635" 
d="M386 696q-57 0 -93 -13q-23 -7 -66 -50t-87 -111q-46 -68 -74 -152q-30 -85 -30 -172q0 -59 21 -107q20 -49 57 -75q36 -27 82 -27q71 0 144 52q75 52 140 138q34 45 59 92q21 40 44 96q39 101 39 194q0 44 -12 72q-10 30 -33 47q-22 16 -53 16q-46 0 -90 -37
q-46 -37 -75 -94q-29 -58 -29 -112q0 -40 20 -66q20 -27 49 -27q24 0 46 21q22 19 22 42q0 7 -3 10t-12 3q-32 0 -32 40q0 26 17 72q17 44 42 75q27 31 56 31q25 0 38 -25t13 -69q0 -66 -24 -143q-26 -81 -68 -151q-44 -75 -99 -131q-56 -58 -115 -58q-34 0 -56 19
q-24 18 -36 53q-13 32 -13 82q0 106 44 215q44 108 117 190l50 52v8zM305 773q20 35 54 35q23 0 61 -20q26 -13 42 -18q17 -5 29 -5q37 0 62 21q26 21 51 72l-28 24q-20 -38 -55 -38q-13 0 -50 17q-48 24 -80 24q-75 0 -113 -95z" />
    <glyph glyph-name="Odieresis" unicode="&#xd6;" horiz-adv-x="635" 
d="M386 696q-57 0 -93 -13q-23 -7 -66 -50t-87 -111q-46 -68 -74 -152q-30 -85 -30 -172q0 -59 21 -107q20 -49 57 -75q36 -27 82 -27q71 0 144 52q75 52 140 138q34 45 59 92q21 40 44 96q39 101 39 194q0 44 -12 72q-10 30 -33 47q-22 16 -53 16q-46 0 -90 -37
q-46 -37 -75 -94q-29 -58 -29 -112q0 -40 20 -66q20 -27 49 -27q24 0 46 21q22 19 22 42q0 7 -3 10t-12 3q-32 0 -32 40q0 26 17 72q17 44 42 75q27 31 56 31q25 0 38 -25t13 -69q0 -66 -24 -143q-26 -81 -68 -151q-44 -75 -99 -131q-56 -58 -115 -58q-34 0 -56 19
q-24 18 -36 53q-13 32 -13 82q0 106 44 215q44 108 117 190l50 52v8zM312 900q-11 -40 -42 -89q41 -30 70 -30q54 0 65 80q-21 3 -41 11q-13 5 -52 28zM489 900q-15 -40 -45 -90q48 -30 75 -30t42 20q10 11 14 26q5 15 5 33q-18 5 -42 14q-18 7 -49 27z" />
    <glyph glyph-name="multiply" unicode="&#xd7;" horiz-adv-x="668" 
d="M280 267l-193 -193l54 -54l194 193l192 -192l54 54l-192 192l194 194l-55 54l-194 -194l-194 194l-54 -54z" />
    <glyph glyph-name="Oslash" unicode="&#xd8;" horiz-adv-x="635" 
d="M642 682l-26 15l-23 -30q-15 15 -31 24q-14 7 -38 7q-46 0 -92 -37t-75 -94q-29 -58 -29 -114q0 -55 40 -83l-177 -234l-15 46q-4 15 -4 48q0 95 33 186q19 51 37 88q20 39 42 72q47 69 87 103q14 11 14 17l-3 2h-10q-60 0 -97 -19t-84 -81q-28 -37 -51 -72
q-25 -38 -41 -68t-30 -65q-14 -34 -21 -63q-16 -61 -16 -129q0 -115 72 -181l-29 -39l23 -18l31 41l37 -11l29 -3q92 0 193 89q98 87 167 224q67 134 67 259q0 42 -14 76zM580 601q6 -13 6 -37q0 -69 -24 -146q-26 -80 -67 -150q-45 -75 -100 -131q-57 -60 -114 -60
q-44 0 -73 32l193 253q28 4 47 22q17 17 17 40q0 11 -7 14zM428 450q-10 10 -10 28q0 26 17 72q16 43 44 75q25 31 55 31q21 0 35 -20z" />
    <glyph glyph-name="Ugrave" unicode="&#xd9;" horiz-adv-x="760" 
d="M771 164q-51 -56 -78 -77q-28 -24 -54 -24q-19 0 -33 20q-12 20 -12 51q0 18 11 79q3 18 7 38q4 18 6 28q5 26 15 65q17 75 39 159l27 103l23 83q0 7 -13 7l-70 -8q-33 -3 -38 -7q-7 -4 -15 -24q-23 -66 -31 -96q-14 -48 -21 -74l-51 -185q-1 -4 -7 -23l-6 -18
q-3 -9 -9 -28q-2 -4 -4 -10q-16 -42 -36 -78q-18 -35 -43 -60q-24 -24 -49 -24q-20 0 -31 15q-12 14 -12 39q0 16 6 41q5 26 15 54l19 56q32 94 45 146q13 53 13 108q0 49 -17 91q-16 40 -49 63q-32 22 -75 22q-38 0 -77 -21t-69 -57q-32 -35 -50 -80q-18 -46 -18 -91
q0 -34 18 -63t38 -29q16 0 39 23q21 23 21 40q0 8 -12 18q-33 30 -33 74q0 29 17 66q17 31 43 54q26 21 51 21q24 0 41 -20q16 -20 16 -56q0 -31 -15 -85q-20 -69 -35 -108q-31 -88 -45 -147q-15 -58 -15 -97q0 -67 32 -108t85 -41q45 0 83 26t63 61q25 32 48 77
q0 -42 4 -59l1 -3q4 -21 7 -28l12 -24q18 -24 40 -37q20 -13 47 -13q78 0 191 119v56zM456 758q-34 54 -49 90q-18 45 -25 87l-113 -19q31 -60 65 -94q39 -40 99 -77z" />
    <glyph glyph-name="Uacute" unicode="&#xda;" horiz-adv-x="760" 
d="M771 164q-51 -56 -78 -77q-28 -24 -54 -24q-19 0 -33 20q-12 20 -12 51q0 18 11 79q3 18 7 38q4 18 6 28q5 26 15 65q17 75 39 159l27 103l23 83q0 7 -13 7l-70 -8q-33 -3 -38 -7q-7 -4 -15 -24q-23 -66 -31 -96q-14 -48 -21 -74l-51 -185q-1 -4 -7 -23l-6 -18
q-3 -9 -9 -28q-2 -4 -4 -10q-16 -42 -36 -78q-18 -35 -43 -60q-24 -24 -49 -24q-20 0 -31 15q-12 14 -12 39q0 16 6 41q5 26 15 54l19 56q32 94 45 146q13 53 13 108q0 49 -17 91q-16 40 -49 63q-32 22 -75 22q-38 0 -77 -21t-69 -57q-32 -35 -50 -80q-18 -46 -18 -91
q0 -34 18 -63t38 -29q16 0 39 23q21 23 21 40q0 8 -12 18q-33 30 -33 74q0 29 17 66q17 31 43 54q26 21 51 21q24 0 41 -20q16 -20 16 -56q0 -31 -15 -85q-20 -69 -35 -108q-31 -88 -45 -147q-15 -58 -15 -97q0 -67 32 -108t85 -41q45 0 83 26t63 61q25 32 48 77
q0 -42 4 -59l1 -3q4 -21 7 -28l12 -24q18 -24 40 -37q20 -13 47 -13q78 0 191 119v56zM489 749l76 46q32 23 53 44q12 12 20 24q10 13 14 20q13 23 19 48l-112 -12q-14 -38 -37 -75q-24 -36 -63 -85z" />
    <glyph glyph-name="Ucircumflex" unicode="&#xdb;" horiz-adv-x="760" 
d="M771 164q-51 -56 -78 -77q-28 -24 -54 -24q-19 0 -33 20q-12 20 -12 51q0 18 11 79q3 18 7 38q4 18 6 28q5 26 15 65q17 75 39 159l27 103l23 83q0 7 -13 7l-70 -8q-33 -3 -38 -7q-7 -4 -15 -24q-23 -66 -31 -96q-14 -48 -21 -74l-51 -185q-1 -4 -7 -23l-6 -18
q-3 -9 -9 -28q-2 -4 -4 -10q-16 -42 -36 -78q-18 -35 -43 -60q-24 -24 -49 -24q-20 0 -31 15q-12 14 -12 39q0 16 6 41q5 26 15 54l19 56q32 94 45 146q13 53 13 108q0 49 -17 91q-16 40 -49 63q-32 22 -75 22q-38 0 -77 -21t-69 -57q-32 -35 -50 -80q-18 -46 -18 -91
q0 -34 18 -63t38 -29q16 0 39 23q21 23 21 40q0 8 -12 18q-33 30 -33 74q0 29 17 66q17 31 43 54q26 21 51 21q24 0 41 -20q16 -20 16 -56q0 -31 -15 -85q-20 -69 -35 -108q-31 -88 -45 -147q-15 -58 -15 -97q0 -67 32 -108t85 -41q45 0 83 26t63 61q25 32 48 77
q0 -42 4 -59l1 -3q4 -21 7 -28l12 -24q18 -24 40 -37q20 -13 47 -13q78 0 191 119v56zM311 746q55 20 74 29q24 11 51 32l11 11q8 7 14 13q4 4 13 14q10 11 16 17q30 -53 56 -78q25 -24 68 -36l4 19q-21 28 -29 47q-10 20 -13 53q-4 25 -4 85l-105 -19q-33 -54 -68 -91
q-35 -38 -83 -72z" />
    <glyph glyph-name="Udieresis" unicode="&#xdc;" horiz-adv-x="760" 
d="M771 164q-51 -56 -78 -77q-28 -24 -54 -24q-19 0 -33 20q-12 20 -12 51q0 18 11 79q3 18 7 38q4 18 6 28q5 26 15 65q17 75 39 159l27 103l23 83q0 7 -13 7l-70 -8q-33 -3 -38 -7q-7 -4 -15 -24q-23 -66 -31 -96q-14 -48 -21 -74l-51 -185q-1 -4 -7 -23l-6 -18
q-3 -9 -9 -28q-2 -4 -4 -10q-16 -42 -36 -78q-18 -35 -43 -60q-24 -24 -49 -24q-20 0 -31 15q-12 14 -12 39q0 16 6 41q5 26 15 54l19 56q32 94 45 146q13 53 13 108q0 49 -17 91q-16 40 -49 63q-32 22 -75 22q-38 0 -77 -21t-69 -57q-32 -35 -50 -80q-18 -46 -18 -91
q0 -34 18 -63t38 -29q16 0 39 23q21 23 21 40q0 8 -12 18q-33 30 -33 74q0 29 17 66q17 31 43 54q26 21 51 21q24 0 41 -20q16 -20 16 -56q0 -31 -15 -85q-20 -69 -35 -108q-31 -88 -45 -147q-15 -58 -15 -97q0 -67 32 -108t85 -41q45 0 83 26t63 61q25 32 48 77
q0 -42 4 -59l1 -3q4 -21 7 -28l12 -24q18 -24 40 -37q20 -13 47 -13q78 0 191 119v56zM360 900q-11 -40 -42 -89q41 -30 70 -30q54 0 65 80q-21 3 -41 11q-13 5 -52 28zM537 900q-15 -40 -45 -90q48 -30 75 -30t42 20q10 11 14 26q5 15 5 33q-18 5 -42 14q-18 7 -49 27z" />
    <glyph glyph-name="Yacute" unicode="&#xdd;" horiz-adv-x="760" 
d="M735 586l26 106q0 7 -11 7l-16 -1l-39 -5l-35 -4q-14 0 -25 -7q-7 -4 -9 -15l-29 -94q-16 -48 -45 -124q-36 -97 -81 -189q-48 -95 -89 -147q-44 -56 -76 -56t-32 44t41 162q31 86 47 152q13 53 13 108q0 49 -17 91q-18 40 -50 63q-32 22 -75 22q-61 0 -110 -40
q-50 -41 -77 -101q-28 -59 -28 -112q0 -33 19 -61q18 -29 39 -29q19 0 39 26q19 25 19 40q0 7 -12 17q-33 29 -33 75q0 33 17 67t42 53q26 20 51 20q28 0 44 -22t16 -53q0 -53 -51 -199q-32 -88 -45 -148q-14 -64 -14 -99q0 -61 30 -99q30 -39 80 -39q70 0 130 70
q59 69 105 165l68 143l-28 -93l-16 -62l-25 -98l-19 -75l-11 -46q-207 -72 -207 -177q0 -34 23 -54t59 -20q37 0 78 19q41 18 90 75q49 56 86 165q64 21 111 46q42 23 68 55v56q-37 -45 -75 -69q-38 -25 -89 -42l24 90q3 11 7 25q12 48 21 87zM451 -44q-5 -20 -16 -53
q-9 -26 -18 -46q-19 -40 -38 -56q-20 -17 -42 -17q-19 0 -31 13q-13 12 -13 29q0 21 20 47q9 11 25 24q10 8 33 22q34 21 80 37zM479 749l76 46q32 23 53 44q12 12 20 24q10 13 14 20q13 23 19 48l-112 -12q-14 -38 -37 -75q-24 -36 -63 -85z" />
    <glyph glyph-name="Thorn" unicode="&#xde;" horiz-adv-x="823" 
d="M533 701q-38 -15 -64 -30q-28 -16 -52 -44q-25 -26 -41 -69q-18 -43 -27 -107l-22 -183q-13 -110 -52 -177q-39 -64 -92 -64q-24 0 -38 17t-14 46l4 33l4 34q0 19 -15 19q-11 0 -35 -11q-15 -7 -30 -16q-9 -5 -20 -15q-20 -18 -20 -34q0 -18 12 -44q11 -26 43 -45
q32 -20 87 -20q56 0 111 23q55 24 95 65q32 35 52 70q22 39 36 92q13 48 19 109l13 130q35 16 77 16q53 0 71 -31q17 -32 17 -96q0 -41 -10 -90q-10 -51 -27 -86t-40 -35q-24 0 -28 43q-6 38 -22 38q-8 0 -19 -12l-19 -30q-8 -21 -8 -28q0 -13 12 -24q13 -12 32 -19
q21 -6 46 -6q55 0 107 29q50 28 81 79q29 50 29 105q0 48 -10 84q-11 38 -32 65t-58 43q-32 16 -84 16q-32 0 -67 -5q-33 -6 -43 -12q1 17 8 42q6 23 15 42q19 46 47 66z" />
    <glyph glyph-name="germandbls" unicode="&#xdf;" horiz-adv-x="604" 
d="M137 -225q10 117 39 272q16 -28 45 -43t60 -15q39 0 83 23q23 14 42 27q18 14 35 32q37 40 56 84q20 45 20 86q0 128 -145 158q81 57 114 98q34 41 34 92q0 46 -28 77q-28 30 -70 30q-65 0 -223 -79l-29 -75l-25 -80l-20 -69l-9 -32l-24 -110l-92 -99v-44h11l65 67
l-31 -204l-18 -126l-12 -96q59 9 122 26zM238 349q23 127 34 173q14 54 37 84q22 31 59 31q26 0 41 -19t15 -51q0 -35 -19 -63q-16 -30 -57 -66q-49 -44 -110 -89zM223 290l41 30q13 5 24 5q51 0 82 -39q31 -40 31 -105q0 -35 -14 -72q-13 -36 -35 -58q-21 -21 -45 -21
q-35 0 -35 54q-3 35 -20 35q-9 0 -20 -9l-55 -52z" />
    <glyph glyph-name="agrave" unicode="&#xe0;" 
d="M532 164q-31 -31 -43 -42q-4 -3 -5 -5q-16 -13 -24 -20q-16 -15 -34 -15q-13 0 -21 11q-9 11 -9 31q0 16 11 65l22 83l43 143h-27l-100 -55q-24 56 -85 56q-37 0 -80 -22q-42 -22 -83 -61q-40 -39 -66 -92q-26 -55 -26 -113q0 -36 14 -69q13 -32 38 -51q22 -19 51 -19
q42 0 84 33t91 103q0 -136 73 -136q34 0 68 25l10 8q23 18 36 30q14 12 44 40l18 16v56zM265 376q22 0 34 -16q11 -17 11 -42q0 -46 -19 -100q-19 -55 -51 -96t-65 -41q-18 0 -32 17t-14 42q0 41 20 99q19 56 51 97q31 40 65 40zM296 476q-34 54 -49 90q-18 45 -25 87
l-113 -19q31 -60 65 -94q39 -40 99 -77z" />
    <glyph glyph-name="aacute" unicode="&#xe1;" 
d="M532 164q-31 -31 -43 -42q-4 -3 -5 -5q-16 -13 -24 -20q-16 -15 -34 -15q-13 0 -21 11q-9 11 -9 31q0 16 11 65l22 83l43 143h-27l-100 -55q-24 56 -85 56q-37 0 -80 -22q-42 -22 -83 -61q-40 -39 -66 -92q-26 -55 -26 -113q0 -36 14 -69q13 -32 38 -51q22 -19 51 -19
q42 0 84 33t91 103q0 -136 73 -136q34 0 68 25l10 8q23 18 36 30q14 12 44 40l18 16v56zM265 376q22 0 34 -16q11 -17 11 -42q0 -46 -19 -100q-19 -55 -51 -96t-65 -41q-18 0 -32 17t-14 42q0 41 20 99q19 56 51 97q31 40 65 40zM304 467l76 46q32 23 53 44q12 12 20 24
q10 13 14 20q13 23 19 48l-112 -12q-14 -38 -37 -75q-24 -36 -63 -85z" />
    <glyph glyph-name="acircumflex" unicode="&#xe2;" 
d="M532 164q-31 -31 -43 -42q-4 -3 -5 -5q-16 -13 -24 -20q-16 -15 -34 -15q-13 0 -21 11q-9 11 -9 31q0 16 11 65l22 83l43 143h-27l-100 -55q-24 56 -85 56q-37 0 -80 -22q-42 -22 -83 -61q-40 -39 -66 -92q-26 -55 -26 -113q0 -36 14 -69q13 -32 38 -51q22 -19 51 -19
q42 0 84 33t91 103q0 -136 73 -136q34 0 68 25l10 8q23 18 36 30q14 12 44 40l18 16v56zM265 376q22 0 34 -16q11 -17 11 -42q0 -46 -19 -100q-19 -55 -51 -96t-65 -41q-18 0 -32 17t-14 42q0 41 20 99q19 56 51 97q31 40 65 40zM136 464q55 20 74 29q24 11 51 32l11 11
q8 7 14 13q4 4 13 14q10 11 16 17q30 -53 56 -78q25 -24 68 -36l4 19q-21 28 -29 47q-10 20 -13 53q-4 25 -4 85l-105 -19q-33 -54 -68 -91q-35 -38 -83 -72z" />
    <glyph glyph-name="atilde" unicode="&#xe3;" 
d="M532 164q-31 -31 -43 -42q-4 -3 -5 -5q-16 -13 -24 -20q-16 -15 -34 -15q-13 0 -21 11q-9 11 -9 31q0 16 11 65l22 83l43 143h-27l-100 -55q-24 56 -85 56q-37 0 -80 -22q-42 -22 -83 -61q-40 -39 -66 -92q-26 -55 -26 -113q0 -36 14 -69q13 -32 38 -51q22 -19 51 -19
q42 0 84 33t91 103q0 -136 73 -136q34 0 68 25l10 8q23 18 36 30q14 12 44 40l18 16v56zM265 376q22 0 34 -16q11 -17 11 -42q0 -46 -19 -100q-19 -55 -51 -96t-65 -41q-18 0 -32 17t-14 42q0 41 20 99q19 56 51 97q31 40 65 40zM168 491q20 35 54 35q23 0 61 -20
q26 -13 42 -18q17 -5 29 -5q37 0 62 21q26 21 51 72l-28 24q-20 -38 -55 -38q-13 0 -50 17q-48 24 -80 24q-75 0 -113 -95z" />
    <glyph glyph-name="adieresis" unicode="&#xe4;" 
d="M532 164q-31 -31 -43 -42q-4 -3 -5 -5q-16 -13 -24 -20q-16 -15 -34 -15q-13 0 -21 11q-9 11 -9 31q0 16 11 65l22 83l43 143h-27l-100 -55q-24 56 -85 56q-37 0 -80 -22q-42 -22 -83 -61q-40 -39 -66 -92q-26 -55 -26 -113q0 -36 14 -69q13 -32 38 -51q22 -19 51 -19
q42 0 84 33t91 103q0 -136 73 -136q34 0 68 25l10 8q23 18 36 30q14 12 44 40l18 16v56zM265 376q22 0 34 -16q11 -17 11 -42q0 -46 -19 -100q-19 -55 -51 -96t-65 -41q-18 0 -32 17t-14 42q0 41 20 99q19 56 51 97q31 40 65 40zM195 618q-11 -40 -42 -89q41 -30 70 -30
q54 0 65 80q-21 3 -41 11q-13 5 -52 28zM372 618q-15 -40 -45 -90q48 -30 75 -30t42 20q10 11 14 26q5 15 5 33q-18 5 -42 14q-18 7 -49 27z" />
    <glyph glyph-name="aring" unicode="&#xe5;" 
d="M532 164q-31 -31 -43 -42q-4 -3 -5 -5q-16 -13 -24 -20q-16 -15 -34 -15q-13 0 -21 11q-9 11 -9 31q0 16 11 65l22 83l43 143h-27l-100 -55q-24 56 -85 56q-37 0 -80 -22q-42 -22 -83 -61q-40 -39 -66 -92q-26 -55 -26 -113q0 -36 14 -69q13 -32 38 -51q22 -19 51 -19
q42 0 84 33t91 103q0 -136 73 -136q34 0 68 25l10 8q23 18 36 30q14 12 44 40l18 16v56zM265 376q22 0 34 -16q11 -17 11 -42q0 -46 -19 -100q-19 -55 -51 -96t-65 -41q-18 0 -32 17t-14 42q0 41 20 99q19 56 51 97q31 40 65 40zM329 651q-37 0 -63 -27q-27 -28 -27 -64
q0 -39 27 -66t65 -27t65 27t27 66q0 27 -13 46q-12 21 -34 33t-47 12zM332 616q24 0 40 -16t16 -40q0 -23 -17 -40t-40 -17q-22 0 -39 17t-17 40t17 40q16 16 40 16z" />
    <glyph glyph-name="ae" unicode="&#xe6;" horiz-adv-x="604" 
d="M615 164q-48 -54 -77 -72q-32 -20 -68 -20q-43 0 -68 25q-27 24 -36 69q82 17 130 46q51 29 70 63t19 63q0 21 -9 40q-11 18 -26 28q-16 10 -37 10q-49 0 -105 -48l14 48h-22l-104 -71q-21 71 -77 71q-35 0 -79 -24q-46 -27 -82 -67q-39 -44 -62 -94q-25 -51 -25 -110
q0 -53 29 -93q29 -39 71 -39q59 0 104 48q25 26 42 49q20 26 36 54q0 -31 6 -51q5 -20 19 -41q19 -26 51 -43q31 -16 67 -16q35 0 69 12q35 11 72 39q33 23 78 68v56zM366 196q9 43 17 68q9 28 20 53q24 51 62 51q12 0 20 -11t8 -27q0 -25 -14 -56q-16 -28 -39 -46
q-6 -5 -16 -11q-3 -2 -7 -4q-5 -2 -8 -4zM224 370q17 0 28 -14q10 -14 10 -43t-9 -70q-4 -22 -11 -40q-7 -20 -15 -38q-16 -38 -39 -61q-21 -24 -48 -24q-21 0 -34 16t-13 41q0 48 21 103q20 56 51 93t59 37z" />
    <glyph glyph-name="ccedilla" unicode="&#xe7;" horiz-adv-x="365" 
d="M47 -218q60 0 94 7q36 6 72 30q46 31 46 76q0 60 -65 72l29 34q8 2 23 9q12 5 24 12q24 13 53 38q32 27 53 48v56q-37 -37 -56 -52q-29 -25 -51 -32q-24 -8 -47 -8q-44 0 -73 35t-29 92q0 42 14 84q14 40 35 65q23 24 46 24q15 0 24 -13t9 -35l-3 -26l-3 -26q0 -10 7 -10
l15 5l57 27q12 5 19 14q5 8 5 20q0 40 -27 64q-29 23 -71 23t-87 -24q-46 -26 -79 -65q-34 -40 -54 -91q-20 -52 -20 -100q0 -64 41 -105t105 -41l10 1l-60 -65q25 0 39 -11t14 -34q0 -59 -102 -59z" />
    <glyph glyph-name="egrave" unicode="&#xe8;" horiz-adv-x="365" 
d="M376 164l-60 -56q-19 -16 -42 -27q-25 -11 -48 -11q-39 0 -66 24q-25 25 -36 71q67 21 103 38q40 18 77 50q35 32 35 76q0 40 -28 62q-29 23 -72 23q-45 0 -85 -22q-41 -23 -74 -60q-32 -38 -52 -88q-20 -51 -20 -101q0 -68 41 -111q40 -43 107 -43q20 0 36 3q11 2 33 8
q33 10 68 36q12 8 38 31q14 11 45 41v56zM120 198q0 52 14 94q13 38 37 62q23 21 40 21q16 0 25 -12t9 -35q0 -49 -31 -80q-32 -32 -94 -50zM218 476q-34 54 -49 90q-18 45 -25 87l-113 -19q31 -60 65 -94q39 -40 99 -77z" />
    <glyph glyph-name="eacute" unicode="&#xe9;" horiz-adv-x="365" 
d="M376 164l-60 -56q-19 -16 -42 -27q-25 -11 -48 -11q-39 0 -66 24q-25 25 -36 71q67 21 103 38q40 18 77 50q35 32 35 76q0 40 -28 62q-29 23 -72 23q-45 0 -85 -22q-41 -23 -74 -60q-32 -38 -52 -88q-20 -51 -20 -101q0 -68 41 -111q40 -43 107 -43q20 0 36 3q11 2 33 8
q33 10 68 36q12 8 38 31q14 11 45 41v56zM120 198q0 52 14 94q13 38 37 62q23 21 40 21q16 0 25 -12t9 -35q0 -49 -31 -80q-32 -32 -94 -50zM226 467l76 46q32 23 53 44q12 12 20 24q10 13 14 20q13 23 19 48l-112 -12q-14 -38 -37 -75q-24 -36 -63 -85z" />
    <glyph glyph-name="ecircumflex" unicode="&#xea;" horiz-adv-x="365" 
d="M376 164l-60 -56q-19 -16 -42 -27q-25 -11 -48 -11q-39 0 -66 24q-25 25 -36 71q67 21 103 38q40 18 77 50q35 32 35 76q0 40 -28 62q-29 23 -72 23q-45 0 -85 -22q-41 -23 -74 -60q-32 -38 -52 -88q-20 -51 -20 -101q0 -68 41 -111q40 -43 107 -43q20 0 36 3q11 2 33 8
q33 10 68 36q12 8 38 31q14 11 45 41v56zM120 198q0 52 14 94q13 38 37 62q23 21 40 21q16 0 25 -12t9 -35q0 -49 -31 -80q-32 -32 -94 -50zM58 464q55 20 74 29q24 11 51 32l11 11q8 7 14 13q4 4 13 14q10 11 16 17q30 -53 56 -78q25 -24 68 -36l4 19q-21 28 -29 47
q-10 20 -13 53q-4 25 -4 85l-105 -19q-33 -54 -68 -91q-35 -38 -83 -72z" />
    <glyph glyph-name="edieresis" unicode="&#xeb;" horiz-adv-x="365" 
d="M376 164l-60 -56q-19 -16 -42 -27q-25 -11 -48 -11q-39 0 -66 24q-25 25 -36 71q67 21 103 38q40 18 77 50q35 32 35 76q0 40 -28 62q-29 23 -72 23q-45 0 -85 -22q-41 -23 -74 -60q-32 -38 -52 -88q-20 -51 -20 -101q0 -68 41 -111q40 -43 107 -43q20 0 36 3q11 2 33 8
q33 10 68 36q12 8 38 31q14 11 45 41v56zM120 198q0 52 14 94q13 38 37 62q23 21 40 21q16 0 25 -12t9 -35q0 -49 -31 -80q-32 -32 -94 -50zM117 618q-11 -40 -42 -89q41 -30 70 -30q54 0 65 80q-21 3 -41 11q-13 5 -52 28zM294 618q-15 -40 -45 -90q48 -30 75 -30t42 20
q10 11 14 26q5 15 5 33q-18 5 -42 14q-18 7 -49 27z" />
    <glyph glyph-name="igrave" unicode="&#xec;" horiz-adv-x="287" 
d="M251 164q-37 -40 -57 -57t-42 -17q-11 0 -18 10t-7 26q0 26 7 53l23 82l49 153h-6l-124 -26q-11 -28 -21 -59q-15 -42 -28 -91q-21 -70 -21 -138q0 -47 21 -79q21 -33 53 -33q54 0 171 120v56zM156 476q-34 54 -49 90q-18 45 -25 87l-113 -19q31 -60 65 -94
q39 -40 99 -77z" />
    <glyph glyph-name="iacute" unicode="&#xed;" horiz-adv-x="287" 
d="M251 164q-37 -40 -57 -57t-42 -17q-11 0 -18 10t-7 26q0 26 7 53l23 82l49 153h-6l-124 -26q-11 -28 -21 -59q-15 -42 -28 -91q-21 -70 -21 -138q0 -47 21 -79q21 -33 53 -33q54 0 171 120v56zM164 467l76 46q32 23 53 44q12 12 20 24q10 13 14 20q13 23 19 48l-112 -12
q-14 -38 -37 -75q-24 -36 -63 -85z" />
    <glyph glyph-name="icircumflex" unicode="&#xee;" horiz-adv-x="287" 
d="M251 164q-37 -40 -57 -57t-42 -17q-11 0 -18 10t-7 26q0 26 7 53l23 82l49 153h-6l-124 -26q-11 -28 -21 -59q-15 -42 -28 -91q-21 -70 -21 -138q0 -47 21 -79q21 -33 53 -33q54 0 171 120v56zM-4 464q55 20 74 29q24 11 51 32l11 11q8 7 14 13q4 4 13 14q10 11 16 17
q30 -53 56 -78q25 -24 68 -36l4 19q-21 28 -29 47q-10 20 -13 53q-4 25 -4 85l-105 -19q-33 -54 -68 -91q-35 -38 -83 -72z" />
    <glyph glyph-name="idieresis" unicode="&#xef;" horiz-adv-x="267" 
d="M251 164q-37 -40 -57 -57t-42 -17q-11 0 -18 10t-7 26q0 26 7 53l23 82l49 153h-6l-124 -26q-11 -28 -21 -59q-15 -42 -28 -91q-21 -70 -21 -138q0 -47 21 -79q21 -33 53 -33q54 0 171 120v56zM65 618q-11 -40 -42 -89q41 -30 70 -30q54 0 65 80q-21 3 -41 11
q-13 5 -52 28zM242 618q-15 -40 -45 -90q48 -30 75 -30t42 20q10 11 14 26q5 15 5 33q-18 5 -42 14q-18 7 -49 27z" />
    <glyph glyph-name="eth" unicode="&#xf0;" horiz-adv-x="438" 
d="M159 635q28 -22 46 -43t36 -51l-70 -47l10 -19l71 47q32 -59 40 -120q-25 13 -52 13q-33 0 -75 -20q-41 -20 -78 -59q-35 -37 -59 -89q-23 -51 -23 -108q0 -64 36 -109q36 -44 89 -44q46 0 89 35q41 33 72 87q30 55 48 127q17 73 17 136q0 52 -9 98q-9 42 -31 95l73 49
l-13 19l-70 -46q-30 57 -82 112zM191 77q-62 0 -62 79q0 18 4 41q4 29 7 46q10 51 37 94q25 40 63 40q27 0 44 -20q15 -19 15 -58q0 -36 -12 -89q-14 -54 -37 -93q-24 -40 -59 -40z" />
    <glyph glyph-name="ntilde" unicode="&#xf1;" horiz-adv-x="479" 
d="M119 13l3 82q0 19 4 40q6 32 9 49l9 11q27 31 42 48q18 19 40 43q35 36 52 36q12 0 12 -16q0 -13 -23 -73q-43 -105 -43 -160q0 -38 20 -61t53 -23q41 0 88 29t105 90v56q-26 -30 -58 -60q-34 -34 -57 -34q-10 0 -18 8q-6 8 -6 21q0 20 29 96l22 60q11 33 15 56
q5 28 5 38q0 20 -7 34q-7 15 -21 24q-14 8 -30 8q-46 0 -92 -40q-30 -26 -54 -50q-43 -43 -65 -68q14 65 49 159l-119 -23l-37 -89q-11 -29 -22 -73l-4 -20q-2 -11 -4 -18q-2 -10 -6 -36l-1 -5q-3 -21 -3 -34v-32l5 -98zM147 491q20 35 54 35q23 0 61 -20q26 -13 42 -18
q17 -5 29 -5q37 0 62 21q26 21 51 72l-28 24q-20 -38 -55 -38q-13 0 -50 17q-48 24 -80 24q-75 0 -113 -95z" />
    <glyph glyph-name="ograve" unicode="&#xf2;" horiz-adv-x="438" 
d="M449 164q-51 -57 -84 -57q-26 0 -52 23q50 136 50 224q0 15 -1 18q-1 2 -2 6q0 4 -2 9q-4 10 -24 19q-19 9 -60 9q-71 0 -133 -36q-60 -36 -98 -99q-37 -62 -37 -136q0 -48 16 -82q16 -33 45 -53t66 -20q46 0 86 27q41 27 75 79q19 -15 36 -20q7 -3 17 -5h1q10 -2 16 -2
q41 0 85 40v56zM266 122q-40 -64 -75 -64q-25 0 -42 27q-17 26 -17 77q0 46 14 100q13 52 44 87q28 34 77 34q11 0 21 -2q-35 -32 -51 -62q-17 -32 -17 -73q0 -69 46 -124zM255 476q-34 54 -49 90q-18 45 -25 87l-113 -19q31 -60 65 -94q39 -40 99 -77z" />
    <glyph glyph-name="oacute" unicode="&#xf3;" horiz-adv-x="438" 
d="M449 164q-51 -57 -84 -57q-26 0 -52 23q50 136 50 224q0 15 -1 18q-1 2 -2 6q0 4 -2 9q-4 10 -24 19q-19 9 -60 9q-71 0 -133 -36q-60 -36 -98 -99q-37 -62 -37 -136q0 -48 16 -82q16 -33 45 -53t66 -20q46 0 86 27q41 27 75 79q19 -15 36 -20q7 -3 17 -5h1q10 -2 16 -2
q41 0 85 40v56zM266 122q-40 -64 -75 -64q-25 0 -42 27q-17 26 -17 77q0 46 14 100q13 52 44 87q28 34 77 34q11 0 21 -2q-35 -32 -51 -62q-17 -32 -17 -73q0 -69 46 -124zM263 467l76 46q32 23 53 44q12 12 20 24q10 13 14 20q13 23 19 48l-112 -12q-14 -38 -37 -75
q-24 -36 -63 -85z" />
    <glyph glyph-name="ocircumflex" unicode="&#xf4;" horiz-adv-x="438" 
d="M449 164q-51 -57 -84 -57q-26 0 -52 23q50 136 50 224q0 15 -1 18q-1 2 -2 6q0 4 -2 9q-4 10 -24 19q-19 9 -60 9q-71 0 -133 -36q-60 -36 -98 -99q-37 -62 -37 -136q0 -48 16 -82q16 -33 45 -53t66 -20q46 0 86 27q41 27 75 79q19 -15 36 -20q7 -3 17 -5h1q10 -2 16 -2
q41 0 85 40v56zM266 122q-40 -64 -75 -64q-25 0 -42 27q-17 26 -17 77q0 46 14 100q13 52 44 87q28 34 77 34q11 0 21 -2q-35 -32 -51 -62q-17 -32 -17 -73q0 -69 46 -124zM80 464q55 20 74 29q24 11 51 32l11 11q8 7 14 13q4 4 13 14q10 11 16 17q30 -53 56 -78
q25 -24 68 -36l4 19q-21 28 -29 47q-10 20 -13 53q-4 25 -4 85l-105 -19q-33 -54 -68 -91q-35 -38 -83 -72z" />
    <glyph glyph-name="otilde" unicode="&#xf5;" horiz-adv-x="438" 
d="M449 164q-51 -57 -84 -57q-26 0 -52 23q50 136 50 224q0 15 -1 18q-1 2 -2 6q0 4 -2 9q-4 10 -24 19q-19 9 -60 9q-71 0 -133 -36q-60 -36 -98 -99q-37 -62 -37 -136q0 -48 16 -82q16 -33 45 -53t66 -20q46 0 86 27q41 27 75 79q19 -15 36 -20q7 -3 17 -5h1q10 -2 16 -2
q41 0 85 40v56zM266 122q-40 -64 -75 -64q-25 0 -42 27q-17 26 -17 77q0 46 14 100q13 52 44 87q28 34 77 34q11 0 21 -2q-35 -32 -51 -62q-17 -32 -17 -73q0 -69 46 -124zM112 491q20 35 54 35q23 0 61 -20q26 -13 42 -18q17 -5 29 -5q37 0 62 21q26 21 51 72l-28 24
q-20 -38 -55 -38q-13 0 -50 17q-48 24 -80 24q-75 0 -113 -95z" />
    <glyph glyph-name="odieresis" unicode="&#xf6;" horiz-adv-x="438" 
d="M449 164q-51 -57 -84 -57q-26 0 -52 23q50 136 50 224q0 15 -1 18q-1 2 -2 6q0 4 -2 9q-4 10 -24 19q-19 9 -60 9q-71 0 -133 -36q-60 -36 -98 -99q-37 -62 -37 -136q0 -48 16 -82q16 -33 45 -53t66 -20q46 0 86 27q41 27 75 79q19 -15 36 -20q7 -3 17 -5h1q10 -2 16 -2
q41 0 85 40v56zM266 122q-40 -64 -75 -64q-25 0 -42 27q-17 26 -17 77q0 46 14 100q13 52 44 87q28 34 77 34q11 0 21 -2q-35 -32 -51 -62q-17 -32 -17 -73q0 -69 46 -124zM154 618q-11 -40 -42 -89q41 -30 70 -30q54 0 65 80q-21 3 -41 11q-13 5 -52 28zM331 618
q-15 -40 -45 -90q48 -30 75 -30t42 20q10 11 14 26q5 15 5 33q-18 5 -42 14q-18 7 -49 27z" />
    <glyph glyph-name="divide" unicode="&#xf7;" horiz-adv-x="668" 
d="M286 471q0 -21 14 -35q14 -15 34 -15q21 0 34 15q14 14 14 33q0 20 -14 34t-34 14q-21 0 -34 -13q-14 -14 -14 -33zM285 64q0 -13 7 -23q6 -12 18 -18q10 -7 24 -7q21 0 34 15q14 14 14 33q0 17 -14 33q-13 15 -34 15q-20 0 -34 -14q-15 -13 -15 -34zM66 228h536v79h-536
v-79z" />
    <glyph glyph-name="oslash" unicode="&#xf8;" horiz-adv-x="438" 
d="M449 164q-51 -57 -84 -57q-26 0 -52 23q48 128 48 225q0 17 -4 32l32 44l-17 13l-32 -44q-34 15 -75 15q-42 0 -89 -18q-46 -18 -86 -53q-39 -36 -63 -90t-24 -114q0 -23 5 -48q4 -21 15 -38q3 -5 13 -17q3 -4 11 -13q2 -3 6 -7l-42 -57l18 -12l43 56q30 -15 58 -15
q47 0 89 27q41 27 75 79q19 -15 36 -20q7 -3 17 -5h1q10 -2 16 -2q41 0 85 40v56zM132 123l-4 32q0 84 35 157q34 70 101 70l21 -1q-42 -35 -55 -68q-12 -31 -12 -75zM223 206q5 -23 13 -41q10 -21 28 -45l-2 -4q-13 -20 -17 -25t-14 -15l-5 -5q-18 -15 -37 -15
q-30 0 -50 39z" />
    <glyph glyph-name="ugrave" unicode="&#xf9;" 
d="M268 180q-7 -28 -45 -70q-39 -43 -65 -43q-16 0 -25 13q-10 13 -10 34q0 33 16 91l36 126l28 83l-130 -26q-68 -187 -68 -286q0 -52 22 -83t60 -31q39 0 80 26q39 25 99 89q0 -50 20 -82t60 -32q24 0 50 13q27 13 56 36q6 5 15 12q15 12 22 19q13 10 43 39v56l-10 -9
l-10 -10l-38 -36q-23 -19 -34 -24q-12 -6 -24 -6q-15 0 -22 13q-9 14 -9 33q0 10 1 17q2 12 3 17l17 63l25 84l34 109l-133 -27zM296 476q-34 54 -49 90q-18 45 -25 87l-113 -19q31 -60 65 -94q39 -40 99 -77z" />
    <glyph glyph-name="uacute" unicode="&#xfa;" 
d="M268 180q-7 -28 -45 -70q-39 -43 -65 -43q-16 0 -25 13q-10 13 -10 34q0 33 16 91l36 126l28 83l-130 -26q-68 -187 -68 -286q0 -52 22 -83t60 -31q39 0 80 26q39 25 99 89q0 -50 20 -82t60 -32q24 0 50 13q27 13 56 36q6 5 15 12q15 12 22 19q13 10 43 39v56l-10 -9
l-10 -10l-38 -36q-23 -19 -34 -24q-12 -6 -24 -6q-15 0 -22 13q-9 14 -9 33q0 10 1 17q2 12 3 17l17 63l25 84l34 109l-133 -27zM304 467l76 46q32 23 53 44q12 12 20 24q10 13 14 20q13 23 19 48l-112 -12q-14 -38 -37 -75q-24 -36 -63 -85z" />
    <glyph glyph-name="ucircumflex" unicode="&#xfb;" 
d="M268 180q-7 -28 -45 -70q-39 -43 -65 -43q-16 0 -25 13q-10 13 -10 34q0 33 16 91l36 126l28 83l-130 -26q-68 -187 -68 -286q0 -52 22 -83t60 -31q39 0 80 26q39 25 99 89q0 -50 20 -82t60 -32q24 0 50 13q27 13 56 36q6 5 15 12q15 12 22 19q13 10 43 39v56l-10 -9
l-10 -10l-38 -36q-23 -19 -34 -24q-12 -6 -24 -6q-15 0 -22 13q-9 14 -9 33q0 10 1 17q2 12 3 17l17 63l25 84l34 109l-133 -27zM121 464q55 20 74 29q24 11 51 32l11 11q8 7 14 13q4 4 13 14q10 11 16 17q30 -53 56 -78q25 -24 68 -36l4 19q-21 28 -29 47q-10 20 -13 53
q-4 25 -4 85l-105 -19q-33 -54 -68 -91q-35 -38 -83 -72z" />
    <glyph glyph-name="udieresis" unicode="&#xfc;" 
d="M268 180q-7 -28 -45 -70q-39 -43 -65 -43q-16 0 -25 13q-10 13 -10 34q0 33 16 91l36 126l28 83l-130 -26q-68 -187 -68 -286q0 -52 22 -83t60 -31q39 0 80 26q39 25 99 89q0 -50 20 -82t60 -32q24 0 50 13q27 13 56 36q6 5 15 12q15 12 22 19q13 10 43 39v56l-10 -9
l-10 -10l-38 -36q-23 -19 -34 -24q-12 -6 -24 -6q-15 0 -22 13q-9 14 -9 33q0 10 1 17q2 12 3 17l17 63l25 84l34 109l-133 -27zM195 618q-11 -40 -42 -89q41 -30 70 -30q54 0 65 80q-21 3 -41 11q-13 5 -52 28zM372 618q-15 -40 -45 -90q48 -30 75 -30t42 20q10 11 14 26
q5 15 5 33q-18 5 -42 14q-18 7 -49 27z" />
    <glyph glyph-name="yacute" unicode="&#xfd;" 
d="M37 266q-15 -35 -23 -82q-9 -43 -9 -76q0 -49 23 -81t61 -32q39 0 77 25q40 27 85 78l-30 -105q-9 -4 -35 -17q-33 -17 -48 -27q-35 -22 -55 -45q-21 -24 -29 -43q-9 -21 -9 -42q0 -32 19 -51t50 -19q83 0 147 87q40 56 73 149l84 42q30 15 61 37l53 44v56
q-45 -48 -80 -73l-7 -5q-24 -15 -38 -23q-27 -15 -58 -30l15 47l96 289l16 46l-133 -25l-56 -153q-16 -45 -40 -85q-15 -24 -25 -36q-13 -17 -24 -26q-25 -22 -45 -22q-30 0 -30 44q0 30 15 78q14 50 27 80l61 145l-142 -25zM207 -55q-20 -78 -45 -118q-26 -41 -52 -41
q-13 0 -20 10q-8 11 -8 23q0 32 33 67q36 35 92 59zM304 467l76 46q32 23 53 44q12 12 20 24q10 13 14 20q13 23 19 48l-112 -12q-14 -38 -37 -75q-24 -36 -63 -85z" />
    <glyph glyph-name="thorn" unicode="&#xfe;" horiz-adv-x="563" 
d="M179 498q-22 -89 -40 -138q-19 -51 -54 -103q-36 -53 -85 -105v-44h11q47 42 93 111l-31 -138l-23 -110l-20 -109l-16 -110l62 12l31 6l26 4q14 107 46 249q41 -32 80 -32q56 0 111 42q54 41 89 109q33 66 33 139q0 35 -14 69q-15 31 -41 48t-60 17q-30 0 -53 -13
q-24 -13 -69 -57l89 352l-61 -11l-64 -12zM216 190q16 73 41 109q24 34 58 34q25 0 40 -21t15 -57q0 -32 -9 -73q-9 -38 -26 -75q-16 -36 -39 -57q-22 -21 -48 -21q-18 0 -32 12q-13 11 -26 37z" />
    <glyph glyph-name="ydieresis" unicode="&#xff;" 
d="M37 266q-15 -35 -23 -82q-9 -43 -9 -76q0 -49 23 -81t61 -32q39 0 77 25q40 27 85 78l-30 -105q-9 -4 -35 -17q-33 -17 -48 -27q-35 -22 -55 -45q-21 -24 -29 -43q-9 -21 -9 -42q0 -32 19 -51t50 -19q83 0 147 87q40 56 73 149l84 42q30 15 61 37l53 44v56
q-45 -48 -80 -73l-7 -5q-24 -15 -38 -23q-27 -15 -58 -30l15 47l96 289l16 46l-133 -25l-56 -153q-16 -45 -40 -85q-15 -24 -25 -36q-13 -17 -24 -26q-25 -22 -45 -22q-30 0 -30 44q0 30 15 78q14 50 27 80l61 145l-142 -25zM207 -55q-20 -78 -45 -118q-26 -41 -52 -41
q-13 0 -20 10q-8 11 -8 23q0 32 33 67q36 35 92 59zM195 618q-11 -40 -42 -89q41 -30 70 -30q54 0 65 80q-21 3 -41 11q-13 5 -52 28zM372 618q-15 -40 -45 -90q48 -30 75 -30t42 20q10 11 14 26q5 15 5 33q-18 5 -42 14q-18 7 -49 27z" />
    </font>
</defs>
</svg>
